  0
SECTION
  2
HEADER
  9
$ACADVER
  1
AC1024
  9
$ACADMAINTVER
 70
6
  9
$DWGCODEPAGE
  3
ANSI_1252
  9
$LASTSAVEDBY
  1
ezdxf
  9
$INSBASE
 10
0.0
 20
0.0
 30
0.0
  9
$EXTMIN
 10
-100
 20
-100
 30
-100
  9
$EXTMAX
 10
100
 20
100
 30
100
  9
$LIMMIN
 10
0.0
 20
0.0
  9
$LIMMAX
 10
420.0
 20
297.0
  9
$ORTHOMODE
 70
0
  9
$REGENMODE
 70
1
  9
$FILLMODE
 70
1
  9
$QTEXTMODE
 70
0
  9
$MIRRTEXT
 70
1
  9
$LTSCALE
 40
1.0
  9
$ATTMODE
 70
1
  9
$TEXTSIZE
 40
2.5
  9
$TRACEWID
 40
1.0
  9
$TEXTSTYLE
  7
Standard
  9
$CLAYER
  8
0
  9
$CELTYPE
  6
ByLayer
  9
$CECOLOR
 62
256
  9
$CELTSCALE
 40
1.0
  9
$DISPSILH
 70
0
  9
$DIMSCALE
 40
1.0
  9
$DIMASZ
 40
2.5
  9
$DIMEXO
 40
0.625
  9
$DIMDLI
 40
3.75
  9
$DIMRND
 40
0.0
  9
$DIMDLE
 40
0.0
  9
$DIMEXE
 40
1.25
  9
$DIMTP
 40
0.0
  9
$DIMTM
 40
0.0
  9
$DIMTXT
 40
2.5
  9
$DIMCEN
 40
2.5
  9
$DIMTSZ
 40
0.0
  9
$DIMTOL
 70
0
  9
$DIMLIM
 70
0
  9
$DIMTIH
 70
0
  9
$DIMTOH
 70
0
  9
$DIMSE1
 70
0
  9
$DIMSE2
 70
0
  9
$DIMTAD
 70
1
  9
$DIMZIN
 70
8
  9
$DIMBLK
  1

  9
$DIMASO
 70
1
  9
$DIMSHO
 70
1
  9
$DIMPOST
  1

  9
$DIMAPOST
  1

  9
$DIMALT
 70
0
  9
$DIMALTD
 70
3
  9
$DIMALTF
 40
0.03937007874
  9
$DIMLFAC
 40
1.0
  9
$DIMTOFL
 70
1
  9
$DIMTVP
 40
0.0
  9
$DIMTIX
 70
0
  9
$DIMSOXD
 70
0
  9
$DIMSAH
 70
0
  9
$DIMBLK1
  1

  9
$DIMBLK2
  1

  9
$DIMSTYLE
  2
ISO-25
  9
$DIMCLRD
 70
0
  9
$DIMCLRE
 70
0
  9
$DIMCLRT
 70
0
  9
$DIMTFAC
 40
1.0
  9
$DIMGAP
 40
0.625
  9
$DIMJUST
 70
0
  9
$DIMSD1
 70
0
  9
$DIMSD2
 70
0
  9
$DIMTOLJ
 70
0
  9
$DIMTZIN
 70
8
  9
$DIMALTZ
 70
0
  9
$DIMALTTZ
 70
0
  9
$DIMUPT
 70
0
  9
$DIMDEC
 70
2
  9
$DIMTDEC
 70
2
  9
$DIMALTU
 70
2
  9
$DIMALTTD
 70
3
  9
$DIMTXSTY
  7
Standard
  9
$DIMAUNIT
 70
0
  9
$DIMADEC
 70
0
  9
$DIMALTRND
 40
0.0
  9
$DIMAZIN
 70
0
  9
$DIMDSEP
 70
44
  9
$DIMATFIT
 70
3
  9
$DIMFRAC
 70
0
  9
$DIMLDRBLK
  1

  9
$DIMLUNIT
 70
2
  9
$DIMLWD
 70
-2
  9
$DIMLWE
 70
-2
  9
$DIMTMOVE
 70
0
  9
$DIMFXL
 40
1.0
  9
$DIMFXLON
 70
0
  9
$DIMJOGANG
 40
0.785398163397
  9
$DIMTFILL
 70
0
  9
$DIMTFILLCLR
 70
0
  9
$DIMARCSYM
 70
0
  9
$DIMLTYPE
  6

  9
$DIMLTEX1
  6

  9
$DIMLTEX2
  6

  9
$DIMTXTDIRECTION
 70
0
  9
$LUNITS
 70
2
  9
$LUPREC
 70
4
  9
$SKETCHINC
 40
1.0
  9
$FILLETRAD
 40
10.0
  9
$AUNITS
 70
0
  9
$AUPREC
 70
2
  9
$MENU
  1
.
  9
$ELEVATION
 40
0.0
  9
$PELEVATION
 40
0.0
  9
$THICKNESS
 40
0.0
  9
$LIMCHECK
 70
0
  9
$CHAMFERA
 40
0.0
  9
$CHAMFERB
 40
0.0
  9
$CHAMFERC
 40
0.0
  9
$CHAMFERD
 40
0.0
  9
$SKPOLY
 70
0
  9
$TDCREATE
 40
2458975.58125
  9
$TDUCREATE
 40
2458532.153996898
  9
$TDUPDATE
 40
2458975.5812615743
  9
$TDUUPDATE
 40
2458532.1544311
  9
$TDINDWG
 40
0.0
  9
$TDUSRTIMER
 40
0.0
  9
$USRTIMER
 70
1
  9
$ANGBASE
 50
0.0
  9
$ANGDIR
 70
0
  9
$PDMODE
 70
0
  9
$PDSIZE
 40
0.0
  9
$PLINEWID
 40
0.0
  9
$SPLFRAME
 70
0
  9
$SPLINETYPE
 70
6
  9
$SPLINESEGS
 70
8
  9
$HANDSEED
  5
3CE
  9
$SURFTAB1
 70
6
  9
$SURFTAB2
 70
6
  9
$SURFTYPE
 70
6
  9
$SURFU
 70
6
  9
$SURFV
 70
6
  9
$UCSBASE
  2

  9
$UCSNAME
  2

  9
$UCSORG
 10
0.0
 20
0.0
 30
0.0
  9
$UCSXDIR
 10
1.0
 20
0.0
 30
0.0
  9
$UCSYDIR
 10
0.0
 20
1.0
 30
0.0
  9
$UCSORTHOREF
  2

  9
$UCSORTHOVIEW
 70
0
  9
$UCSORGTOP
 10
0.0
 20
0.0
 30
0.0
  9
$UCSORGBOTTOM
 10
0.0
 20
0.0
 30
0.0
  9
$UCSORGLEFT
 10
0.0
 20
0.0
 30
0.0
  9
$UCSORGRIGHT
 10
0.0
 20
0.0
 30
0.0
  9
$UCSORGFRONT
 10
0.0
 20
0.0
 30
0.0
  9
$UCSORGBACK
 10
0.0
 20
0.0
 30
0.0
  9
$PUCSBASE
  2

  9
$PUCSNAME
  2

  9
$PUCSORG
 10
0.0
 20
0.0
 30
0.0
  9
$PUCSXDIR
 10
1.0
 20
0.0
 30
0.0
  9
$PUCSYDIR
 10
0.0
 20
1.0
 30
0.0
  9
$PUCSORTHOREF
  2

  9
$PUCSORTHOVIEW
 70
0
  9
$PUCSORGTOP
 10
0.0
 20
0.0
 30
0.0
  9
$PUCSORGBOTTOM
 10
0.0
 20
0.0
 30
0.0
  9
$PUCSORGLEFT
 10
0.0
 20
0.0
 30
0.0
  9
$PUCSORGRIGHT
 10
0.0
 20
0.0
 30
0.0
  9
$PUCSORGFRONT
 10
0.0
 20
0.0
 30
0.0
  9
$PUCSORGBACK
 10
0.0
 20
0.0
 30
0.0
  9
$USERI1
 70
0
  9
$USERI2
 70
0
  9
$USERI3
 70
0
  9
$USERI4
 70
0
  9
$USERI5
 70
0
  9
$USERR1
 40
0.0
  9
$USERR2
 40
0.0
  9
$USERR3
 40
0.0
  9
$USERR4
 40
0.0
  9
$USERR5
 40
0.0
  9
$WORLDVIEW
 70
1
  9
$SHADEDGE
 70
3
  9
$SHADEDIF
 70
70
  9
$TILEMODE
 70
1
  9
$MAXACTVP
 70
64
  9
$PINSBASE
 10
0.0
 20
0.0
 30
0.0
  9
$PLIMCHECK
 70
0
  9
$PEXTMIN
 10
1e+20
 20
1e+20
 30
1e+20
  9
$PEXTMAX
 10
-1e+20
 20
-1e+20
 30
-1e+20
  9
$PLIMMIN
 10
0.0
 20
0.0
  9
$PLIMMAX
 10
420.0
 20
297.0
  9
$UNITMODE
 70
0
  9
$VISRETAIN
 70
1
  9
$PLINEGEN
 70
0
  9
$PSLTSCALE
 70
1
  9
$TREEDEPTH
 70
3020
  9
$CMLSTYLE
  2
Standard
  9
$CMLJUST
 70
0
  9
$CMLSCALE
 40
20.0
  9
$PROXYGRAPHICS
 70
1
  9
$MEASUREMENT
 70
1
  9
$CELWEIGHT
370
-1
  9
$ENDCAPS
280
0
  9
$JOINSTYLE
280
0
  9
$LWDISPLAY
290
0
  9
$INSUNITS
 70
6
  9
$HYPERLINKBASE
  1

  9
$STYLESHEET
  1

  9
$XEDIT
290
1
  9
$CEPSNTYPE
380
0
  9
$PSTYLEMODE
290
1
  9
$FINGERPRINTGUID
  2
86E9711A-8EC7-11EA-A510-B46BFCB90CA7
  9
$VERSIONGUID
  2
87F31294-8EC7-11EA-9329-B46BFCB90CA7
  9
$EXTNAMES
290
1
  9
$PSVPSCALE
 40
0.0
  9
$OLESTARTUP
290
0
  9
$SORTENTS
280
127
  9
$INDEXCTL
280
0
  9
$HIDETEXT
280
1
  9
$XCLIPFRAME
280
2
  9
$HALOGAP
280
0
  9
$OBSCOLOR
 70
257
  9
$OBSLTYPE
280
0
  9
$INTERSECTIONDISPLAY
280
0
  9
$INTERSECTIONCOLOR
 70
257
  9
$DIMASSOC
280
2
  9
$PROJECTNAME
  1

  9
$CAMERADISPLAY
290
0
  9
$LENSLENGTH
 40
50.0
  9
$CAMERAHEIGHT
 40
0.0
  9
$STEPSPERSEC
 40
24.0
  9
$STEPSIZE
 40
100.0
  9
$3DDWFPREC
 40
2.0
  9
$PSOLWIDTH
 40
0.005
  9
$PSOLHEIGHT
 40
0.08
  9
$LOFTANG1
 40
1.570796326795
  9
$LOFTANG2
 40
1.570796326795
  9
$LOFTMAG1
 40
0.0
  9
$LOFTMAG2
 40
0.0
  9
$LOFTPARAM
 70
7
  9
$LOFTNORMALS
280
1
  9
$LATITUDE
 40
37.795
  9
$LONGITUDE
 40
-122.394
  9
$NORTHDIRECTION
 40
0.0
  9
$TIMEZONE
 70
-8000
  9
$LIGHTGLYPHDISPLAY
280
1
  9
$TILEMODELIGHTSYNCH
280
1
  9
$CMATERIAL
347
20
  9
$SOLIDHIST
280
0
  9
$SHOWHIST
280
1
  9
$DWFFRAME
280
2
  9
$DGNFRAME
280
2
  9
$REALWORLDSCALE
290
1
  9
$INTERFERECOLOR
 62
256
  9
$CSHADOW
280
0
  9
$SHADOWPLANELOCATION
 40
0.0
  0
ENDSEC
  0
SECTION
  2
CLASSES
  0
CLASS
  1
ACDBDICTIONARYWDFLT
  2
AcDbDictionaryWithDefault
  3
ObjectDBX Classes
 90
0
 91
0
280
0
281
0
  0
CLASS
  1
SUN
  2
AcDbSun
  3
SCENEOE
 90
1153
 91
0
280
0
281
0
  0
CLASS
  1
VISUALSTYLE
  2
AcDbVisualStyle
  3
ObjectDBX Classes
 90
4095
 91
0
280
0
281
0
  0
CLASS
  1
MATERIAL
  2
AcDbMaterial
  3
ObjectDBX Classes
 90
1153
 91
0
280
0
281
0
  0
CLASS
  1
SCALE
  2
AcDbScale
  3
ObjectDBX Classes
 90
1153
 91
0
280
0
281
0
  0
CLASS
  1
TABLESTYLE
  2
AcDbTableStyle
  3
ObjectDBX Classes
 90
4095
 91
0
280
0
281
0
  0
CLASS
  1
MLEADERSTYLE
  2
AcDbMLeaderStyle
  3
ACDB_MLEADERSTYLE_CLASS
 90
4095
 91
0
280
0
281
0
  0
CLASS
  1
DICTIONARYVAR
  2
AcDbDictionaryVar
  3
ObjectDBX Classes
 90
0
 91
0
280
0
281
0
  0
CLASS
  1
CELLSTYLEMAP
  2
AcDbCellStyleMap
  3
ObjectDBX Classes
 90
1152
 91
0
280
0
281
0
  0
CLASS
  1
MENTALRAYRENDERSETTINGS
  2
AcDbMentalRayRenderSettings
  3
SCENEOE
 90
1024
 91
0
280
0
281
0
  0
CLASS
  1
ACDBDETAILVIEWSTYLE
  2
AcDbDetailViewStyle
  3
ObjectDBX Classes
 90
1025
 91
0
280
0
281
0
  0
CLASS
  1
ACDBSECTIONVIEWSTYLE
  2
AcDbSectionViewStyle
  3
ObjectDBX Classes
 90
1025
 91
0
280
0
281
0
  0
CLASS
  1
RASTERVARIABLES
  2
AcDbRasterVariables
  3
ISM
 90
0
 91
0
280
0
281
0
  0
CLASS
  1
LAYOUT
  2
AcDbLayout
  3
ObjectDBX Classes
 90
0
 91
0
280
0
281
0
  0
CLASS
  1
ACDBPLACEHOLDER
  2
AcDbPlaceHolder
  3
ObjectDBX Classes
 90
0
 91
0
280
0
281
0
  0
ENDSEC
  0
SECTION
  2
TABLES
  0
TABLE
  2
VPORT
  5
8
330
0
100
AcDbSymbolTable
 70
1
  0
VPORT
  5
23
330
8
100
AcDbSymbolTableRecord
100
AcDbViewportTableRecord
  2
*Active
 70
0
 10
0.0
 20
0.0
 11
1.0
 21
1.0
 12
70.0
 22
50.0
 13
0.0
 23
0.0
 14
0.5
 24
0.5
 15
0.5
 25
0.5
 16
0.0
 26
0.0
 36
1.0
 17
0.0
 27
0.0
 37
0.0
 40
1.0
 41
1.34
 42
50.0
 43
0.0
 44
0.0
 50
0.0
 51
0.0
 71
0
 72
1000
 73
1
 74
3
 75
0
 76
0
 77
0
 78
0
281
0
 65
0
146
0.0
  0
ENDTAB
  0
TABLE
  2
LTYPE
  5
2
330
0
100
AcDbSymbolTable
 70
3
  0
LTYPE
  5
24
330
2
100
AcDbSymbolTableRecord
100
AcDbLinetypeTableRecord
  2
ByBlock
 70
0
  3

 72
65
 73
0
 40
0.0
  0
LTYPE
  5
25
330
2
100
AcDbSymbolTableRecord
100
AcDbLinetypeTableRecord
  2
ByLayer
 70
0
  3

 72
65
 73
0
 40
0.0
  0
LTYPE
  5
26
330
2
100
AcDbSymbolTableRecord
100
AcDbLinetypeTableRecord
  2
Continuous
 70
0
  3

 72
65
 73
0
 40
0.0
  0
ENDTAB
  0
TABLE
  2
LAYER
  5
1
330
0
100
AcDbSymbolTable
 70
2
  0
LAYER
  5
27
330
1
100
AcDbSymbolTableRecord
100
AcDbLayerTableRecord
  2
0
 70
0
 62
7
  6
Continuous
370
-3
390
13
347
21
  0
LAYER
  5
28
330
1
100
AcDbSymbolTableRecord
100
AcDbLayerTableRecord
  2
Defpoints
 70
0
 62
7
  6
Continuous
290
0
370
-3
390
13
347
21
  0
ENDTAB
  0
TABLE
  2
STYLE
  5
5
330
0
100
AcDbSymbolTable
 70
1
  0
STYLE
  5
29
330
5
100
AcDbSymbolTableRecord
100
AcDbTextStyleTableRecord
  2
Standard
 70
0
 40
0.0
 41
1.0
 50
0.0
 71
0
 42
2.5
  3
txt
  4

  0
ENDTAB
  0
TABLE
  2
VIEW
  5
7
330
0
100
AcDbSymbolTable
 70
0
  0
ENDTAB
  0
TABLE
  2
UCS
  5
6
330
0
100
AcDbSymbolTable
 70
0
  0
ENDTAB
  0
TABLE
  2
APPID
  5
3
330
0
100
AcDbSymbolTable
 70
2
  0
APPID
  5
2A
330
3
100
AcDbSymbolTableRecord
100
AcDbRegAppTableRecord
  2
ACAD
 70
0
  0
APPID
  5
3CD
330
3
100
AcDbSymbolTableRecord
100
AcDbRegAppTableRecord
  2
HATCHBACKGROUNDCOLOR
 70
0
  0
ENDTAB
  0
TABLE
  2
DIMSTYLE
  5
4
330
0
100
AcDbSymbolTable
 70
1
100
AcDbDimStyleTable
  0
DIMSTYLE
105
2B
330
4
100
AcDbSymbolTableRecord
100
AcDbDimStyleTableRecord
  2
Standard
 70
0
 40
1.0
 41
2.5
 42
0.625
 43
3.75
 44
1.25
 45
0.0
 46
0.0
 47
0.0
 48
0.0
 49
2.5
140
2.5
141
2.5
142
0.0
143
0.03937007874
144
1.0
145
0.0
146
1.0
147
0.625
148
0.0
 69
0
 70
0
 71
0
 72
0
 73
0
 74
0
 75
0
 76
0
 77
1
 78
8
 79
0
170
0
171
3
172
1
173
0
174
0
175
0
176
0
177
0
178
0
179
0
271
0
272
2
273
2
274
3
275
0
276
0
277
2
278
44
279
0
280
0
281
0
282
0
283
0
284
8
285
0
286
0
288
0
289
3
290
0
371
-2
372
-2
  0
ENDTAB
  0
TABLE
  2
BLOCK_RECORD
  5
9
330
0
100
AcDbSymbolTable
 70
2
  0
BLOCK_RECORD
  5
17
330
9
100
AcDbSymbolTableRecord
100
AcDbBlockTableRecord
  2
*Model_Space
340
1A
 70
0
280
1
281
1
  0
BLOCK_RECORD
  5
1B
330
9
100
AcDbSymbolTableRecord
100
AcDbBlockTableRecord
  2
*Paper_Space
340
1E
 70
0
280
1
281
1
  0
ENDTAB
  0
ENDSEC
  0
SECTION
  2
BLOCKS
  0
BLOCK
  5
18
330
17
100
AcDbEntity
  8
0
100
AcDbBlockBegin
  2
*Model_Space
 70
0
 10
0.0
 20
0.0
 30
0.0
  3
*Model_Space
  1

  0
ENDBLK
  5
19
330
17
100
AcDbEntity
  8
0
100
AcDbBlockEnd
  0
BLOCK
  5
1C
330
1B
100
AcDbEntity
  8
0
100
AcDbBlockBegin
  2
*Paper_Space
 70
0
 10
0.0
 20
0.0
 30
0.0
  3
*Paper_Space
  1

  0
ENDBLK
  5
1D
330
1B
100
AcDbEntity
  8
0
100
AcDbBlockEnd
  0
ENDSEC
  0
SECTION
  2
ENTITIES
  0
HATCH
  5
2D
330
17
100
AcDbEntity
  8
0
 62
1
100
AcDbHatch
 10
0.0
 20
0.0
 30
0.0
210
0.0
220
0.0
230
1.0
  2
SOLID
 70
1
 71
0
 91
1
 92
1
 93
1
 72
3
 10
6010718.65
 20
6568802.52
 11
0.0
 21
0.005
 40
1
 50
0.0
 51
360.0
 73
0
 97
0
 75
0
 76
1
 98
0
  0
LINE
  5
2E
330
17
100
AcDbEntity
  8
0
100
AcDbLine
 10
6010718.72
 20
6568802.59
 30
0.0
 11
6010718.65
 21
6568802.52
 31
0.0
  0
LINE
  5
2F
330
17
100
AcDbEntity
  8
0
 62
4
100
AcDbLine
 10
6010718.72
 20
6568802.59
 30
0.0
 11
6010718.65
 21
6568802.59
 31
0.0
  0
LINE
  5
30
330
17
100
AcDbEntity
  8
0
 62
2
100
AcDbLine
 10
6010718.72
 20
6568802.59
 30
0.0
 11
6010718.72
 21
6568802.52
 31
0.0
  0
HATCH
  5
31
330
17
100
AcDbEntity
  8
0
 62
1
100
AcDbHatch
 10
0.0
 20
0.0
 30
0.0
210
0.0
220
0.0
230
1.0
  2
SOLID
 70
1
 71
0
 91
1
 92
1
 93
1
 72
3
 10
6010716.55
 20
6568802.43
 11
0.0
 21
0.005
 40
1
 50
0.0
 51
360.0
 73
0
 97
0
 75
0
 76
1
 98
0
  0
LINE
  5
32
330
17
100
AcDbEntity
  8
0
100
AcDbLine
 10
6010716.62
 20
6568802.46
 30
0.0
 11
6010716.55
 21
6568802.43
 31
0.0
  0
LINE
  5
33
330
17
100
AcDbEntity
  8
0
 62
4
100
AcDbLine
 10
6010716.62
 20
6568802.46
 30
0.0
 11
6010716.55
 21
6568802.46
 31
0.0
  0
LINE
  5
34
330
17
100
AcDbEntity
  8
0
 62
2
100
AcDbLine
 10
6010716.62
 20
6568802.46
 30
0.0
 11
6010716.62
 21
6568802.43
 31
0.0
  0
HATCH
  5
35
330
17
100
AcDbEntity
  8
0
 62
1
100
AcDbHatch
 10
0.0
 20
0.0
 30
0.0
210
0.0
220
0.0
230
1.0
  2
SOLID
 70
1
 71
0
 91
1
 92
1
 93
1
 72
3
 10
6010714.42
 20
6568802.32
 11
0.0
 21
0.005
 40
1
 50
0.0
 51
360.0
 73
0
 97
0
 75
0
 76
1
 98
0
  0
LINE
  5
36
330
17
100
AcDbEntity
  8
0
100
AcDbLine
 10
6010714.52
 20
6568802.33
 30
0.0
 11
6010714.42
 21
6568802.32
 31
0.0
  0
LINE
  5
37
330
17
100
AcDbEntity
  8
0
 62
4
100
AcDbLine
 10
6010714.52
 20
6568802.33
 30
0.0
 11
6010714.42
 21
6568802.33
 31
0.0
  0
LINE
  5
38
330
17
100
AcDbEntity
  8
0
 62
2
100
AcDbLine
 10
6010714.52
 20
6568802.33
 30
0.0
 11
6010714.52
 21
6568802.32
 31
0.0
  0
HATCH
  5
39
330
17
100
AcDbEntity
  8
0
 62
1
100
AcDbHatch
 10
0.0
 20
0.0
 30
0.0
210
0.0
220
0.0
230
1.0
  2
SOLID
 70
1
 71
0
 91
1
 92
1
 93
1
 72
3
 10
6010712.34
 20
6568802.16
 11
0.0
 21
0.005
 40
1
 50
0.0
 51
360.0
 73
0
 97
0
 75
0
 76
1
 98
0
  0
LINE
  5
3A
330
17
100
AcDbEntity
  8
0
100
AcDbLine
 10
6010712.43
 20
6568802.2
 30
0.0
 11
6010712.34
 21
6568802.16
 31
0.0
  0
LINE
  5
3B
330
17
100
AcDbEntity
  8
0
 62
4
100
AcDbLine
 10
6010712.43
 20
6568802.2
 30
0.0
 11
6010712.34
 21
6568802.2
 31
0.0
  0
LINE
  5
3C
330
17
100
AcDbEntity
  8
0
 62
2
100
AcDbLine
 10
6010712.43
 20
6568802.2
 30
0.0
 11
6010712.43
 21
6568802.16
 31
0.0
  0
HATCH
  5
3D
330
17
100
AcDbEntity
  8
0
 62
1
100
AcDbHatch
 10
0.0
 20
0.0
 30
0.0
210
0.0
220
0.0
230
1.0
  2
SOLID
 70
1
 71
0
 91
1
 92
1
 93
1
 72
3
 10
6010718.59
 20
6568804.54
 11
0.0
 21
0.005
 40
1
 50
0.0
 51
360.0
 73
0
 97
0
 75
0
 76
1
 98
0
  0
LINE
  5
3E
330
17
100
AcDbEntity
  8
0
100
AcDbLine
 10
6010718.68
 20
6568804.55
 30
0.0
 11
6010718.59
 21
6568804.54
 31
0.0
  0
LINE
  5
3F
330
17
100
AcDbEntity
  8
0
 62
4
100
AcDbLine
 10
6010718.68
 20
6568804.55
 30
0.0
 11
6010718.59
 21
6568804.55
 31
0.0
  0
LINE
  5
40
330
17
100
AcDbEntity
  8
0
 62
2
100
AcDbLine
 10
6010718.68
 20
6568804.55
 30
0.0
 11
6010718.68
 21
6568804.54
 31
0.0
  0
HATCH
  5
41
330
17
100
AcDbEntity
  8
0
 62
1
100
AcDbHatch
 10
0.0
 20
0.0
 30
0.0
210
0.0
220
0.0
230
1.0
  2
SOLID
 70
1
 71
0
 91
1
 92
1
 93
1
 72
3
 10
6010716.5
 20
6568804.46
 11
0.0
 21
0.005
 40
1
 50
0.0
 51
360.0
 73
0
 97
0
 75
0
 76
1
 98
0
  0
LINE
  5
42
330
17
100
AcDbEntity
  8
0
100
AcDbLine
 10
6010716.58
 20
6568804.51
 30
0.0
 11
6010716.5
 21
6568804.46
 31
0.0
  0
LINE
  5
43
330
17
100
AcDbEntity
  8
0
 62
4
100
AcDbLine
 10
6010716.58
 20
6568804.51
 30
0.0
 11
6010716.5
 21
6568804.51
 31
0.0
  0
LINE
  5
44
330
17
100
AcDbEntity
  8
0
 62
2
100
AcDbLine
 10
6010716.58
 20
6568804.51
 30
0.0
 11
6010716.58
 21
6568804.46
 31
0.0
  0
HATCH
  5
45
330
17
100
AcDbEntity
  8
0
 62
1
100
AcDbHatch
 10
0.0
 20
0.0
 30
0.0
210
0.0
220
0.0
230
1.0
  2
SOLID
 70
1
 71
0
 91
1
 92
1
 93
1
 72
3
 10
6010714.42
 20
6568804.4
 11
0.0
 21
0.005
 40
1
 50
0.0
 51
360.0
 73
0
 97
0
 75
0
 76
1
 98
0
  0
LINE
  5
46
330
17
100
AcDbEntity
  8
0
100
AcDbLine
 10
6010714.48
 20
6568804.47
 30
0.0
 11
6010714.42
 21
6568804.4
 31
0.0
  0
LINE
  5
47
330
17
100
AcDbEntity
  8
0
 62
4
100
AcDbLine
 10
6010714.48
 20
6568804.47
 30
0.0
 11
6010714.42
 21
6568804.47
 31
0.0
  0
LINE
  5
48
330
17
100
AcDbEntity
  8
0
 62
2
100
AcDbLine
 10
6010714.48
 20
6568804.47
 30
0.0
 11
6010714.48
 21
6568804.4
 31
0.0
  0
HATCH
  5
49
330
17
100
AcDbEntity
  8
0
 62
1
100
AcDbHatch
 10
0.0
 20
0.0
 30
0.0
210
0.0
220
0.0
230
1.0
  2
SOLID
 70
1
 71
0
 91
1
 92
1
 93
1
 72
3
 10
6010712.33
 20
6568804.42
 11
0.0
 21
0.005
 40
1
 50
0.0
 51
360.0
 73
0
 97
0
 75
0
 76
1
 98
0
  0
LINE
  5
4A
330
17
100
AcDbEntity
  8
0
100
AcDbLine
 10
6010712.38
 20
6568804.43
 30
0.0
 11
6010712.33
 21
6568804.42
 31
0.0
  0
LINE
  5
4B
330
17
100
AcDbEntity
  8
0
 62
4
100
AcDbLine
 10
6010712.38
 20
6568804.43
 30
0.0
 11
6010712.33
 21
6568804.43
 31
0.0
  0
LINE
  5
4C
330
17
100
AcDbEntity
  8
0
 62
2
100
AcDbLine
 10
6010712.38
 20
6568804.43
 30
0.0
 11
6010712.38
 21
6568804.42
 31
0.0
  0
HATCH
  5
4D
330
17
100
AcDbEntity
  8
0
 62
1
100
AcDbHatch
 10
0.0
 20
0.0
 30
0.0
210
0.0
220
0.0
230
1.0
  2
SOLID
 70
1
 71
0
 91
1
 92
1
 93
1
 72
3
 10
6010718.66
 20
6568806.58
 11
0.0
 21
0.005
 40
1
 50
0.0
 51
360.0
 73
0
 97
0
 75
0
 76
1
 98
0
  0
LINE
  5
4E
330
17
100
AcDbEntity
  8
0
100
AcDbLine
 10
6010718.64
 20
6568806.65
 30
0.0
 11
6010718.66
 21
6568806.58
 31
0.0
  0
LINE
  5
4F
330
17
100
AcDbEntity
  8
0
 62
4
100
AcDbLine
 10
6010718.64
 20
6568806.65
 30
0.0
 11
6010718.66
 21
6568806.65
 31
0.0
  0
LINE
  5
50
330
17
100
AcDbEntity
  8
0
 62
2
100
AcDbLine
 10
6010718.64
 20
6568806.65
 30
0.0
 11
6010718.64
 21
6568806.58
 31
0.0
  0
HATCH
  5
51
330
17
100
AcDbEntity
  8
0
 62
1
100
AcDbHatch
 10
0.0
 20
0.0
 30
0.0
210
0.0
220
0.0
230
1.0
  2
SOLID
 70
1
 71
0
 91
1
 92
1
 93
1
 72
3
 10
6010716.54
 20
6568806.64
 11
0.0
 21
0.005
 40
1
 50
0.0
 51
360.0
 73
0
 97
0
 75
0
 76
1
 98
0
  0
LINE
  5
52
330
17
100
AcDbEntity
  8
0
100
AcDbLine
 10
6010716.54
 20
6568806.61
 30
0.0
 11
6010716.54
 21
6568806.64
 31
0.0
  0
LINE
  5
53
330
17
100
AcDbEntity
  8
0
 62
4
100
AcDbLine
 10
6010716.54
 20
6568806.61
 30
0.0
 11
6010716.54
 21
6568806.61
 31
0.0
  0
LINE
  5
54
330
17
100
AcDbEntity
  8
0
 62
2
100
AcDbLine
 10
6010716.54
 20
6568806.61
 30
0.0
 11
6010716.54
 21
6568806.64
 31
0.0
  0
HATCH
  5
55
330
17
100
AcDbEntity
  8
0
 62
1
100
AcDbHatch
 10
0.0
 20
0.0
 30
0.0
210
0.0
220
0.0
230
1.0
  2
SOLID
 70
1
 71
0
 91
1
 92
1
 93
1
 72
3
 10
6010714.49
 20
6568806.61
 11
0.0
 21
0.005
 40
1
 50
0.0
 51
360.0
 73
0
 97
0
 75
0
 76
1
 98
0
  0
LINE
  5
56
330
17
100
AcDbEntity
  8
0
100
AcDbLine
 10
6010714.44
 20
6568806.57
 30
0.0
 11
6010714.49
 21
6568806.61
 31
0.0
  0
LINE
  5
57
330
17
100
AcDbEntity
  8
0
 62
4
100
AcDbLine
 10
6010714.44
 20
6568806.57
 30
0.0
 11
6010714.49
 21
6568806.57
 31
0.0
  0
LINE
  5
58
330
17
100
AcDbEntity
  8
0
 62
2
100
AcDbLine
 10
6010714.44
 20
6568806.57
 30
0.0
 11
6010714.44
 21
6568806.61
 31
0.0
  0
HATCH
  5
59
330
17
100
AcDbEntity
  8
0
 62
1
100
AcDbHatch
 10
0.0
 20
0.0
 30
0.0
210
0.0
220
0.0
230
1.0
  2
SOLID
 70
1
 71
0
 91
1
 92
1
 93
1
 72
3
 10
6010712.3
 20
6568806.43
 11
0.0
 21
0.005
 40
1
 50
0.0
 51
360.0
 73
0
 97
0
 75
0
 76
1
 98
0
  0
LINE
  5
5A
330
17
100
AcDbEntity
  8
0
100
AcDbLine
 10
6010712.34
 20
6568806.53
 30
0.0
 11
6010712.3
 21
6568806.43
 31
0.0
  0
LINE
  5
5B
330
17
100
AcDbEntity
  8
0
 62
4
100
AcDbLine
 10
6010712.34
 20
6568806.53
 30
0.0
 11
6010712.3
 21
6568806.53
 31
0.0
  0
LINE
  5
5C
330
17
100
AcDbEntity
  8
0
 62
2
100
AcDbLine
 10
6010712.34
 20
6568806.53
 30
0.0
 11
6010712.34
 21
6568806.43
 31
0.0
  0
HATCH
  5
5D
330
17
100
AcDbEntity
  8
0
 62
1
100
AcDbHatch
 10
0.0
 20
0.0
 30
0.0
210
0.0
220
0.0
230
1.0
  2
SOLID
 70
1
 71
0
 91
1
 92
1
 93
1
 72
3
 10
6010718.55
 20
6568808.66
 11
0.0
 21
0.005
 40
1
 50
0.0
 51
360.0
 73
0
 97
0
 75
0
 76
1
 98
0
  0
LINE
  5
5E
330
17
100
AcDbEntity
  8
0
100
AcDbLine
 10
6010718.59
 20
6568808.75
 30
0.0
 11
6010718.55
 21
6568808.66
 31
0.0
  0
LINE
  5
5F
330
17
100
AcDbEntity
  8
0
 62
4
100
AcDbLine
 10
6010718.59
 20
6568808.75
 30
0.0
 11
6010718.55
 21
6568808.75
 31
0.0
  0
LINE
  5
60
330
17
100
AcDbEntity
  8
0
 62
2
100
AcDbLine
 10
6010718.59
 20
6568808.75
 30
0.0
 11
6010718.59
 21
6568808.66
 31
0.0
  0
HATCH
  5
61
330
17
100
AcDbEntity
  8
0
 62
1
100
AcDbHatch
 10
0.0
 20
0.0
 30
0.0
210
0.0
220
0.0
230
1.0
  2
SOLID
 70
1
 71
0
 91
1
 92
1
 93
1
 72
3
 10
6010716.59
 20
6568808.71
 11
0.0
 21
0.005
 40
1
 50
0.0
 51
360.0
 73
0
 97
0
 75
0
 76
1
 98
0
  0
LINE
  5
62
330
17
100
AcDbEntity
  8
0
100
AcDbLine
 10
6010716.49
 20
6568808.71
 30
0.0
 11
6010716.59
 21
6568808.71
 31
0.0
  0
LINE
  5
63
330
17
100
AcDbEntity
  8
0
 62
4
100
AcDbLine
 10
6010716.49
 20
6568808.71
 30
0.0
 11
6010716.59
 21
6568808.71
 31
0.0
  0
LINE
  5
64
330
17
100
AcDbEntity
  8
0
 62
2
100
AcDbLine
 10
6010716.49
 20
6568808.71
 30
0.0
 11
6010716.49
 21
6568808.71
 31
0.0
  0
HATCH
  5
65
330
17
100
AcDbEntity
  8
0
 62
1
100
AcDbHatch
 10
0.0
 20
0.0
 30
0.0
210
0.0
220
0.0
230
1.0
  2
SOLID
 70
1
 71
0
 91
1
 92
1
 93
1
 72
3
 10
6010714.3
 20
6568808.63
 11
0.0
 21
0.005
 40
1
 50
0.0
 51
360.0
 73
0
 97
0
 75
0
 76
1
 98
0
  0
LINE
  5
66
330
17
100
AcDbEntity
  8
0
100
AcDbLine
 10
6010714.39
 20
6568808.67
 30
0.0
 11
6010714.3
 21
6568808.63
 31
0.0
  0
LINE
  5
67
330
17
100
AcDbEntity
  8
0
 62
4
100
AcDbLine
 10
6010714.39
 20
6568808.67
 30
0.0
 11
6010714.3
 21
6568808.67
 31
0.0
  0
LINE
  5
68
330
17
100
AcDbEntity
  8
0
 62
2
100
AcDbLine
 10
6010714.39
 20
6568808.67
 30
0.0
 11
6010714.39
 21
6568808.63
 31
0.0
  0
HATCH
  5
69
330
17
100
AcDbEntity
  8
0
 62
1
100
AcDbHatch
 10
0.0
 20
0.0
 30
0.0
210
0.0
220
0.0
230
1.0
  2
SOLID
 70
1
 71
0
 91
1
 92
1
 93
1
 72
3
 10
6010712.22
 20
6568808.57
 11
0.0
 21
0.005
 40
1
 50
0.0
 51
360.0
 73
0
 97
0
 75
0
 76
1
 98
0
  0
LINE
  5
6A
330
17
100
AcDbEntity
  8
0
100
AcDbLine
 10
6010712.3
 20
6568808.62
 30
0.0
 11
6010712.22
 21
6568808.57
 31
0.0
  0
LINE
  5
6B
330
17
100
AcDbEntity
  8
0
 62
4
100
AcDbLine
 10
6010712.3
 20
6568808.62
 30
0.0
 11
6010712.22
 21
6568808.62
 31
0.0
  0
LINE
  5
6C
330
17
100
AcDbEntity
  8
0
 62
2
100
AcDbLine
 10
6010712.3
 20
6568808.62
 30
0.0
 11
6010712.3
 21
6568808.57
 31
0.0
  0
HATCH
  5
6D
330
17
100
AcDbEntity
  8
0
 62
1
100
AcDbHatch
 10
0.0
 20
0.0
 30
0.0
210
0.0
220
0.0
230
1.0
  2
SOLID
 70
1
 71
0
 91
1
 92
1
 93
1
 72
3
 10
6010718.6
 20
6568810.77
 11
0.0
 21
0.005
 40
1
 50
0.0
 51
360.0
 73
0
 97
0
 75
0
 76
1
 98
0
  0
LINE
  5
6E
330
17
100
AcDbEntity
  8
0
100
AcDbLine
 10
6010718.55
 20
6568810.85
 30
0.0
 11
6010718.6
 21
6568810.77
 31
0.0
  0
LINE
  5
6F
330
17
100
AcDbEntity
  8
0
 62
4
100
AcDbLine
 10
6010718.55
 20
6568810.85
 30
0.0
 11
6010718.6
 21
6568810.85
 31
0.0
  0
LINE
  5
70
330
17
100
AcDbEntity
  8
0
 62
2
100
AcDbLine
 10
6010718.55
 20
6568810.85
 30
0.0
 11
6010718.55
 21
6568810.77
 31
0.0
  0
HATCH
  5
71
330
17
100
AcDbEntity
  8
0
 62
1
100
AcDbHatch
 10
0.0
 20
0.0
 30
0.0
210
0.0
220
0.0
230
1.0
  2
SOLID
 70
1
 71
0
 91
1
 92
1
 93
1
 72
3
 10
6010716.39
 20
6568810.74
 11
0.0
 21
0.005
 40
1
 50
0.0
 51
360.0
 73
0
 97
0
 75
0
 76
1
 98
0
  0
LINE
  5
72
330
17
100
AcDbEntity
  8
0
100
AcDbLine
 10
6010716.45
 20
6568810.81
 30
0.0
 11
6010716.39
 21
6568810.74
 31
0.0
  0
LINE
  5
73
330
17
100
AcDbEntity
  8
0
 62
4
100
AcDbLine
 10
6010716.45
 20
6568810.81
 30
0.0
 11
6010716.39
 21
6568810.81
 31
0.0
  0
LINE
  5
74
330
17
100
AcDbEntity
  8
0
 62
2
100
AcDbLine
 10
6010716.45
 20
6568810.81
 30
0.0
 11
6010716.45
 21
6568810.74
 31
0.0
  0
HATCH
  5
75
330
17
100
AcDbEntity
  8
0
 62
1
100
AcDbHatch
 10
0.0
 20
0.0
 30
0.0
210
0.0
220
0.0
230
1.0
  2
SOLID
 70
1
 71
0
 91
1
 92
1
 93
1
 72
3
 10
6010714.36
 20
6568810.72
 11
0.0
 21
0.005
 40
1
 50
0.0
 51
360.0
 73
0
 97
0
 75
0
 76
1
 98
0
  0
LINE
  5
76
330
17
100
AcDbEntity
  8
0
100
AcDbLine
 10
6010714.35
 20
6568810.77
 30
0.0
 11
6010714.36
 21
6568810.72
 31
0.0
  0
LINE
  5
77
330
17
100
AcDbEntity
  8
0
 62
4
100
AcDbLine
 10
6010714.35
 20
6568810.77
 30
0.0
 11
6010714.36
 21
6568810.77
 31
0.0
  0
LINE
  5
78
330
17
100
AcDbEntity
  8
0
 62
2
100
AcDbLine
 10
6010714.35
 20
6568810.77
 30
0.0
 11
6010714.35
 21
6568810.72
 31
0.0
  0
HATCH
  5
79
330
17
100
AcDbEntity
  8
0
 62
1
100
AcDbHatch
 10
0.0
 20
0.0
 30
0.0
210
0.0
220
0.0
230
1.0
  2
SOLID
 70
1
 71
0
 91
1
 92
1
 93
1
 72
3
 10
6010712.17
 20
6568810.73
 11
0.0
 21
0.005
 40
1
 50
0.0
 51
360.0
 73
0
 97
0
 75
0
 76
1
 98
0
  0
LINE
  5
7A
330
17
100
AcDbEntity
  8
0
100
AcDbLine
 10
6010712.25
 20
6568810.72
 30
0.0
 11
6010712.17
 21
6568810.73
 31
0.0
  0
LINE
  5
7B
330
17
100
AcDbEntity
  8
0
 62
4
100
AcDbLine
 10
6010712.25
 20
6568810.72
 30
0.0
 11
6010712.17
 21
6568810.72
 31
0.0
  0
LINE
  5
7C
330
17
100
AcDbEntity
  8
0
 62
2
100
AcDbLine
 10
6010712.25
 20
6568810.72
 30
0.0
 11
6010712.25
 21
6568810.73
 31
0.0
  0
HATCH
  5
7D
330
17
100
AcDbEntity
  8
0
 62
1
100
AcDbHatch
 10
0.0
 20
0.0
 30
0.0
210
0.0
220
0.0
230
1.0
  2
SOLID
 70
1
 71
0
 91
1
 92
1
 93
1
 72
3
 10
6010718.45
 20
6568813.02
 11
0.0
 21
0.005
 40
1
 50
0.0
 51
360.0
 73
0
 97
0
 75
0
 76
1
 98
0
  0
LINE
  5
7E
330
17
100
AcDbEntity
  8
0
100
AcDbLine
 10
6010718.51
 20
6568812.95
 30
0.0
 11
6010718.45
 21
6568813.02
 31
0.0
  0
LINE
  5
7F
330
17
100
AcDbEntity
  8
0
 62
4
100
AcDbLine
 10
6010718.51
 20
6568812.95
 30
0.0
 11
6010718.45
 21
6568812.95
 31
0.0
  0
LINE
  5
80
330
17
100
AcDbEntity
  8
0
 62
2
100
AcDbLine
 10
6010718.51
 20
6568812.95
 30
0.0
 11
6010718.51
 21
6568813.02
 31
0.0
  0
HATCH
  5
81
330
17
100
AcDbEntity
  8
0
 62
1
100
AcDbHatch
 10
0.0
 20
0.0
 30
0.0
210
0.0
220
0.0
230
1.0
  2
SOLID
 70
1
 71
0
 91
1
 92
1
 93
1
 72
3
 10
6010716.34
 20
6568812.83
 11
0.0
 21
0.005
 40
1
 50
0.0
 51
360.0
 73
0
 97
0
 75
0
 76
1
 98
0
  0
LINE
  5
82
330
17
100
AcDbEntity
  8
0
100
AcDbLine
 10
6010716.41
 20
6568812.91
 30
0.0
 11
6010716.34
 21
6568812.83
 31
0.0
  0
LINE
  5
83
330
17
100
AcDbEntity
  8
0
 62
4
100
AcDbLine
 10
6010716.41
 20
6568812.91
 30
0.0
 11
6010716.34
 21
6568812.91
 31
0.0
  0
LINE
  5
84
330
17
100
AcDbEntity
  8
0
 62
2
100
AcDbLine
 10
6010716.41
 20
6568812.91
 30
0.0
 11
6010716.41
 21
6568812.83
 31
0.0
  0
HATCH
  5
85
330
17
100
AcDbEntity
  8
0
 62
1
100
AcDbHatch
 10
0.0
 20
0.0
 30
0.0
210
0.0
220
0.0
230
1.0
  2
SOLID
 70
1
 71
0
 91
1
 92
1
 93
1
 72
3
 10
6010714.41
 20
6568812.89
 11
0.0
 21
0.005
 40
1
 50
0.0
 51
360.0
 73
0
 97
0
 75
0
 76
1
 98
0
  0
LINE
  5
86
330
17
100
AcDbEntity
  8
0
100
AcDbLine
 10
6010714.31
 20
6568812.87
 30
0.0
 11
6010714.41
 21
6568812.89
 31
0.0
  0
LINE
  5
87
330
17
100
AcDbEntity
  8
0
 62
4
100
AcDbLine
 10
6010714.31
 20
6568812.87
 30
0.0
 11
6010714.41
 21
6568812.87
 31
0.0
  0
LINE
  5
88
330
17
100
AcDbEntity
  8
0
 62
2
100
AcDbLine
 10
6010714.31
 20
6568812.87
 30
0.0
 11
6010714.31
 21
6568812.89
 31
0.0
  0
HATCH
  5
89
330
17
100
AcDbEntity
  8
0
 62
1
100
AcDbHatch
 10
0.0
 20
0.0
 30
0.0
210
0.0
220
0.0
230
1.0
  2
SOLID
 70
1
 71
0
 91
1
 92
1
 93
1
 72
3
 10
6010712.18
 20
6568812.73
 11
0.0
 21
0.005
 40
1
 50
0.0
 51
360.0
 73
0
 97
0
 75
0
 76
1
 98
0
  0
LINE
  5
8A
330
17
100
AcDbEntity
  8
0
100
AcDbLine
 10
6010712.21
 20
6568812.82
 30
0.0
 11
6010712.18
 21
6568812.73
 31
0.0
  0
LINE
  5
8B
330
17
100
AcDbEntity
  8
0
 62
4
100
AcDbLine
 10
6010712.21
 20
6568812.82
 30
0.0
 11
6010712.18
 21
6568812.82
 31
0.0
  0
LINE
  5
8C
330
17
100
AcDbEntity
  8
0
 62
2
100
AcDbLine
 10
6010712.21
 20
6568812.82
 30
0.0
 11
6010712.21
 21
6568812.73
 31
0.0
  0
HATCH
  5
8D
330
17
100
AcDbEntity
  8
0
 62
1
100
AcDbHatch
 10
0.0
 20
0.0
 30
0.0
210
0.0
220
0.0
230
1.0
  2
SOLID
 70
1
 71
0
 91
1
 92
1
 93
1
 72
3
 10
6010718.41
 20
6568814.98
 11
0.0
 21
0.005
 40
1
 50
0.0
 51
360.0
 73
0
 97
0
 75
0
 76
1
 98
0
  0
LINE
  5
8E
330
17
100
AcDbEntity
  8
0
100
AcDbLine
 10
6010718.47
 20
6568815.05
 30
0.0
 11
6010718.41
 21
6568814.98
 31
0.0
  0
LINE
  5
8F
330
17
100
AcDbEntity
  8
0
 62
4
100
AcDbLine
 10
6010718.47
 20
6568815.05
 30
0.0
 11
6010718.41
 21
6568815.05
 31
0.0
  0
LINE
  5
90
330
17
100
AcDbEntity
  8
0
 62
2
100
AcDbLine
 10
6010718.47
 20
6568815.05
 30
0.0
 11
6010718.47
 21
6568814.98
 31
0.0
  0
HATCH
  5
91
330
17
100
AcDbEntity
  8
0
 62
1
100
AcDbHatch
 10
0.0
 20
0.0
 30
0.0
210
0.0
220
0.0
230
1.0
  2
SOLID
 70
1
 71
0
 91
1
 92
1
 93
1
 72
3
 10
6010716.29
 20
6568814.97
 11
0.0
 21
0.005
 40
1
 50
0.0
 51
360.0
 73
0
 97
0
 75
0
 76
1
 98
0
  0
LINE
  5
92
330
17
100
AcDbEntity
  8
0
100
AcDbLine
 10
6010716.37
 20
6568815.01
 30
0.0
 11
6010716.29
 21
6568814.97
 31
0.0
  0
LINE
  5
93
330
17
100
AcDbEntity
  8
0
 62
4
100
AcDbLine
 10
6010716.37
 20
6568815.01
 30
0.0
 11
6010716.29
 21
6568815.01
 31
0.0
  0
LINE
  5
94
330
17
100
AcDbEntity
  8
0
 62
2
100
AcDbLine
 10
6010716.37
 20
6568815.01
 30
0.0
 11
6010716.37
 21
6568814.97
 31
0.0
  0
HATCH
  5
95
330
17
100
AcDbEntity
  8
0
 62
1
100
AcDbHatch
 10
0.0
 20
0.0
 30
0.0
210
0.0
220
0.0
230
1.0
  2
SOLID
 70
1
 71
0
 91
1
 92
1
 93
1
 72
3
 10
6010714.36
 20
6568814.95
 11
0.0
 21
0.005
 40
1
 50
0.0
 51
360.0
 73
0
 97
0
 75
0
 76
1
 98
0
  0
LINE
  5
96
330
17
100
AcDbEntity
  8
0
100
AcDbLine
 10
6010714.27
 20
6568814.96
 30
0.0
 11
6010714.36
 21
6568814.95
 31
0.0
  0
LINE
  5
97
330
17
100
AcDbEntity
  8
0
 62
4
100
AcDbLine
 10
6010714.27
 20
6568814.96
 30
0.0
 11
6010714.36
 21
6568814.96
 31
0.0
  0
LINE
  5
98
330
17
100
AcDbEntity
  8
0
 62
2
100
AcDbLine
 10
6010714.27
 20
6568814.96
 30
0.0
 11
6010714.27
 21
6568814.95
 31
0.0
  0
HATCH
  5
99
330
17
100
AcDbEntity
  8
0
 62
1
100
AcDbHatch
 10
0.0
 20
0.0
 30
0.0
210
0.0
220
0.0
230
1.0
  2
SOLID
 70
1
 71
0
 91
1
 92
1
 93
1
 72
3
 10
6010712.08
 20
6568814.92
 11
0.0
 21
0.005
 40
1
 50
0.0
 51
360.0
 73
0
 97
0
 75
0
 76
1
 98
0
  0
LINE
  5
9A
330
17
100
AcDbEntity
  8
0
100
AcDbLine
 10
6010712.17
 20
6568814.92
 30
0.0
 11
6010712.08
 21
6568814.92
 31
0.0
  0
LINE
  5
9B
330
17
100
AcDbEntity
  8
0
 62
4
100
AcDbLine
 10
6010712.17
 20
6568814.92
 30
0.0
 11
6010712.08
 21
6568814.92
 31
0.0
  0
LINE
  5
9C
330
17
100
AcDbEntity
  8
0
 62
2
100
AcDbLine
 10
6010712.17
 20
6568814.92
 30
0.0
 11
6010712.17
 21
6568814.92
 31
0.0
  0
HATCH
  5
9D
330
17
100
AcDbEntity
  8
0
 62
1
100
AcDbHatch
 10
0.0
 20
0.0
 30
0.0
210
0.0
220
0.0
230
1.0
  2
SOLID
 70
1
 71
0
 91
1
 92
1
 93
1
 72
3
 10
6010718.44
 20
6568817.06
 11
0.0
 21
0.005
 40
1
 50
0.0
 51
360.0
 73
0
 97
0
 75
0
 76
1
 98
0
  0
LINE
  5
9E
330
17
100
AcDbEntity
  8
0
100
AcDbLine
 10
6010718.43
 20
6568817.15
 30
0.0
 11
6010718.44
 21
6568817.06
 31
0.0
  0
LINE
  5
9F
330
17
100
AcDbEntity
  8
0
 62
4
100
AcDbLine
 10
6010718.43
 20
6568817.15
 30
0.0
 11
6010718.44
 21
6568817.15
 31
0.0
  0
LINE
  5
A0
330
17
100
AcDbEntity
  8
0
 62
2
100
AcDbLine
 10
6010718.43
 20
6568817.15
 30
0.0
 11
6010718.43
 21
6568817.06
 31
0.0
  0
HATCH
  5
A1
330
17
100
AcDbEntity
  8
0
 62
1
100
AcDbHatch
 10
0.0
 20
0.0
 30
0.0
210
0.0
220
0.0
230
1.0
  2
SOLID
 70
1
 71
0
 91
1
 92
1
 93
1
 72
3
 10
6010716.24
 20
6568817.07
 11
0.0
 21
0.005
 40
1
 50
0.0
 51
360.0
 73
0
 97
0
 75
0
 76
1
 98
0
  0
LINE
  5
A2
330
17
100
AcDbEntity
  8
0
100
AcDbLine
 10
6010716.33
 20
6568817.11
 30
0.0
 11
6010716.24
 21
6568817.07
 31
0.0
  0
LINE
  5
A3
330
17
100
AcDbEntity
  8
0
 62
4
100
AcDbLine
 10
6010716.33
 20
6568817.11
 30
0.0
 11
6010716.24
 21
6568817.11
 31
0.0
  0
LINE
  5
A4
330
17
100
AcDbEntity
  8
0
 62
2
100
AcDbLine
 10
6010716.33
 20
6568817.11
 30
0.0
 11
6010716.33
 21
6568817.07
 31
0.0
  0
HATCH
  5
A5
330
17
100
AcDbEntity
  8
0
 62
1
100
AcDbHatch
 10
0.0
 20
0.0
 30
0.0
210
0.0
220
0.0
230
1.0
  2
SOLID
 70
1
 71
0
 91
1
 92
1
 93
1
 72
3
 10
6010714.32
 20
6568817.09
 11
0.0
 21
0.005
 40
1
 50
0.0
 51
360.0
 73
0
 97
0
 75
0
 76
1
 98
0
  0
LINE
  5
A6
330
17
100
AcDbEntity
  8
0
100
AcDbLine
 10
6010714.23
 20
6568817.06
 30
0.0
 11
6010714.32
 21
6568817.09
 31
0.0
  0
LINE
  5
A7
330
17
100
AcDbEntity
  8
0
 62
4
100
AcDbLine
 10
6010714.23
 20
6568817.06
 30
0.0
 11
6010714.32
 21
6568817.06
 31
0.0
  0
LINE
  5
A8
330
17
100
AcDbEntity
  8
0
 62
2
100
AcDbLine
 10
6010714.23
 20
6568817.06
 30
0.0
 11
6010714.23
 21
6568817.09
 31
0.0
  0
HATCH
  5
A9
330
17
100
AcDbEntity
  8
0
 62
1
100
AcDbHatch
 10
0.0
 20
0.0
 30
0.0
210
0.0
220
0.0
230
1.0
  2
SOLID
 70
1
 71
0
 91
1
 92
1
 93
1
 72
3
 10
6010712.12
 20
6568816.98
 11
0.0
 21
0.005
 40
1
 50
0.0
 51
360.0
 73
0
 97
0
 75
0
 76
1
 98
0
  0
LINE
  5
AA
330
17
100
AcDbEntity
  8
0
100
AcDbLine
 10
6010712.13
 20
6568817.02
 30
0.0
 11
6010712.12
 21
6568816.98
 31
0.0
  0
LINE
  5
AB
330
17
100
AcDbEntity
  8
0
 62
4
100
AcDbLine
 10
6010712.13
 20
6568817.02
 30
0.0
 11
6010712.12
 21
6568817.02
 31
0.0
  0
LINE
  5
AC
330
17
100
AcDbEntity
  8
0
 62
2
100
AcDbLine
 10
6010712.13
 20
6568817.02
 30
0.0
 11
6010712.13
 21
6568816.98
 31
0.0
  0
HATCH
  5
AD
330
17
100
AcDbEntity
  8
0
 62
1
100
AcDbHatch
 10
0.0
 20
0.0
 30
0.0
210
0.0
220
0.0
230
1.0
  2
SOLID
 70
1
 71
0
 91
1
 92
1
 93
1
 72
3
 10
6010718.21
 20
6568819.38
 11
0.0
 21
0.005
 40
1
 50
0.0
 51
360.0
 73
0
 97
0
 75
0
 76
1
 98
0
  0
LINE
  5
AE
330
17
100
AcDbEntity
  8
0
100
AcDbLine
 10
6010718.28
 20
6568819.45
 30
0.0
 11
6010718.21
 21
6568819.38
 31
0.0
  0
LINE
  5
AF
330
17
100
AcDbEntity
  8
0
 62
4
100
AcDbLine
 10
6010718.28
 20
6568819.45
 30
0.0
 11
6010718.21
 21
6568819.45
 31
0.0
  0
LINE
  5
B0
330
17
100
AcDbEntity
  8
0
 62
2
100
AcDbLine
 10
6010718.28
 20
6568819.45
 30
0.0
 11
6010718.28
 21
6568819.38
 31
0.0
  0
HATCH
  5
B1
330
17
100
AcDbEntity
  8
0
 62
1
100
AcDbHatch
 10
0.0
 20
0.0
 30
0.0
210
0.0
220
0.0
230
1.0
  2
SOLID
 70
1
 71
0
 91
1
 92
1
 93
1
 72
3
 10
6010716.21
 20
6568819.4
 11
0.0
 21
0.005
 40
1
 50
0.0
 51
360.0
 73
0
 97
0
 75
0
 76
1
 98
0
  0
LINE
  5
B2
330
17
100
AcDbEntity
  8
0
100
AcDbLine
 10
6010716.28
 20
6568819.47
 30
0.0
 11
6010716.21
 21
6568819.4
 31
0.0
  0
LINE
  5
B3
330
17
100
AcDbEntity
  8
0
 62
4
100
AcDbLine
 10
6010716.28
 20
6568819.47
 30
0.0
 11
6010716.21
 21
6568819.47
 31
0.0
  0
LINE
  5
B4
330
17
100
AcDbEntity
  8
0
 62
2
100
AcDbLine
 10
6010716.28
 20
6568819.47
 30
0.0
 11
6010716.28
 21
6568819.4
 31
0.0
  0
HATCH
  5
B5
330
17
100
AcDbEntity
  8
0
 62
1
100
AcDbHatch
 10
0.0
 20
0.0
 30
0.0
210
0.0
220
0.0
230
1.0
  2
SOLID
 70
1
 71
0
 91
1
 92
1
 93
1
 72
3
 10
6010714.21
 20
6568819.43
 11
0.0
 21
0.005
 40
1
 50
0.0
 51
360.0
 73
0
 97
0
 75
0
 76
1
 98
0
  0
LINE
  5
B6
330
17
100
AcDbEntity
  8
0
100
AcDbLine
 10
6010714.28
 20
6568819.5
 30
0.0
 11
6010714.21
 21
6568819.43
 31
0.0
  0
LINE
  5
B7
330
17
100
AcDbEntity
  8
0
 62
4
100
AcDbLine
 10
6010714.28
 20
6568819.5
 30
0.0
 11
6010714.21
 21
6568819.5
 31
0.0
  0
LINE
  5
B8
330
17
100
AcDbEntity
  8
0
 62
2
100
AcDbLine
 10
6010714.28
 20
6568819.5
 30
0.0
 11
6010714.28
 21
6568819.43
 31
0.0
  0
HATCH
  5
B9
330
17
100
AcDbEntity
  8
0
 62
1
100
AcDbHatch
 10
0.0
 20
0.0
 30
0.0
210
0.0
220
0.0
230
1.0
  2
SOLID
 70
1
 71
0
 91
1
 92
1
 93
1
 72
3
 10
6010712.22
 20
6568819.45
 11
0.0
 21
0.005
 40
1
 50
0.0
 51
360.0
 73
0
 97
0
 75
0
 76
1
 98
0
  0
LINE
  5
BA
330
17
100
AcDbEntity
  8
0
100
AcDbLine
 10
6010712.28
 20
6568819.52
 30
0.0
 11
6010712.22
 21
6568819.45
 31
0.0
  0
LINE
  5
BB
330
17
100
AcDbEntity
  8
0
 62
4
100
AcDbLine
 10
6010712.28
 20
6568819.52
 30
0.0
 11
6010712.22
 21
6568819.52
 31
0.0
  0
LINE
  5
BC
330
17
100
AcDbEntity
  8
0
 62
2
100
AcDbLine
 10
6010712.28
 20
6568819.52
 30
0.0
 11
6010712.28
 21
6568819.45
 31
0.0
  0
HATCH
  5
BD
330
17
100
AcDbEntity
  8
0
 62
1
100
AcDbHatch
 10
0.0
 20
0.0
 30
0.0
210
0.0
220
0.0
230
1.0
  2
SOLID
 70
1
 71
0
 91
1
 92
1
 93
1
 72
3
 10
6010718.33
 20
6568821.77
 11
0.0
 21
0.005
 40
1
 50
0.0
 51
360.0
 73
0
 97
0
 75
0
 76
1
 98
0
  0
LINE
  5
BE
330
17
100
AcDbEntity
  8
0
100
AcDbLine
 10
6010718.31
 20
6568821.83
 30
0.0
 11
6010718.33
 21
6568821.77
 31
0.0
  0
LINE
  5
BF
330
17
100
AcDbEntity
  8
0
 62
4
100
AcDbLine
 10
6010718.31
 20
6568821.83
 30
0.0
 11
6010718.33
 21
6568821.83
 31
0.0
  0
LINE
  5
C0
330
17
100
AcDbEntity
  8
0
 62
2
100
AcDbLine
 10
6010718.31
 20
6568821.83
 30
0.0
 11
6010718.31
 21
6568821.77
 31
0.0
  0
HATCH
  5
C1
330
17
100
AcDbEntity
  8
0
 62
1
100
AcDbHatch
 10
0.0
 20
0.0
 30
0.0
210
0.0
220
0.0
230
1.0
  2
SOLID
 70
1
 71
0
 91
1
 92
1
 93
1
 72
3
 10
6010716.22
 20
6568821.85
 11
0.0
 21
0.005
 40
1
 50
0.0
 51
360.0
 73
0
 97
0
 75
0
 76
1
 98
0
  0
LINE
  5
C2
330
17
100
AcDbEntity
  8
0
100
AcDbLine
 10
6010716.31
 20
6568821.87
 30
0.0
 11
6010716.22
 21
6568821.85
 31
0.0
  0
LINE
  5
C3
330
17
100
AcDbEntity
  8
0
 62
4
100
AcDbLine
 10
6010716.31
 20
6568821.87
 30
0.0
 11
6010716.22
 21
6568821.87
 31
0.0
  0
LINE
  5
C4
330
17
100
AcDbEntity
  8
0
 62
2
100
AcDbLine
 10
6010716.31
 20
6568821.87
 30
0.0
 11
6010716.31
 21
6568821.85
 31
0.0
  0
HATCH
  5
C5
330
17
100
AcDbEntity
  8
0
 62
1
100
AcDbHatch
 10
0.0
 20
0.0
 30
0.0
210
0.0
220
0.0
230
1.0
  2
SOLID
 70
1
 71
0
 91
1
 92
1
 93
1
 72
3
 10
6010714.23
 20
6568821.86
 11
0.0
 21
0.005
 40
1
 50
0.0
 51
360.0
 73
0
 97
0
 75
0
 76
1
 98
0
  0
LINE
  5
C6
330
17
100
AcDbEntity
  8
0
100
AcDbLine
 10
6010714.31
 20
6568821.9
 30
0.0
 11
6010714.23
 21
6568821.86
 31
0.0
  0
LINE
  5
C7
330
17
100
AcDbEntity
  8
0
 62
4
100
AcDbLine
 10
6010714.31
 20
6568821.9
 30
0.0
 11
6010714.23
 21
6568821.9
 31
0.0
  0
LINE
  5
C8
330
17
100
AcDbEntity
  8
0
 62
2
100
AcDbLine
 10
6010714.31
 20
6568821.9
 30
0.0
 11
6010714.31
 21
6568821.86
 31
0.0
  0
HATCH
  5
C9
330
17
100
AcDbEntity
  8
0
 62
1
100
AcDbHatch
 10
0.0
 20
0.0
 30
0.0
210
0.0
220
0.0
230
1.0
  2
SOLID
 70
1
 71
0
 91
1
 92
1
 93
1
 72
3
 10
6010712.35
 20
6568821.9
 11
0.0
 21
0.005
 40
1
 50
0.0
 51
360.0
 73
0
 97
0
 75
0
 76
1
 98
0
  0
LINE
  5
CA
330
17
100
AcDbEntity
  8
0
100
AcDbLine
 10
6010712.31
 20
6568821.94
 30
0.0
 11
6010712.35
 21
6568821.9
 31
0.0
  0
LINE
  5
CB
330
17
100
AcDbEntity
  8
0
 62
4
100
AcDbLine
 10
6010712.31
 20
6568821.94
 30
0.0
 11
6010712.35
 21
6568821.94
 31
0.0
  0
LINE
  5
CC
330
17
100
AcDbEntity
  8
0
 62
2
100
AcDbLine
 10
6010712.31
 20
6568821.94
 30
0.0
 11
6010712.31
 21
6568821.9
 31
0.0
  0
HATCH
  5
CD
330
17
100
AcDbEntity
  8
0
 62
1
100
AcDbHatch
 10
0.0
 20
0.0
 30
0.0
210
0.0
220
0.0
230
1.0
  2
SOLID
 70
1
 71
0
 91
1
 92
1
 93
1
 72
3
 10
6010718.32
 20
6568824.22
 11
0.0
 21
0.005
 40
1
 50
0.0
 51
360.0
 73
0
 97
0
 75
0
 76
1
 98
0
  0
LINE
  5
CE
330
17
100
AcDbEntity
  8
0
100
AcDbLine
 10
6010718.36
 20
6568824.21
 30
0.0
 11
6010718.32
 21
6568824.22
 31
0.0
  0
LINE
  5
CF
330
17
100
AcDbEntity
  8
0
 62
4
100
AcDbLine
 10
6010718.36
 20
6568824.21
 30
0.0
 11
6010718.32
 21
6568824.21
 31
0.0
  0
LINE
  5
D0
330
17
100
AcDbEntity
  8
0
 62
2
100
AcDbLine
 10
6010718.36
 20
6568824.21
 30
0.0
 11
6010718.36
 21
6568824.22
 31
0.0
  0
HATCH
  5
D1
330
17
100
AcDbEntity
  8
0
 62
1
100
AcDbHatch
 10
0.0
 20
0.0
 30
0.0
210
0.0
220
0.0
230
1.0
  2
SOLID
 70
1
 71
0
 91
1
 92
1
 93
1
 72
3
 10
6010716.27
 20
6568824.25
 11
0.0
 21
0.005
 40
1
 50
0.0
 51
360.0
 73
0
 97
0
 75
0
 76
1
 98
0
  0
LINE
  5
D2
330
17
100
AcDbEntity
  8
0
100
AcDbLine
 10
6010716.36
 20
6568824.26
 30
0.0
 11
6010716.27
 21
6568824.25
 31
0.0
  0
LINE
  5
D3
330
17
100
AcDbEntity
  8
0
 62
4
100
AcDbLine
 10
6010716.36
 20
6568824.26
 30
0.0
 11
6010716.27
 21
6568824.26
 31
0.0
  0
LINE
  5
D4
330
17
100
AcDbEntity
  8
0
 62
2
100
AcDbLine
 10
6010716.36
 20
6568824.26
 30
0.0
 11
6010716.36
 21
6568824.25
 31
0.0
  0
HATCH
  5
D5
330
17
100
AcDbEntity
  8
0
 62
1
100
AcDbHatch
 10
0.0
 20
0.0
 30
0.0
210
0.0
220
0.0
230
1.0
  2
SOLID
 70
1
 71
0
 91
1
 92
1
 93
1
 72
3
 10
6010714.31
 20
6568824.33
 11
0.0
 21
0.005
 40
1
 50
0.0
 51
360.0
 73
0
 97
0
 75
0
 76
1
 98
0
  0
LINE
  5
D6
330
17
100
AcDbEntity
  8
0
100
AcDbLine
 10
6010714.36
 20
6568824.31
 30
0.0
 11
6010714.31
 21
6568824.33
 31
0.0
  0
LINE
  5
D7
330
17
100
AcDbEntity
  8
0
 62
4
100
AcDbLine
 10
6010714.36
 20
6568824.31
 30
0.0
 11
6010714.31
 21
6568824.31
 31
0.0
  0
LINE
  5
D8
330
17
100
AcDbEntity
  8
0
 62
2
100
AcDbLine
 10
6010714.36
 20
6568824.31
 30
0.0
 11
6010714.36
 21
6568824.33
 31
0.0
  0
HATCH
  5
D9
330
17
100
AcDbEntity
  8
0
 62
1
100
AcDbHatch
 10
0.0
 20
0.0
 30
0.0
210
0.0
220
0.0
230
1.0
  2
SOLID
 70
1
 71
0
 91
1
 92
1
 93
1
 72
3
 10
6010712.31
 20
6568824.35
 11
0.0
 21
0.005
 40
1
 50
0.0
 51
360.0
 73
0
 97
0
 75
0
 76
1
 98
0
  0
LINE
  5
DA
330
17
100
AcDbEntity
  8
0
100
AcDbLine
 10
6010712.36
 20
6568824.35
 30
0.0
 11
6010712.31
 21
6568824.35
 31
0.0
  0
LINE
  5
DB
330
17
100
AcDbEntity
  8
0
 62
4
100
AcDbLine
 10
6010712.36
 20
6568824.35
 30
0.0
 11
6010712.31
 21
6568824.35
 31
0.0
  0
LINE
  5
DC
330
17
100
AcDbEntity
  8
0
 62
2
100
AcDbLine
 10
6010712.36
 20
6568824.35
 30
0.0
 11
6010712.36
 21
6568824.35
 31
0.0
  0
HATCH
  5
DD
330
17
100
AcDbEntity
  8
0
 62
1
100
AcDbHatch
 10
0.0
 20
0.0
 30
0.0
210
0.0
220
0.0
230
1.0
  2
SOLID
 70
1
 71
0
 91
1
 92
1
 93
1
 72
3
 10
6010718.46
 20
6568826.53
 11
0.0
 21
0.005
 40
1
 50
0.0
 51
360.0
 73
0
 97
0
 75
0
 76
1
 98
0
  0
LINE
  5
DE
330
17
100
AcDbEntity
  8
0
100
AcDbLine
 10
6010718.43
 20
6568826.6
 30
0.0
 11
6010718.46
 21
6568826.53
 31
0.0
  0
LINE
  5
DF
330
17
100
AcDbEntity
  8
0
 62
4
100
AcDbLine
 10
6010718.43
 20
6568826.6
 30
0.0
 11
6010718.46
 21
6568826.6
 31
0.0
  0
LINE
  5
E0
330
17
100
AcDbEntity
  8
0
 62
2
100
AcDbLine
 10
6010718.43
 20
6568826.6
 30
0.0
 11
6010718.43
 21
6568826.53
 31
0.0
  0
HATCH
  5
E1
330
17
100
AcDbEntity
  8
0
 62
1
100
AcDbHatch
 10
0.0
 20
0.0
 30
0.0
210
0.0
220
0.0
230
1.0
  2
SOLID
 70
1
 71
0
 91
1
 92
1
 93
1
 72
3
 10
6010716.39
 20
6568826.65
 11
0.0
 21
0.005
 40
1
 50
0.0
 51
360.0
 73
0
 97
0
 75
0
 76
1
 98
0
  0
LINE
  5
E2
330
17
100
AcDbEntity
  8
0
100
AcDbLine
 10
6010716.43
 20
6568826.65
 30
0.0
 11
6010716.39
 21
6568826.65
 31
0.0
  0
LINE
  5
E3
330
17
100
AcDbEntity
  8
0
 62
4
100
AcDbLine
 10
6010716.43
 20
6568826.65
 30
0.0
 11
6010716.39
 21
6568826.65
 31
0.0
  0
LINE
  5
E4
330
17
100
AcDbEntity
  8
0
 62
2
100
AcDbLine
 10
6010716.43
 20
6568826.65
 30
0.0
 11
6010716.43
 21
6568826.65
 31
0.0
  0
HATCH
  5
E5
330
17
100
AcDbEntity
  8
0
 62
1
100
AcDbHatch
 10
0.0
 20
0.0
 30
0.0
210
0.0
220
0.0
230
1.0
  2
SOLID
 70
1
 71
0
 91
1
 92
1
 93
1
 72
3
 10
6010714.37
 20
6568826.67
 11
0.0
 21
0.005
 40
1
 50
0.0
 51
360.0
 73
0
 97
0
 75
0
 76
1
 98
0
  0
LINE
  5
E6
330
17
100
AcDbEntity
  8
0
100
AcDbLine
 10
6010714.43
 20
6568826.71
 30
0.0
 11
6010714.37
 21
6568826.67
 31
0.0
  0
LINE
  5
E7
330
17
100
AcDbEntity
  8
0
 62
4
100
AcDbLine
 10
6010714.43
 20
6568826.71
 30
0.0
 11
6010714.37
 21
6568826.71
 31
0.0
  0
LINE
  5
E8
330
17
100
AcDbEntity
  8
0
 62
2
100
AcDbLine
 10
6010714.43
 20
6568826.71
 30
0.0
 11
6010714.43
 21
6568826.67
 31
0.0
  0
HATCH
  5
E9
330
17
100
AcDbEntity
  8
0
 62
1
100
AcDbHatch
 10
0.0
 20
0.0
 30
0.0
210
0.0
220
0.0
230
1.0
  2
SOLID
 70
1
 71
0
 91
1
 92
1
 93
1
 72
3
 10
6010712.42
 20
6568826.83
 11
0.0
 21
0.005
 40
1
 50
0.0
 51
360.0
 73
0
 97
0
 75
0
 76
1
 98
0
  0
LINE
  5
EA
330
17
100
AcDbEntity
  8
0
100
AcDbLine
 10
6010712.43
 20
6568826.77
 30
0.0
 11
6010712.42
 21
6568826.83
 31
0.0
  0
LINE
  5
EB
330
17
100
AcDbEntity
  8
0
 62
4
100
AcDbLine
 10
6010712.43
 20
6568826.77
 30
0.0
 11
6010712.42
 21
6568826.77
 31
0.0
  0
LINE
  5
EC
330
17
100
AcDbEntity
  8
0
 62
2
100
AcDbLine
 10
6010712.43
 20
6568826.77
 30
0.0
 11
6010712.43
 21
6568826.83
 31
0.0
  0
HATCH
  5
ED
330
17
100
AcDbEntity
  8
0
 62
1
100
AcDbHatch
 10
0.0
 20
0.0
 30
0.0
210
0.0
220
0.0
230
1.0
  2
SOLID
 70
1
 71
0
 91
1
 92
1
 93
1
 72
3
 10
6010718.56
 20
6568828.92
 11
0.0
 21
0.005
 40
1
 50
0.0
 51
360.0
 73
0
 97
0
 75
0
 76
1
 98
0
  0
LINE
  5
EE
330
17
100
AcDbEntity
  8
0
100
AcDbLine
 10
6010718.5
 20
6568828.98
 30
0.0
 11
6010718.56
 21
6568828.92
 31
0.0
  0
LINE
  5
EF
330
17
100
AcDbEntity
  8
0
 62
4
100
AcDbLine
 10
6010718.5
 20
6568828.98
 30
0.0
 11
6010718.56
 21
6568828.98
 31
0.0
  0
LINE
  5
F0
330
17
100
AcDbEntity
  8
0
 62
2
100
AcDbLine
 10
6010718.5
 20
6568828.98
 30
0.0
 11
6010718.5
 21
6568828.92
 31
0.0
  0
HATCH
  5
F1
330
17
100
AcDbEntity
  8
0
 62
1
100
AcDbHatch
 10
0.0
 20
0.0
 30
0.0
210
0.0
220
0.0
230
1.0
  2
SOLID
 70
1
 71
0
 91
1
 92
1
 93
1
 72
3
 10
6010716.59
 20
6568829.05
 11
0.0
 21
0.005
 40
1
 50
0.0
 51
360.0
 73
0
 97
0
 75
0
 76
1
 98
0
  0
LINE
  5
F2
330
17
100
AcDbEntity
  8
0
100
AcDbLine
 10
6010716.5
 20
6568829.05
 30
0.0
 11
6010716.59
 21
6568829.05
 31
0.0
  0
LINE
  5
F3
330
17
100
AcDbEntity
  8
0
 62
4
100
AcDbLine
 10
6010716.5
 20
6568829.05
 30
0.0
 11
6010716.59
 21
6568829.05
 31
0.0
  0
LINE
  5
F4
330
17
100
AcDbEntity
  8
0
 62
2
100
AcDbLine
 10
6010716.5
 20
6568829.05
 30
0.0
 11
6010716.5
 21
6568829.05
 31
0.0
  0
HATCH
  5
F5
330
17
100
AcDbEntity
  8
0
 62
1
100
AcDbHatch
 10
0.0
 20
0.0
 30
0.0
210
0.0
220
0.0
230
1.0
  2
SOLID
 70
1
 71
0
 91
1
 92
1
 93
1
 72
3
 10
6010714.44
 20
6568829.17
 11
0.0
 21
0.005
 40
1
 50
0.0
 51
360.0
 73
0
 97
0
 75
0
 76
1
 98
0
  0
LINE
  5
F6
330
17
100
AcDbEntity
  8
0
100
AcDbLine
 10
6010714.5
 20
6568829.11
 30
0.0
 11
6010714.44
 21
6568829.17
 31
0.0
  0
LINE
  5
F7
330
17
100
AcDbEntity
  8
0
 62
4
100
AcDbLine
 10
6010714.5
 20
6568829.11
 30
0.0
 11
6010714.44
 21
6568829.11
 31
0.0
  0
LINE
  5
F8
330
17
100
AcDbEntity
  8
0
 62
2
100
AcDbLine
 10
6010714.5
 20
6568829.11
 30
0.0
 11
6010714.5
 21
6568829.17
 31
0.0
  0
HATCH
  5
F9
330
17
100
AcDbEntity
  8
0
 62
1
100
AcDbHatch
 10
0.0
 20
0.0
 30
0.0
210
0.0
220
0.0
230
1.0
  2
SOLID
 70
1
 71
0
 91
1
 92
1
 93
1
 72
3
 10
6010712.47
 20
6568829.26
 11
0.0
 21
0.005
 40
1
 50
0.0
 51
360.0
 73
0
 97
0
 75
0
 76
1
 98
0
  0
LINE
  5
FA
330
17
100
AcDbEntity
  8
0
100
AcDbLine
 10
6010712.5
 20
6568829.18
 30
0.0
 11
6010712.47
 21
6568829.26
 31
0.0
  0
LINE
  5
FB
330
17
100
AcDbEntity
  8
0
 62
4
100
AcDbLine
 10
6010712.5
 20
6568829.18
 30
0.0
 11
6010712.47
 21
6568829.18
 31
0.0
  0
LINE
  5
FC
330
17
100
AcDbEntity
  8
0
 62
2
100
AcDbLine
 10
6010712.5
 20
6568829.18
 30
0.0
 11
6010712.5
 21
6568829.26
 31
0.0
  0
HATCH
  5
FD
330
17
100
AcDbEntity
  8
0
 62
1
100
AcDbHatch
 10
0.0
 20
0.0
 30
0.0
210
0.0
220
0.0
230
1.0
  2
SOLID
 70
1
 71
0
 91
1
 92
1
 93
1
 72
3
 10
6010718.52
 20
6568831.31
 11
0.0
 21
0.005
 40
1
 50
0.0
 51
360.0
 73
0
 97
0
 75
0
 76
1
 98
0
  0
LINE
  5
FE
330
17
100
AcDbEntity
  8
0
100
AcDbLine
 10
6010718.58
 20
6568831.37
 30
0.0
 11
6010718.52
 21
6568831.31
 31
0.0
  0
LINE
  5
FF
330
17
100
AcDbEntity
  8
0
 62
4
100
AcDbLine
 10
6010718.58
 20
6568831.37
 30
0.0
 11
6010718.52
 21
6568831.37
 31
0.0
  0
LINE
  5
100
330
17
100
AcDbEntity
  8
0
 62
2
100
AcDbLine
 10
6010718.58
 20
6568831.37
 30
0.0
 11
6010718.58
 21
6568831.31
 31
0.0
  0
HATCH
  5
101
330
17
100
AcDbEntity
  8
0
 62
1
100
AcDbHatch
 10
0.0
 20
0.0
 30
0.0
210
0.0
220
0.0
230
1.0
  2
SOLID
 70
1
 71
0
 91
1
 92
1
 93
1
 72
3
 10
6010716.65
 20
6568831.39
 11
0.0
 21
0.005
 40
1
 50
0.0
 51
360.0
 73
0
 97
0
 75
0
 76
1
 98
0
  0
LINE
  5
102
330
17
100
AcDbEntity
  8
0
100
AcDbLine
 10
6010716.58
 20
6568831.45
 30
0.0
 11
6010716.65
 21
6568831.39
 31
0.0
  0
LINE
  5
103
330
17
100
AcDbEntity
  8
0
 62
4
100
AcDbLine
 10
6010716.58
 20
6568831.45
 30
0.0
 11
6010716.65
 21
6568831.45
 31
0.0
  0
LINE
  5
104
330
17
100
AcDbEntity
  8
0
 62
2
100
AcDbLine
 10
6010716.58
 20
6568831.45
 30
0.0
 11
6010716.58
 21
6568831.39
 31
0.0
  0
HATCH
  5
105
330
17
100
AcDbEntity
  8
0
 62
1
100
AcDbHatch
 10
0.0
 20
0.0
 30
0.0
210
0.0
220
0.0
230
1.0
  2
SOLID
 70
1
 71
0
 91
1
 92
1
 93
1
 72
3
 10
6010714.49
 20
6568831.5
 11
0.0
 21
0.005
 40
1
 50
0.0
 51
360.0
 73
0
 97
0
 75
0
 76
1
 98
0
  0
LINE
  5
106
330
17
100
AcDbEntity
  8
0
100
AcDbLine
 10
6010714.58
 20
6568831.52
 30
0.0
 11
6010714.49
 21
6568831.5
 31
0.0
  0
LINE
  5
107
330
17
100
AcDbEntity
  8
0
 62
4
100
AcDbLine
 10
6010714.58
 20
6568831.52
 30
0.0
 11
6010714.49
 21
6568831.52
 31
0.0
  0
LINE
  5
108
330
17
100
AcDbEntity
  8
0
 62
2
100
AcDbLine
 10
6010714.58
 20
6568831.52
 30
0.0
 11
6010714.58
 21
6568831.5
 31
0.0
  0
HATCH
  5
109
330
17
100
AcDbEntity
  8
0
 62
1
100
AcDbHatch
 10
0.0
 20
0.0
 30
0.0
210
0.0
220
0.0
230
1.0
  2
SOLID
 70
1
 71
0
 91
1
 92
1
 93
1
 72
3
 10
6010712.55
 20
6568831.51
 11
0.0
 21
0.005
 40
1
 50
0.0
 51
360.0
 73
0
 97
0
 75
0
 76
1
 98
0
  0
LINE
  5
10A
330
17
100
AcDbEntity
  8
0
100
AcDbLine
 10
6010712.59
 20
6568831.59
 30
0.0
 11
6010712.55
 21
6568831.51
 31
0.0
  0
LINE
  5
10B
330
17
100
AcDbEntity
  8
0
 62
4
100
AcDbLine
 10
6010712.59
 20
6568831.59
 30
0.0
 11
6010712.55
 21
6568831.59
 31
0.0
  0
LINE
  5
10C
330
17
100
AcDbEntity
  8
0
 62
2
100
AcDbLine
 10
6010712.59
 20
6568831.59
 30
0.0
 11
6010712.59
 21
6568831.51
 31
0.0
  0
HATCH
  5
10D
330
17
100
AcDbEntity
  8
0
 62
1
100
AcDbHatch
 10
0.0
 20
0.0
 30
0.0
210
0.0
220
0.0
230
1.0
  2
SOLID
 70
1
 71
0
 91
1
 92
1
 93
1
 72
3
 10
6010718.7
 20
6568833.76
 11
0.0
 21
0.005
 40
1
 50
0.0
 51
360.0
 73
0
 97
0
 75
0
 76
1
 98
0
  0
LINE
  5
10E
330
17
100
AcDbEntity
  8
0
100
AcDbLine
 10
6010718.67
 20
6568833.77
 30
0.0
 11
6010718.7
 21
6568833.76
 31
0.0
  0
LINE
  5
10F
330
17
100
AcDbEntity
  8
0
 62
4
100
AcDbLine
 10
6010718.67
 20
6568833.77
 30
0.0
 11
6010718.7
 21
6568833.77
 31
0.0
  0
LINE
  5
110
330
17
100
AcDbEntity
  8
0
 62
2
100
AcDbLine
 10
6010718.67
 20
6568833.77
 30
0.0
 11
6010718.67
 21
6568833.76
 31
0.0
  0
HATCH
  5
111
330
17
100
AcDbEntity
  8
0
 62
1
100
AcDbHatch
 10
0.0
 20
0.0
 30
0.0
210
0.0
220
0.0
230
1.0
  2
SOLID
 70
1
 71
0
 91
1
 92
1
 93
1
 72
3
 10
6010716.68
 20
6568833.74
 11
0.0
 21
0.005
 40
1
 50
0.0
 51
360.0
 73
0
 97
0
 75
0
 76
1
 98
0
  0
LINE
  5
112
330
17
100
AcDbEntity
  8
0
100
AcDbLine
 10
6010716.67
 20
6568833.84
 30
0.0
 11
6010716.68
 21
6568833.74
 31
0.0
  0
LINE
  5
113
330
17
100
AcDbEntity
  8
0
 62
4
100
AcDbLine
 10
6010716.67
 20
6568833.84
 30
0.0
 11
6010716.68
 21
6568833.84
 31
0.0
  0
LINE
  5
114
330
17
100
AcDbEntity
  8
0
 62
2
100
AcDbLine
 10
6010716.67
 20
6568833.84
 30
0.0
 11
6010716.67
 21
6568833.74
 31
0.0
  0
HATCH
  5
115
330
17
100
AcDbEntity
  8
0
 62
1
100
AcDbHatch
 10
0.0
 20
0.0
 30
0.0
210
0.0
220
0.0
230
1.0
  2
SOLID
 70
1
 71
0
 91
1
 92
1
 93
1
 72
3
 10
6010714.67
 20
6568833.99
 11
0.0
 21
0.005
 40
1
 50
0.0
 51
360.0
 73
0
 97
0
 75
0
 76
1
 98
0
  0
LINE
  5
116
330
17
100
AcDbEntity
  8
0
100
AcDbLine
 10
6010714.67
 20
6568833.92
 30
0.0
 11
6010714.67
 21
6568833.99
 31
0.0
  0
LINE
  5
117
330
17
100
AcDbEntity
  8
0
 62
4
100
AcDbLine
 10
6010714.67
 20
6568833.92
 30
0.0
 11
6010714.67
 21
6568833.92
 31
0.0
  0
LINE
  5
118
330
17
100
AcDbEntity
  8
0
 62
2
100
AcDbLine
 10
6010714.67
 20
6568833.92
 30
0.0
 11
6010714.67
 21
6568833.99
 31
0.0
  0
HATCH
  5
119
330
17
100
AcDbEntity
  8
0
 62
1
100
AcDbHatch
 10
0.0
 20
0.0
 30
0.0
210
0.0
220
0.0
230
1.0
  2
SOLID
 70
1
 71
0
 91
1
 92
1
 93
1
 72
3
 10
6010712.74
 20
6568834.06
 11
0.0
 21
0.005
 40
1
 50
0.0
 51
360.0
 73
0
 97
0
 75
0
 76
1
 98
0
  0
LINE
  5
11A
330
17
100
AcDbEntity
  8
0
100
AcDbLine
 10
6010712.67
 20
6568833.99
 30
0.0
 11
6010712.74
 21
6568834.06
 31
0.0
  0
LINE
  5
11B
330
17
100
AcDbEntity
  8
0
 62
4
100
AcDbLine
 10
6010712.67
 20
6568833.99
 30
0.0
 11
6010712.74
 21
6568833.99
 31
0.0
  0
LINE
  5
11C
330
17
100
AcDbEntity
  8
0
 62
2
100
AcDbLine
 10
6010712.67
 20
6568833.99
 30
0.0
 11
6010712.67
 21
6568834.06
 31
0.0
  0
HATCH
  5
11D
330
17
100
AcDbEntity
  8
0
 62
1
100
AcDbHatch
 10
0.0
 20
0.0
 30
0.0
210
0.0
220
0.0
230
1.0
  2
SOLID
 70
1
 71
0
 91
1
 92
1
 93
1
 72
3
 10
6010718.76
 20
6568836.15
 11
0.0
 21
0.005
 40
1
 50
0.0
 51
360.0
 73
0
 97
0
 75
0
 76
1
 98
0
  0
LINE
  5
11E
330
17
100
AcDbEntity
  8
0
100
AcDbLine
 10
6010718.76
 20
6568836.16
 30
0.0
 11
6010718.76
 21
6568836.15
 31
0.0
  0
LINE
  5
11F
330
17
100
AcDbEntity
  8
0
 62
4
100
AcDbLine
 10
6010718.76
 20
6568836.16
 30
0.0
 11
6010718.76
 21
6568836.16
 31
0.0
  0
LINE
  5
120
330
17
100
AcDbEntity
  8
0
 62
2
100
AcDbLine
 10
6010718.76
 20
6568836.16
 30
0.0
 11
6010718.76
 21
6568836.15
 31
0.0
  0
HATCH
  5
121
330
17
100
AcDbEntity
  8
0
 62
1
100
AcDbHatch
 10
0.0
 20
0.0
 30
0.0
210
0.0
220
0.0
230
1.0
  2
SOLID
 70
1
 71
0
 91
1
 92
1
 93
1
 72
3
 10
6010716.71
 20
6568836.24
 11
0.0
 21
0.005
 40
1
 50
0.0
 51
360.0
 73
0
 97
0
 75
0
 76
1
 98
0
  0
LINE
  5
122
330
17
100
AcDbEntity
  8
0
100
AcDbLine
 10
6010716.76
 20
6568836.24
 30
0.0
 11
6010716.71
 21
6568836.24
 31
0.0
  0
LINE
  5
123
330
17
100
AcDbEntity
  8
0
 62
4
100
AcDbLine
 10
6010716.76
 20
6568836.24
 30
0.0
 11
6010716.71
 21
6568836.24
 31
0.0
  0
LINE
  5
124
330
17
100
AcDbEntity
  8
0
 62
2
100
AcDbLine
 10
6010716.76
 20
6568836.24
 30
0.0
 11
6010716.76
 21
6568836.24
 31
0.0
  0
HATCH
  5
125
330
17
100
AcDbEntity
  8
0
 62
1
100
AcDbHatch
 10
0.0
 20
0.0
 30
0.0
210
0.0
220
0.0
230
1.0
  2
SOLID
 70
1
 71
0
 91
1
 92
1
 93
1
 72
3
 10
6010714.71
 20
6568836.25
 11
0.0
 21
0.005
 40
1
 50
0.0
 51
360.0
 73
0
 97
0
 75
0
 76
1
 98
0
  0
LINE
  5
126
330
17
100
AcDbEntity
  8
0
100
AcDbLine
 10
6010714.77
 20
6568836.32
 30
0.0
 11
6010714.71
 21
6568836.25
 31
0.0
  0
LINE
  5
127
330
17
100
AcDbEntity
  8
0
 62
4
100
AcDbLine
 10
6010714.77
 20
6568836.32
 30
0.0
 11
6010714.71
 21
6568836.32
 31
0.0
  0
LINE
  5
128
330
17
100
AcDbEntity
  8
0
 62
2
100
AcDbLine
 10
6010714.77
 20
6568836.32
 30
0.0
 11
6010714.77
 21
6568836.25
 31
0.0
  0
HATCH
  5
129
330
17
100
AcDbEntity
  8
0
 62
1
100
AcDbHatch
 10
0.0
 20
0.0
 30
0.0
210
0.0
220
0.0
230
1.0
  2
SOLID
 70
1
 71
0
 91
1
 92
1
 93
1
 72
3
 10
6010712.73
 20
6568836.41
 11
0.0
 21
0.005
 40
1
 50
0.0
 51
360.0
 73
0
 97
0
 75
0
 76
1
 98
0
  0
LINE
  5
12A
330
17
100
AcDbEntity
  8
0
100
AcDbLine
 10
6010712.77
 20
6568836.39
 30
0.0
 11
6010712.73
 21
6568836.41
 31
0.0
  0
LINE
  5
12B
330
17
100
AcDbEntity
  8
0
 62
4
100
AcDbLine
 10
6010712.77
 20
6568836.39
 30
0.0
 11
6010712.73
 21
6568836.39
 31
0.0
  0
LINE
  5
12C
330
17
100
AcDbEntity
  8
0
 62
2
100
AcDbLine
 10
6010712.77
 20
6568836.39
 30
0.0
 11
6010712.77
 21
6568836.41
 31
0.0
  0
HATCH
  5
12D
330
17
100
AcDbEntity
  8
0
 62
1
100
AcDbHatch
 10
0.0
 20
0.0
 30
0.0
210
0.0
220
0.0
230
1.0
  2
SOLID
 70
1
 71
0
 91
1
 92
1
 93
1
 72
3
 10
6010718.85
 20
6568838.52
 11
0.0
 21
0.005
 40
1
 50
0.0
 51
360.0
 73
0
 97
0
 75
0
 76
1
 98
0
  0
LINE
  5
12E
330
17
100
AcDbEntity
  8
0
100
AcDbLine
 10
6010718.86
 20
6568838.56
 30
0.0
 11
6010718.85
 21
6568838.52
 31
0.0
  0
LINE
  5
12F
330
17
100
AcDbEntity
  8
0
 62
4
100
AcDbLine
 10
6010718.86
 20
6568838.56
 30
0.0
 11
6010718.85
 21
6568838.56
 31
0.0
  0
LINE
  5
130
330
17
100
AcDbEntity
  8
0
 62
2
100
AcDbLine
 10
6010718.86
 20
6568838.56
 30
0.0
 11
6010718.86
 21
6568838.52
 31
0.0
  0
HATCH
  5
131
330
17
100
AcDbEntity
  8
0
 62
1
100
AcDbHatch
 10
0.0
 20
0.0
 30
0.0
210
0.0
220
0.0
230
1.0
  2
SOLID
 70
1
 71
0
 91
1
 92
1
 93
1
 72
3
 10
6010716.83
 20
6568838.62
 11
0.0
 21
0.005
 40
1
 50
0.0
 51
360.0
 73
0
 97
0
 75
0
 76
1
 98
0
  0
LINE
  5
132
330
17
100
AcDbEntity
  8
0
100
AcDbLine
 10
6010716.86
 20
6568838.64
 30
0.0
 11
6010716.83
 21
6568838.62
 31
0.0
  0
LINE
  5
133
330
17
100
AcDbEntity
  8
0
 62
4
100
AcDbLine
 10
6010716.86
 20
6568838.64
 30
0.0
 11
6010716.83
 21
6568838.64
 31
0.0
  0
LINE
  5
134
330
17
100
AcDbEntity
  8
0
 62
2
100
AcDbLine
 10
6010716.86
 20
6568838.64
 30
0.0
 11
6010716.86
 21
6568838.62
 31
0.0
  0
HATCH
  5
135
330
17
100
AcDbEntity
  8
0
 62
1
100
AcDbHatch
 10
0.0
 20
0.0
 30
0.0
210
0.0
220
0.0
230
1.0
  2
SOLID
 70
1
 71
0
 91
1
 92
1
 93
1
 72
3
 10
6010714.84
 20
6568838.7
 11
0.0
 21
0.005
 40
1
 50
0.0
 51
360.0
 73
0
 97
0
 75
0
 76
1
 98
0
  0
LINE
  5
136
330
17
100
AcDbEntity
  8
0
100
AcDbLine
 10
6010714.86
 20
6568838.71
 30
0.0
 11
6010714.84
 21
6568838.7
 31
0.0
  0
LINE
  5
137
330
17
100
AcDbEntity
  8
0
 62
4
100
AcDbLine
 10
6010714.86
 20
6568838.71
 30
0.0
 11
6010714.84
 21
6568838.71
 31
0.0
  0
LINE
  5
138
330
17
100
AcDbEntity
  8
0
 62
2
100
AcDbLine
 10
6010714.86
 20
6568838.71
 30
0.0
 11
6010714.86
 21
6568838.7
 31
0.0
  0
HATCH
  5
139
330
17
100
AcDbEntity
  8
0
 62
1
100
AcDbHatch
 10
0.0
 20
0.0
 30
0.0
210
0.0
220
0.0
230
1.0
  2
SOLID
 70
1
 71
0
 91
1
 92
1
 93
1
 72
3
 10
6010712.82
 20
6568838.7
 11
0.0
 21
0.005
 40
1
 50
0.0
 51
360.0
 73
0
 97
0
 75
0
 76
1
 98
0
  0
LINE
  5
13A
330
17
100
AcDbEntity
  8
0
100
AcDbLine
 10
6010712.86
 20
6568838.79
 30
0.0
 11
6010712.82
 21
6568838.7
 31
0.0
  0
LINE
  5
13B
330
17
100
AcDbEntity
  8
0
 62
4
100
AcDbLine
 10
6010712.86
 20
6568838.79
 30
0.0
 11
6010712.82
 21
6568838.79
 31
0.0
  0
LINE
  5
13C
330
17
100
AcDbEntity
  8
0
 62
2
100
AcDbLine
 10
6010712.86
 20
6568838.79
 30
0.0
 11
6010712.86
 21
6568838.7
 31
0.0
  0
HATCH
  5
13D
330
17
100
AcDbEntity
  8
0
 62
1
100
AcDbHatch
 10
0.0
 20
0.0
 30
0.0
210
0.0
220
0.0
230
1.0
  2
SOLID
 70
1
 71
0
 91
1
 92
1
 93
1
 72
3
 10
6010718.89
 20
6568840.89
 11
0.0
 21
0.005
 40
1
 50
0.0
 51
360.0
 73
0
 97
0
 75
0
 76
1
 98
0
  0
LINE
  5
13E
330
17
100
AcDbEntity
  8
0
100
AcDbLine
 10
6010718.95
 20
6568840.96
 30
0.0
 11
6010718.89
 21
6568840.89
 31
0.0
  0
LINE
  5
13F
330
17
100
AcDbEntity
  8
0
 62
4
100
AcDbLine
 10
6010718.95
 20
6568840.96
 30
0.0
 11
6010718.89
 21
6568840.96
 31
0.0
  0
LINE
  5
140
330
17
100
AcDbEntity
  8
0
 62
2
100
AcDbLine
 10
6010718.95
 20
6568840.96
 30
0.0
 11
6010718.95
 21
6568840.89
 31
0.0
  0
HATCH
  5
141
330
17
100
AcDbEntity
  8
0
 62
1
100
AcDbHatch
 10
0.0
 20
0.0
 30
0.0
210
0.0
220
0.0
230
1.0
  2
SOLID
 70
1
 71
0
 91
1
 92
1
 93
1
 72
3
 10
6010716.92
 20
6568840.99
 11
0.0
 21
0.005
 40
1
 50
0.0
 51
360.0
 73
0
 97
0
 75
0
 76
1
 98
0
  0
LINE
  5
142
330
17
100
AcDbEntity
  8
0
100
AcDbLine
 10
6010716.95
 20
6568841.03
 30
0.0
 11
6010716.92
 21
6568840.99
 31
0.0
  0
LINE
  5
143
330
17
100
AcDbEntity
  8
0
 62
4
100
AcDbLine
 10
6010716.95
 20
6568841.03
 30
0.0
 11
6010716.92
 21
6568841.03
 31
0.0
  0
LINE
  5
144
330
17
100
AcDbEntity
  8
0
 62
2
100
AcDbLine
 10
6010716.95
 20
6568841.03
 30
0.0
 11
6010716.95
 21
6568840.99
 31
0.0
  0
HATCH
  5
145
330
17
100
AcDbEntity
  8
0
 62
1
100
AcDbHatch
 10
0.0
 20
0.0
 30
0.0
210
0.0
220
0.0
230
1.0
  2
SOLID
 70
1
 71
0
 91
1
 92
1
 93
1
 72
3
 10
6010714.91
 20
6568841.19
 11
0.0
 21
0.005
 40
1
 50
0.0
 51
360.0
 73
0
 97
0
 75
0
 76
1
 98
0
  0
LINE
  5
146
330
17
100
AcDbEntity
  8
0
100
AcDbLine
 10
6010714.95
 20
6568841.11
 30
0.0
 11
6010714.91
 21
6568841.19
 31
0.0
  0
LINE
  5
147
330
17
100
AcDbEntity
  8
0
 62
4
100
AcDbLine
 10
6010714.95
 20
6568841.11
 30
0.0
 11
6010714.91
 21
6568841.11
 31
0.0
  0
LINE
  5
148
330
17
100
AcDbEntity
  8
0
 62
2
100
AcDbLine
 10
6010714.95
 20
6568841.11
 30
0.0
 11
6010714.95
 21
6568841.19
 31
0.0
  0
HATCH
  5
149
330
17
100
AcDbEntity
  8
0
 62
1
100
AcDbHatch
 10
0.0
 20
0.0
 30
0.0
210
0.0
220
0.0
230
1.0
  2
SOLID
 70
1
 71
0
 91
1
 92
1
 93
1
 72
3
 10
6010712.99
 20
6568841.18
 11
0.0
 21
0.005
 40
1
 50
0.0
 51
360.0
 73
0
 97
0
 75
0
 76
1
 98
0
  0
LINE
  5
14A
330
17
100
AcDbEntity
  8
0
100
AcDbLine
 10
6010712.95
 20
6568841.19
 30
0.0
 11
6010712.99
 21
6568841.18
 31
0.0
  0
LINE
  5
14B
330
17
100
AcDbEntity
  8
0
 62
4
100
AcDbLine
 10
6010712.95
 20
6568841.19
 30
0.0
 11
6010712.99
 21
6568841.19
 31
0.0
  0
LINE
  5
14C
330
17
100
AcDbEntity
  8
0
 62
2
100
AcDbLine
 10
6010712.95
 20
6568841.19
 30
0.0
 11
6010712.95
 21
6568841.18
 31
0.0
  0
HATCH
  5
14D
330
17
100
AcDbEntity
  8
0
 62
1
100
AcDbHatch
 10
0.0
 20
0.0
 30
0.0
210
0.0
220
0.0
230
1.0
  2
SOLID
 70
1
 71
0
 91
1
 92
1
 93
1
 72
3
 10
6010719.09
 20
6568843.31
 11
0.0
 21
0.005
 40
1
 50
0.0
 51
360.0
 73
0
 97
0
 75
0
 76
1
 98
0
  0
LINE
  5
14E
330
17
100
AcDbEntity
  8
0
100
AcDbLine
 10
6010719.04
 20
6568843.35
 30
0.0
 11
6010719.09
 21
6568843.31
 31
0.0
  0
LINE
  5
14F
330
17
100
AcDbEntity
  8
0
 62
4
100
AcDbLine
 10
6010719.04
 20
6568843.35
 30
0.0
 11
6010719.09
 21
6568843.35
 31
0.0
  0
LINE
  5
150
330
17
100
AcDbEntity
  8
0
 62
2
100
AcDbLine
 10
6010719.04
 20
6568843.35
 30
0.0
 11
6010719.04
 21
6568843.31
 31
0.0
  0
HATCH
  5
151
330
17
100
AcDbEntity
  8
0
 62
1
100
AcDbHatch
 10
0.0
 20
0.0
 30
0.0
210
0.0
220
0.0
230
1.0
  2
SOLID
 70
1
 71
0
 91
1
 92
1
 93
1
 72
3
 10
6010716.99
 20
6568843.36
 11
0.0
 21
0.005
 40
1
 50
0.0
 51
360.0
 73
0
 97
0
 75
0
 76
1
 98
0
  0
LINE
  5
152
330
17
100
AcDbEntity
  8
0
100
AcDbLine
 10
6010717.04
 20
6568843.43
 30
0.0
 11
6010716.99
 21
6568843.36
 31
0.0
  0
LINE
  5
153
330
17
100
AcDbEntity
  8
0
 62
4
100
AcDbLine
 10
6010717.04
 20
6568843.43
 30
0.0
 11
6010716.99
 21
6568843.43
 31
0.0
  0
LINE
  5
154
330
17
100
AcDbEntity
  8
0
 62
2
100
AcDbLine
 10
6010717.04
 20
6568843.43
 30
0.0
 11
6010717.04
 21
6568843.36
 31
0.0
  0
HATCH
  5
155
330
17
100
AcDbEntity
  8
0
 62
1
100
AcDbHatch
 10
0.0
 20
0.0
 30
0.0
210
0.0
220
0.0
230
1.0
  2
SOLID
 70
1
 71
0
 91
1
 92
1
 93
1
 72
3
 10
6010715.06
 20
6568843.5
 11
0.0
 21
0.005
 40
1
 50
0.0
 51
360.0
 73
0
 97
0
 75
0
 76
1
 98
0
  0
LINE
  5
156
330
17
100
AcDbEntity
  8
0
100
AcDbLine
 10
6010715.05
 20
6568843.51
 30
0.0
 11
6010715.06
 21
6568843.5
 31
0.0
  0
LINE
  5
157
330
17
100
AcDbEntity
  8
0
 62
4
100
AcDbLine
 10
6010715.05
 20
6568843.51
 30
0.0
 11
6010715.06
 21
6568843.51
 31
0.0
  0
LINE
  5
158
330
17
100
AcDbEntity
  8
0
 62
2
100
AcDbLine
 10
6010715.05
 20
6568843.51
 30
0.0
 11
6010715.05
 21
6568843.5
 31
0.0
  0
HATCH
  5
159
330
17
100
AcDbEntity
  8
0
 62
1
100
AcDbHatch
 10
0.0
 20
0.0
 30
0.0
210
0.0
220
0.0
230
1.0
  2
SOLID
 70
1
 71
0
 91
1
 92
1
 93
1
 72
3
 10
6010713.05
 20
6568843.51
 11
0.0
 21
0.005
 40
1
 50
0.0
 51
360.0
 73
0
 97
0
 75
0
 76
1
 98
0
  0
LINE
  5
15A
330
17
100
AcDbEntity
  8
0
100
AcDbLine
 10
6010713.05
 20
6568843.59
 30
0.0
 11
6010713.05
 21
6568843.51
 31
0.0
  0
LINE
  5
15B
330
17
100
AcDbEntity
  8
0
 62
4
100
AcDbLine
 10
6010713.05
 20
6568843.59
 30
0.0
 11
6010713.05
 21
6568843.59
 31
0.0
  0
LINE
  5
15C
330
17
100
AcDbEntity
  8
0
 62
2
100
AcDbLine
 10
6010713.05
 20
6568843.59
 30
0.0
 11
6010713.05
 21
6568843.51
 31
0.0
  0
HATCH
  5
15D
330
17
100
AcDbEntity
  8
0
 62
1
100
AcDbHatch
 10
0.0
 20
0.0
 30
0.0
210
0.0
220
0.0
230
1.0
  2
SOLID
 70
1
 71
0
 91
1
 92
1
 93
1
 72
3
 10
6010719.07
 20
6568845.82
 11
0.0
 21
0.005
 40
1
 50
0.0
 51
360.0
 73
0
 97
0
 75
0
 76
1
 98
0
  0
LINE
  5
15E
330
17
100
AcDbEntity
  8
0
100
AcDbLine
 10
6010719.14
 20
6568845.75
 30
0.0
 11
6010719.07
 21
6568845.82
 31
0.0
  0
LINE
  5
15F
330
17
100
AcDbEntity
  8
0
 62
4
100
AcDbLine
 10
6010719.14
 20
6568845.75
 30
0.0
 11
6010719.07
 21
6568845.75
 31
0.0
  0
LINE
  5
160
330
17
100
AcDbEntity
  8
0
 62
2
100
AcDbLine
 10
6010719.14
 20
6568845.75
 30
0.0
 11
6010719.14
 21
6568845.82
 31
0.0
  0
HATCH
  5
161
330
17
100
AcDbEntity
  8
0
 62
1
100
AcDbHatch
 10
0.0
 20
0.0
 30
0.0
210
0.0
220
0.0
230
1.0
  2
SOLID
 70
1
 71
0
 91
1
 92
1
 93
1
 72
3
 10
6010717.2
 20
6568845.78
 11
0.0
 21
0.005
 40
1
 50
0.0
 51
360.0
 73
0
 97
0
 75
0
 76
1
 98
0
  0
LINE
  5
162
330
17
100
AcDbEntity
  8
0
100
AcDbLine
 10
6010717.14
 20
6568845.83
 30
0.0
 11
6010717.2
 21
6568845.78
 31
0.0
  0
LINE
  5
163
330
17
100
AcDbEntity
  8
0
 62
4
100
AcDbLine
 10
6010717.14
 20
6568845.83
 30
0.0
 11
6010717.2
 21
6568845.83
 31
0.0
  0
LINE
  5
164
330
17
100
AcDbEntity
  8
0
 62
2
100
AcDbLine
 10
6010717.14
 20
6568845.83
 30
0.0
 11
6010717.14
 21
6568845.78
 31
0.0
  0
HATCH
  5
165
330
17
100
AcDbEntity
  8
0
 62
1
100
AcDbHatch
 10
0.0
 20
0.0
 30
0.0
210
0.0
220
0.0
230
1.0
  2
SOLID
 70
1
 71
0
 91
1
 92
1
 93
1
 72
3
 10
6010715.21
 20
6568845.89
 11
0.0
 21
0.005
 40
1
 50
0.0
 51
360.0
 73
0
 97
0
 75
0
 76
1
 98
0
  0
LINE
  5
166
330
17
100
AcDbEntity
  8
0
100
AcDbLine
 10
6010715.14
 20
6568845.91
 30
0.0
 11
6010715.21
 21
6568845.89
 31
0.0
  0
LINE
  5
167
330
17
100
AcDbEntity
  8
0
 62
4
100
AcDbLine
 10
6010715.14
 20
6568845.91
 30
0.0
 11
6010715.21
 21
6568845.91
 31
0.0
  0
LINE
  5
168
330
17
100
AcDbEntity
  8
0
 62
2
100
AcDbLine
 10
6010715.14
 20
6568845.91
 30
0.0
 11
6010715.14
 21
6568845.89
 31
0.0
  0
HATCH
  5
169
330
17
100
AcDbEntity
  8
0
 62
1
100
AcDbHatch
 10
0.0
 20
0.0
 30
0.0
210
0.0
220
0.0
230
1.0
  2
SOLID
 70
1
 71
0
 91
1
 92
1
 93
1
 72
3
 10
6010713.1
 20
6568846.02
 11
0.0
 21
0.005
 40
1
 50
0.0
 51
360.0
 73
0
 97
0
 75
0
 76
1
 98
0
  0
LINE
  5
16A
330
17
100
AcDbEntity
  8
0
100
AcDbLine
 10
6010713.14
 20
6568845.99
 30
0.0
 11
6010713.1
 21
6568846.02
 31
0.0
  0
LINE
  5
16B
330
17
100
AcDbEntity
  8
0
 62
4
100
AcDbLine
 10
6010713.14
 20
6568845.99
 30
0.0
 11
6010713.1
 21
6568845.99
 31
0.0
  0
LINE
  5
16C
330
17
100
AcDbEntity
  8
0
 62
2
100
AcDbLine
 10
6010713.14
 20
6568845.99
 30
0.0
 11
6010713.14
 21
6568846.02
 31
0.0
  0
HATCH
  5
16D
330
17
100
AcDbEntity
  8
0
 62
1
100
AcDbHatch
 10
0.0
 20
0.0
 30
0.0
210
0.0
220
0.0
230
1.0
  2
SOLID
 70
1
 71
0
 91
1
 92
1
 93
1
 72
3
 10
6010719.18
 20
6568848.08
 11
0.0
 21
0.005
 40
1
 50
0.0
 51
360.0
 73
0
 97
0
 75
0
 76
1
 98
0
  0
LINE
  5
16E
330
17
100
AcDbEntity
  8
0
100
AcDbLine
 10
6010719.23
 20
6568848.15
 30
0.0
 11
6010719.18
 21
6568848.08
 31
0.0
  0
LINE
  5
16F
330
17
100
AcDbEntity
  8
0
 62
4
100
AcDbLine
 10
6010719.23
 20
6568848.15
 30
0.0
 11
6010719.18
 21
6568848.15
 31
0.0
  0
LINE
  5
170
330
17
100
AcDbEntity
  8
0
 62
2
100
AcDbLine
 10
6010719.23
 20
6568848.15
 30
0.0
 11
6010719.23
 21
6568848.08
 31
0.0
  0
HATCH
  5
171
330
17
100
AcDbEntity
  8
0
 62
1
100
AcDbHatch
 10
0.0
 20
0.0
 30
0.0
210
0.0
220
0.0
230
1.0
  2
SOLID
 70
1
 71
0
 91
1
 92
1
 93
1
 72
3
 10
6010717.13
 20
6568848.22
 11
0.0
 21
0.005
 40
1
 50
0.0
 51
360.0
 73
0
 97
0
 75
0
 76
1
 98
0
  0
LINE
  5
172
330
17
100
AcDbEntity
  8
0
100
AcDbLine
 10
6010717.23
 20
6568848.23
 30
0.0
 11
6010717.13
 21
6568848.22
 31
0.0
  0
LINE
  5
173
330
17
100
AcDbEntity
  8
0
 62
4
100
AcDbLine
 10
6010717.23
 20
6568848.23
 30
0.0
 11
6010717.13
 21
6568848.23
 31
0.0
  0
LINE
  5
174
330
17
100
AcDbEntity
  8
0
 62
2
100
AcDbLine
 10
6010717.23
 20
6568848.23
 30
0.0
 11
6010717.23
 21
6568848.22
 31
0.0
  0
HATCH
  5
175
330
17
100
AcDbEntity
  8
0
 62
1
100
AcDbHatch
 10
0.0
 20
0.0
 30
0.0
210
0.0
220
0.0
230
1.0
  2
SOLID
 70
1
 71
0
 91
1
 92
1
 93
1
 72
3
 10
6010715.19
 20
6568848.22
 11
0.0
 21
0.005
 40
1
 50
0.0
 51
360.0
 73
0
 97
0
 75
0
 76
1
 98
0
  0
LINE
  5
176
330
17
100
AcDbEntity
  8
0
100
AcDbLine
 10
6010715.23
 20
6568848.31
 30
0.0
 11
6010715.19
 21
6568848.22
 31
0.0
  0
LINE
  5
177
330
17
100
AcDbEntity
  8
0
 62
4
100
AcDbLine
 10
6010715.23
 20
6568848.31
 30
0.0
 11
6010715.19
 21
6568848.31
 31
0.0
  0
LINE
  5
178
330
17
100
AcDbEntity
  8
0
 62
2
100
AcDbLine
 10
6010715.23
 20
6568848.31
 30
0.0
 11
6010715.23
 21
6568848.22
 31
0.0
  0
HATCH
  5
179
330
17
100
AcDbEntity
  8
0
 62
1
100
AcDbHatch
 10
0.0
 20
0.0
 30
0.0
210
0.0
220
0.0
230
1.0
  2
SOLID
 70
1
 71
0
 91
1
 92
1
 93
1
 72
3
 10
6010713.25
 20
6568848.3
 11
0.0
 21
0.005
 40
1
 50
0.0
 51
360.0
 73
0
 97
0
 75
0
 76
1
 98
0
  0
LINE
  5
17A
330
17
100
AcDbEntity
  8
0
100
AcDbLine
 10
6010713.24
 20
6568848.39
 30
0.0
 11
6010713.25
 21
6568848.3
 31
0.0
  0
LINE
  5
17B
330
17
100
AcDbEntity
  8
0
 62
4
100
AcDbLine
 10
6010713.24
 20
6568848.39
 30
0.0
 11
6010713.25
 21
6568848.39
 31
0.0
  0
LINE
  5
17C
330
17
100
AcDbEntity
  8
0
 62
2
100
AcDbLine
 10
6010713.24
 20
6568848.39
 30
0.0
 11
6010713.24
 21
6568848.3
 31
0.0
  0
HATCH
  5
17D
330
17
100
AcDbEntity
  8
0
 62
1
100
AcDbHatch
 10
0.0
 20
0.0
 30
0.0
210
0.0
220
0.0
230
1.0
  2
SOLID
 70
1
 71
0
 91
1
 92
1
 93
1
 72
3
 10
6010719.35
 20
6568850.47
 11
0.0
 21
0.005
 40
1
 50
0.0
 51
360.0
 73
0
 97
0
 75
0
 76
1
 98
0
  0
LINE
  5
17E
330
17
100
AcDbEntity
  8
0
100
AcDbLine
 10
6010719.32
 20
6568850.55
 30
0.0
 11
6010719.35
 21
6568850.47
 31
0.0
  0
LINE
  5
17F
330
17
100
AcDbEntity
  8
0
 62
4
100
AcDbLine
 10
6010719.32
 20
6568850.55
 30
0.0
 11
6010719.35
 21
6568850.55
 31
0.0
  0
LINE
  5
180
330
17
100
AcDbEntity
  8
0
 62
2
100
AcDbLine
 10
6010719.32
 20
6568850.55
 30
0.0
 11
6010719.32
 21
6568850.47
 31
0.0
  0
HATCH
  5
181
330
17
100
AcDbEntity
  8
0
 62
1
100
AcDbHatch
 10
0.0
 20
0.0
 30
0.0
210
0.0
220
0.0
230
1.0
  2
SOLID
 70
1
 71
0
 91
1
 92
1
 93
1
 72
3
 10
6010717.26
 20
6568850.55
 11
0.0
 21
0.005
 40
1
 50
0.0
 51
360.0
 73
0
 97
0
 75
0
 76
1
 98
0
  0
LINE
  5
182
330
17
100
AcDbEntity
  8
0
100
AcDbLine
 10
6010717.33
 20
6568850.63
 30
0.0
 11
6010717.26
 21
6568850.55
 31
0.0
  0
LINE
  5
183
330
17
100
AcDbEntity
  8
0
 62
4
100
AcDbLine
 10
6010717.33
 20
6568850.63
 30
0.0
 11
6010717.26
 21
6568850.63
 31
0.0
  0
LINE
  5
184
330
17
100
AcDbEntity
  8
0
 62
2
100
AcDbLine
 10
6010717.33
 20
6568850.63
 30
0.0
 11
6010717.33
 21
6568850.55
 31
0.0
  0
HATCH
  5
185
330
17
100
AcDbEntity
  8
0
 62
1
100
AcDbHatch
 10
0.0
 20
0.0
 30
0.0
210
0.0
220
0.0
230
1.0
  2
SOLID
 70
1
 71
0
 91
1
 92
1
 93
1
 72
3
 10
6010715.25
 20
6568850.77
 11
0.0
 21
0.005
 40
1
 50
0.0
 51
360.0
 73
0
 97
0
 75
0
 76
1
 98
0
  0
LINE
  5
186
330
17
100
AcDbEntity
  8
0
100
AcDbLine
 10
6010715.33
 20
6568850.71
 30
0.0
 11
6010715.25
 21
6568850.77
 31
0.0
  0
LINE
  5
187
330
17
100
AcDbEntity
  8
0
 62
4
100
AcDbLine
 10
6010715.33
 20
6568850.71
 30
0.0
 11
6010715.25
 21
6568850.71
 31
0.0
  0
LINE
  5
188
330
17
100
AcDbEntity
  8
0
 62
2
100
AcDbLine
 10
6010715.33
 20
6568850.71
 30
0.0
 11
6010715.33
 21
6568850.77
 31
0.0
  0
HATCH
  5
189
330
17
100
AcDbEntity
  8
0
 62
1
100
AcDbHatch
 10
0.0
 20
0.0
 30
0.0
210
0.0
220
0.0
230
1.0
  2
SOLID
 70
1
 71
0
 91
1
 92
1
 93
1
 72
3
 10
6010713.24
 20
6568850.75
 11
0.0
 21
0.005
 40
1
 50
0.0
 51
360.0
 73
0
 97
0
 75
0
 76
1
 98
0
  0
LINE
  5
18A
330
17
100
AcDbEntity
  8
0
100
AcDbLine
 10
6010713.33
 20
6568850.78
 30
0.0
 11
6010713.24
 21
6568850.75
 31
0.0
  0
LINE
  5
18B
330
17
100
AcDbEntity
  8
0
 62
4
100
AcDbLine
 10
6010713.33
 20
6568850.78
 30
0.0
 11
6010713.24
 21
6568850.78
 31
0.0
  0
LINE
  5
18C
330
17
100
AcDbEntity
  8
0
 62
2
100
AcDbLine
 10
6010713.33
 20
6568850.78
 30
0.0
 11
6010713.33
 21
6568850.75
 31
0.0
  0
HATCH
  5
18D
330
17
100
AcDbEntity
  8
0
 62
1
100
AcDbHatch
 10
0.0
 20
0.0
 30
0.0
210
0.0
220
0.0
230
1.0
  2
SOLID
 70
1
 71
0
 91
1
 92
1
 93
1
 72
3
 10
6010719.46
 20
6568852.89
 11
0.0
 21
0.005
 40
1
 50
0.0
 51
360.0
 73
0
 97
0
 75
0
 76
1
 98
0
  0
LINE
  5
18E
330
17
100
AcDbEntity
  8
0
100
AcDbLine
 10
6010719.42
 20
6568852.95
 30
0.0
 11
6010719.46
 21
6568852.89
 31
0.0
  0
LINE
  5
18F
330
17
100
AcDbEntity
  8
0
 62
4
100
AcDbLine
 10
6010719.42
 20
6568852.95
 30
0.0
 11
6010719.46
 21
6568852.95
 31
0.0
  0
LINE
  5
190
330
17
100
AcDbEntity
  8
0
 62
2
100
AcDbLine
 10
6010719.42
 20
6568852.95
 30
0.0
 11
6010719.42
 21
6568852.89
 31
0.0
  0
HATCH
  5
191
330
17
100
AcDbEntity
  8
0
 62
1
100
AcDbHatch
 10
0.0
 20
0.0
 30
0.0
210
0.0
220
0.0
230
1.0
  2
SOLID
 70
1
 71
0
 91
1
 92
1
 93
1
 72
3
 10
6010717.34
 20
6568852.97
 11
0.0
 21
0.005
 40
1
 50
0.0
 51
360.0
 73
0
 97
0
 75
0
 76
1
 98
0
  0
LINE
  5
192
330
17
100
AcDbEntity
  8
0
100
AcDbLine
 10
6010717.42
 20
6568853.03
 30
0.0
 11
6010717.34
 21
6568852.97
 31
0.0
  0
LINE
  5
193
330
17
100
AcDbEntity
  8
0
 62
4
100
AcDbLine
 10
6010717.42
 20
6568853.03
 30
0.0
 11
6010717.34
 21
6568853.03
 31
0.0
  0
LINE
  5
194
330
17
100
AcDbEntity
  8
0
 62
2
100
AcDbLine
 10
6010717.42
 20
6568853.03
 30
0.0
 11
6010717.42
 21
6568852.97
 31
0.0
  0
HATCH
  5
195
330
17
100
AcDbEntity
  8
0
 62
1
100
AcDbHatch
 10
0.0
 20
0.0
 30
0.0
210
0.0
220
0.0
230
1.0
  2
SOLID
 70
1
 71
0
 91
1
 92
1
 93
1
 72
3
 10
6010715.34
 20
6568853.04
 11
0.0
 21
0.005
 40
1
 50
0.0
 51
360.0
 73
0
 97
0
 75
0
 76
1
 98
0
  0
LINE
  5
196
330
17
100
AcDbEntity
  8
0
100
AcDbLine
 10
6010715.42
 20
6568853.1
 30
0.0
 11
6010715.34
 21
6568853.04
 31
0.0
  0
LINE
  5
197
330
17
100
AcDbEntity
  8
0
 62
4
100
AcDbLine
 10
6010715.42
 20
6568853.1
 30
0.0
 11
6010715.34
 21
6568853.1
 31
0.0
  0
LINE
  5
198
330
17
100
AcDbEntity
  8
0
 62
2
100
AcDbLine
 10
6010715.42
 20
6568853.1
 30
0.0
 11
6010715.42
 21
6568853.04
 31
0.0
  0
HATCH
  5
199
330
17
100
AcDbEntity
  8
0
 62
1
100
AcDbHatch
 10
0.0
 20
0.0
 30
0.0
210
0.0
220
0.0
230
1.0
  2
SOLID
 70
1
 71
0
 91
1
 92
1
 93
1
 72
3
 10
6010713.52
 20
6568853.17
 11
0.0
 21
0.005
 40
1
 50
0.0
 51
360.0
 73
0
 97
0
 75
0
 76
1
 98
0
  0
LINE
  5
19A
330
17
100
AcDbEntity
  8
0
100
AcDbLine
 10
6010713.42
 20
6568853.18
 30
0.0
 11
6010713.52
 21
6568853.17
 31
0.0
  0
LINE
  5
19B
330
17
100
AcDbEntity
  8
0
 62
4
100
AcDbLine
 10
6010713.42
 20
6568853.18
 30
0.0
 11
6010713.52
 21
6568853.18
 31
0.0
  0
LINE
  5
19C
330
17
100
AcDbEntity
  8
0
 62
2
100
AcDbLine
 10
6010713.42
 20
6568853.18
 30
0.0
 11
6010713.42
 21
6568853.17
 31
0.0
  0
HATCH
  5
19D
330
17
100
AcDbEntity
  8
0
 62
1
100
AcDbHatch
 10
0.0
 20
0.0
 30
0.0
210
0.0
220
0.0
230
1.0
  2
SOLID
 70
1
 71
0
 91
1
 92
1
 93
1
 72
3
 10
6010719.48
 20
6568855.26
 11
0.0
 21
0.005
 40
1
 50
0.0
 51
360.0
 73
0
 97
0
 75
0
 76
1
 98
0
  0
LINE
  5
19E
330
17
100
AcDbEntity
  8
0
100
AcDbLine
 10
6010719.51
 20
6568855.35
 30
0.0
 11
6010719.48
 21
6568855.26
 31
0.0
  0
LINE
  5
19F
330
17
100
AcDbEntity
  8
0
 62
4
100
AcDbLine
 10
6010719.51
 20
6568855.35
 30
0.0
 11
6010719.48
 21
6568855.35
 31
0.0
  0
LINE
  5
1A0
330
17
100
AcDbEntity
  8
0
 62
2
100
AcDbLine
 10
6010719.51
 20
6568855.35
 30
0.0
 11
6010719.51
 21
6568855.26
 31
0.0
  0
HATCH
  5
1A1
330
17
100
AcDbEntity
  8
0
 62
1
100
AcDbHatch
 10
0.0
 20
0.0
 30
0.0
210
0.0
220
0.0
230
1.0
  2
SOLID
 70
1
 71
0
 91
1
 92
1
 93
1
 72
3
 10
6010717.47
 20
6568855.37
 11
0.0
 21
0.005
 40
1
 50
0.0
 51
360.0
 73
0
 97
0
 75
0
 76
1
 98
0
  0
LINE
  5
1A2
330
17
100
AcDbEntity
  8
0
100
AcDbLine
 10
6010717.51
 20
6568855.42
 30
0.0
 11
6010717.47
 21
6568855.37
 31
0.0
  0
LINE
  5
1A3
330
17
100
AcDbEntity
  8
0
 62
4
100
AcDbLine
 10
6010717.51
 20
6568855.42
 30
0.0
 11
6010717.47
 21
6568855.42
 31
0.0
  0
LINE
  5
1A4
330
17
100
AcDbEntity
  8
0
 62
2
100
AcDbLine
 10
6010717.51
 20
6568855.42
 30
0.0
 11
6010717.51
 21
6568855.37
 31
0.0
  0
HATCH
  5
1A5
330
17
100
AcDbEntity
  8
0
 62
1
100
AcDbHatch
 10
0.0
 20
0.0
 30
0.0
210
0.0
220
0.0
230
1.0
  2
SOLID
 70
1
 71
0
 91
1
 92
1
 93
1
 72
3
 10
6010715.47
 20
6568855.41
 11
0.0
 21
0.005
 40
1
 50
0.0
 51
360.0
 73
0
 97
0
 75
0
 76
1
 98
0
  0
LINE
  5
1A6
330
17
100
AcDbEntity
  8
0
100
AcDbLine
 10
6010715.52
 20
6568855.5
 30
0.0
 11
6010715.47
 21
6568855.41
 31
0.0
  0
LINE
  5
1A7
330
17
100
AcDbEntity
  8
0
 62
4
100
AcDbLine
 10
6010715.52
 20
6568855.5
 30
0.0
 11
6010715.47
 21
6568855.5
 31
0.0
  0
LINE
  5
1A8
330
17
100
AcDbEntity
  8
0
 62
2
100
AcDbLine
 10
6010715.52
 20
6568855.5
 30
0.0
 11
6010715.52
 21
6568855.41
 31
0.0
  0
HATCH
  5
1A9
330
17
100
AcDbEntity
  8
0
 62
1
100
AcDbHatch
 10
0.0
 20
0.0
 30
0.0
210
0.0
220
0.0
230
1.0
  2
SOLID
 70
1
 71
0
 91
1
 92
1
 93
1
 72
3
 10
6010713.48
 20
6568855.54
 11
0.0
 21
0.005
 40
1
 50
0.0
 51
360.0
 73
0
 97
0
 75
0
 76
1
 98
0
  0
LINE
  5
1AA
330
17
100
AcDbEntity
  8
0
100
AcDbLine
 10
6010713.52
 20
6568855.58
 30
0.0
 11
6010713.48
 21
6568855.54
 31
0.0
  0
LINE
  5
1AB
330
17
100
AcDbEntity
  8
0
 62
4
100
AcDbLine
 10
6010713.52
 20
6568855.58
 30
0.0
 11
6010713.48
 21
6568855.58
 31
0.0
  0
LINE
  5
1AC
330
17
100
AcDbEntity
  8
0
 62
2
100
AcDbLine
 10
6010713.52
 20
6568855.58
 30
0.0
 11
6010713.52
 21
6568855.54
 31
0.0
  0
HATCH
  5
1AD
330
17
100
AcDbEntity
  8
0
 62
1
100
AcDbHatch
 10
0.0
 20
0.0
 30
0.0
210
0.0
220
0.0
230
1.0
  2
SOLID
 70
1
 71
0
 91
1
 92
1
 93
1
 72
3
 10
6010719.56
 20
6568857.69
 11
0.0
 21
0.005
 40
1
 50
0.0
 51
360.0
 73
0
 97
0
 75
0
 76
1
 98
0
  0
LINE
  5
1AE
330
17
100
AcDbEntity
  8
0
100
AcDbLine
 10
6010719.61
 20
6568857.74
 30
0.0
 11
6010719.56
 21
6568857.69
 31
0.0
  0
LINE
  5
1AF
330
17
100
AcDbEntity
  8
0
 62
4
100
AcDbLine
 10
6010719.61
 20
6568857.74
 30
0.0
 11
6010719.56
 21
6568857.74
 31
0.0
  0
LINE
  5
1B0
330
17
100
AcDbEntity
  8
0
 62
2
100
AcDbLine
 10
6010719.61
 20
6568857.74
 30
0.0
 11
6010719.61
 21
6568857.69
 31
0.0
  0
HATCH
  5
1B1
330
17
100
AcDbEntity
  8
0
 62
1
100
AcDbHatch
 10
0.0
 20
0.0
 30
0.0
210
0.0
220
0.0
230
1.0
  2
SOLID
 70
1
 71
0
 91
1
 92
1
 93
1
 72
3
 10
6010717.57
 20
6568857.8
 11
0.0
 21
0.005
 40
1
 50
0.0
 51
360.0
 73
0
 97
0
 75
0
 76
1
 98
0
  0
LINE
  5
1B2
330
17
100
AcDbEntity
  8
0
100
AcDbLine
 10
6010717.61
 20
6568857.82
 30
0.0
 11
6010717.57
 21
6568857.8
 31
0.0
  0
LINE
  5
1B3
330
17
100
AcDbEntity
  8
0
 62
4
100
AcDbLine
 10
6010717.61
 20
6568857.82
 30
0.0
 11
6010717.57
 21
6568857.82
 31
0.0
  0
LINE
  5
1B4
330
17
100
AcDbEntity
  8
0
 62
2
100
AcDbLine
 10
6010717.61
 20
6568857.82
 30
0.0
 11
6010717.61
 21
6568857.8
 31
0.0
  0
HATCH
  5
1B5
330
17
100
AcDbEntity
  8
0
 62
1
100
AcDbHatch
 10
0.0
 20
0.0
 30
0.0
210
0.0
220
0.0
230
1.0
  2
SOLID
 70
1
 71
0
 91
1
 92
1
 93
1
 72
3
 10
6010715.55
 20
6568857.83
 11
0.0
 21
0.005
 40
1
 50
0.0
 51
360.0
 73
0
 97
0
 75
0
 76
1
 98
0
  0
LINE
  5
1B6
330
17
100
AcDbEntity
  8
0
100
AcDbLine
 10
6010715.61
 20
6568857.9
 30
0.0
 11
6010715.55
 21
6568857.83
 31
0.0
  0
LINE
  5
1B7
330
17
100
AcDbEntity
  8
0
 62
4
100
AcDbLine
 10
6010715.61
 20
6568857.9
 30
0.0
 11
6010715.55
 21
6568857.9
 31
0.0
  0
LINE
  5
1B8
330
17
100
AcDbEntity
  8
0
 62
2
100
AcDbLine
 10
6010715.61
 20
6568857.9
 30
0.0
 11
6010715.61
 21
6568857.83
 31
0.0
  0
HATCH
  5
1B9
330
17
100
AcDbEntity
  8
0
 62
1
100
AcDbHatch
 10
0.0
 20
0.0
 30
0.0
210
0.0
220
0.0
230
1.0
  2
SOLID
 70
1
 71
0
 91
1
 92
1
 93
1
 72
3
 10
6010713.58
 20
6568858.0
 11
0.0
 21
0.005
 40
1
 50
0.0
 51
360.0
 73
0
 97
0
 75
0
 76
1
 98
0
  0
LINE
  5
1BA
330
17
100
AcDbEntity
  8
0
100
AcDbLine
 10
6010713.61
 20
6568857.98
 30
0.0
 11
6010713.58
 21
6568858.0
 31
0.0
  0
LINE
  5
1BB
330
17
100
AcDbEntity
  8
0
 62
4
100
AcDbLine
 10
6010713.61
 20
6568857.98
 30
0.0
 11
6010713.58
 21
6568857.98
 31
0.0
  0
LINE
  5
1BC
330
17
100
AcDbEntity
  8
0
 62
2
100
AcDbLine
 10
6010713.61
 20
6568857.98
 30
0.0
 11
6010713.61
 21
6568858.0
 31
0.0
  0
HATCH
  5
1BD
330
17
100
AcDbEntity
  8
0
 62
1
100
AcDbHatch
 10
0.0
 20
0.0
 30
0.0
210
0.0
220
0.0
230
1.0
  2
SOLID
 70
1
 71
0
 91
1
 92
1
 93
1
 72
3
 10
6010719.75
 20
6568860.05
 11
0.0
 21
0.005
 40
1
 50
0.0
 51
360.0
 73
0
 97
0
 75
0
 76
1
 98
0
  0
LINE
  5
1BE
330
17
100
AcDbEntity
  8
0
100
AcDbLine
 10
6010719.7
 20
6568860.14
 30
0.0
 11
6010719.75
 21
6568860.05
 31
0.0
  0
LINE
  5
1BF
330
17
100
AcDbEntity
  8
0
 62
4
100
AcDbLine
 10
6010719.7
 20
6568860.14
 30
0.0
 11
6010719.75
 21
6568860.14
 31
0.0
  0
LINE
  5
1C0
330
17
100
AcDbEntity
  8
0
 62
2
100
AcDbLine
 10
6010719.7
 20
6568860.14
 30
0.0
 11
6010719.7
 21
6568860.05
 31
0.0
  0
HATCH
  5
1C1
330
17
100
AcDbEntity
  8
0
 62
1
100
AcDbHatch
 10
0.0
 20
0.0
 30
0.0
210
0.0
220
0.0
230
1.0
  2
SOLID
 70
1
 71
0
 91
1
 92
1
 93
1
 72
3
 10
6010717.61
 20
6568860.19
 11
0.0
 21
0.005
 40
1
 50
0.0
 51
360.0
 73
0
 97
0
 75
0
 76
1
 98
0
  0
LINE
  5
1C2
330
17
100
AcDbEntity
  8
0
100
AcDbLine
 10
6010717.7
 20
6568860.22
 30
0.0
 11
6010717.61
 21
6568860.19
 31
0.0
  0
LINE
  5
1C3
330
17
100
AcDbEntity
  8
0
 62
4
100
AcDbLine
 10
6010717.7
 20
6568860.22
 30
0.0
 11
6010717.61
 21
6568860.22
 31
0.0
  0
LINE
  5
1C4
330
17
100
AcDbEntity
  8
0
 62
2
100
AcDbLine
 10
6010717.7
 20
6568860.22
 30
0.0
 11
6010717.7
 21
6568860.19
 31
0.0
  0
HATCH
  5
1C5
330
17
100
AcDbEntity
  8
0
 62
1
100
AcDbHatch
 10
0.0
 20
0.0
 30
0.0
210
0.0
220
0.0
230
1.0
  2
SOLID
 70
1
 71
0
 91
1
 92
1
 93
1
 72
3
 10
6010715.63
 20
6568860.24
 11
0.0
 21
0.005
 40
1
 50
0.0
 51
360.0
 73
0
 97
0
 75
0
 76
1
 98
0
  0
LINE
  5
1C6
330
17
100
AcDbEntity
  8
0
100
AcDbLine
 10
6010715.7
 20
6568860.3
 30
0.0
 11
6010715.63
 21
6568860.24
 31
0.0
  0
LINE
  5
1C7
330
17
100
AcDbEntity
  8
0
 62
4
100
AcDbLine
 10
6010715.7
 20
6568860.3
 30
0.0
 11
6010715.63
 21
6568860.3
 31
0.0
  0
LINE
  5
1C8
330
17
100
AcDbEntity
  8
0
 62
2
100
AcDbLine
 10
6010715.7
 20
6568860.3
 30
0.0
 11
6010715.7
 21
6568860.24
 31
0.0
  0
HATCH
  5
1C9
330
17
100
AcDbEntity
  8
0
 62
1
100
AcDbHatch
 10
0.0
 20
0.0
 30
0.0
210
0.0
220
0.0
230
1.0
  2
SOLID
 70
1
 71
0
 91
1
 92
1
 93
1
 72
3
 10
6010713.79
 20
6568860.38
 11
0.0
 21
0.005
 40
1
 50
0.0
 51
360.0
 73
0
 97
0
 75
0
 76
1
 98
0
  0
LINE
  5
1CA
330
17
100
AcDbEntity
  8
0
100
AcDbLine
 10
6010713.7
 20
6568860.38
 30
0.0
 11
6010713.79
 21
6568860.38
 31
0.0
  0
LINE
  5
1CB
330
17
100
AcDbEntity
  8
0
 62
4
100
AcDbLine
 10
6010713.7
 20
6568860.38
 30
0.0
 11
6010713.79
 21
6568860.38
 31
0.0
  0
LINE
  5
1CC
330
17
100
AcDbEntity
  8
0
 62
2
100
AcDbLine
 10
6010713.7
 20
6568860.38
 30
0.0
 11
6010713.7
 21
6568860.38
 31
0.0
  0
HATCH
  5
1CD
330
17
100
AcDbEntity
  8
0
 62
1
100
AcDbHatch
 10
0.0
 20
0.0
 30
0.0
210
0.0
220
0.0
230
1.0
  2
SOLID
 70
1
 71
0
 91
1
 92
1
 93
1
 72
3
 10
6010719.78
 20
6568862.45
 11
0.0
 21
0.005
 40
1
 50
0.0
 51
360.0
 73
0
 97
0
 75
0
 76
1
 98
0
  0
LINE
  5
1CE
330
17
100
AcDbEntity
  8
0
100
AcDbLine
 10
6010719.79
 20
6568862.54
 30
0.0
 11
6010719.78
 21
6568862.45
 31
0.0
  0
LINE
  5
1CF
330
17
100
AcDbEntity
  8
0
 62
4
100
AcDbLine
 10
6010719.79
 20
6568862.54
 30
0.0
 11
6010719.78
 21
6568862.54
 31
0.0
  0
LINE
  5
1D0
330
17
100
AcDbEntity
  8
0
 62
2
100
AcDbLine
 10
6010719.79
 20
6568862.54
 30
0.0
 11
6010719.79
 21
6568862.45
 31
0.0
  0
HATCH
  5
1D1
330
17
100
AcDbEntity
  8
0
 62
1
100
AcDbHatch
 10
0.0
 20
0.0
 30
0.0
210
0.0
220
0.0
230
1.0
  2
SOLID
 70
1
 71
0
 91
1
 92
1
 93
1
 72
3
 10
6010717.85
 20
6568862.54
 11
0.0
 21
0.005
 40
1
 50
0.0
 51
360.0
 73
0
 97
0
 75
0
 76
1
 98
0
  0
LINE
  5
1D2
330
17
100
AcDbEntity
  8
0
100
AcDbLine
 10
6010717.8
 20
6568862.62
 30
0.0
 11
6010717.85
 21
6568862.54
 31
0.0
  0
LINE
  5
1D3
330
17
100
AcDbEntity
  8
0
 62
4
100
AcDbLine
 10
6010717.8
 20
6568862.62
 30
0.0
 11
6010717.85
 21
6568862.62
 31
0.0
  0
LINE
  5
1D4
330
17
100
AcDbEntity
  8
0
 62
2
100
AcDbLine
 10
6010717.8
 20
6568862.62
 30
0.0
 11
6010717.8
 21
6568862.54
 31
0.0
  0
HATCH
  5
1D5
330
17
100
AcDbEntity
  8
0
 62
1
100
AcDbHatch
 10
0.0
 20
0.0
 30
0.0
210
0.0
220
0.0
230
1.0
  2
SOLID
 70
1
 71
0
 91
1
 92
1
 93
1
 72
3
 10
6010715.88
 20
6568862.66
 11
0.0
 21
0.005
 40
1
 50
0.0
 51
360.0
 73
0
 97
0
 75
0
 76
1
 98
0
  0
LINE
  5
1D6
330
17
100
AcDbEntity
  8
0
100
AcDbLine
 10
6010715.8
 20
6568862.7
 30
0.0
 11
6010715.88
 21
6568862.66
 31
0.0
  0
LINE
  5
1D7
330
17
100
AcDbEntity
  8
0
 62
4
100
AcDbLine
 10
6010715.8
 20
6568862.7
 30
0.0
 11
6010715.88
 21
6568862.7
 31
0.0
  0
LINE
  5
1D8
330
17
100
AcDbEntity
  8
0
 62
2
100
AcDbLine
 10
6010715.8
 20
6568862.7
 30
0.0
 11
6010715.8
 21
6568862.66
 31
0.0
  0
HATCH
  5
1D9
330
17
100
AcDbEntity
  8
0
 62
1
100
AcDbHatch
 10
0.0
 20
0.0
 30
0.0
210
0.0
220
0.0
230
1.0
  2
SOLID
 70
1
 71
0
 91
1
 92
1
 93
1
 72
3
 10
6010713.74
 20
6568862.71
 11
0.0
 21
0.005
 40
1
 50
0.0
 51
360.0
 73
0
 97
0
 75
0
 76
1
 98
0
  0
LINE
  5
1DA
330
17
100
AcDbEntity
  8
0
100
AcDbLine
 10
6010713.8
 20
6568862.77
 30
0.0
 11
6010713.74
 21
6568862.71
 31
0.0
  0
LINE
  5
1DB
330
17
100
AcDbEntity
  8
0
 62
4
100
AcDbLine
 10
6010713.8
 20
6568862.77
 30
0.0
 11
6010713.74
 21
6568862.77
 31
0.0
  0
LINE
  5
1DC
330
17
100
AcDbEntity
  8
0
 62
2
100
AcDbLine
 10
6010713.8
 20
6568862.77
 30
0.0
 11
6010713.8
 21
6568862.71
 31
0.0
  0
HATCH
  5
1DD
330
17
100
AcDbEntity
  8
0
 62
1
100
AcDbHatch
 10
0.0
 20
0.0
 30
0.0
210
0.0
220
0.0
230
1.0
  2
SOLID
 70
1
 71
0
 91
1
 92
1
 93
1
 72
3
 10
6010720.88
 20
6568892.03
 11
0.0
 21
0.005
 40
1
 50
0.0
 51
360.0
 73
0
 97
0
 75
0
 76
1
 98
0
  0
LINE
  5
1DE
330
17
100
AcDbEntity
  8
0
100
AcDbLine
 10
6010720.95
 20
6568892.1
 30
0.0
 11
6010720.88
 21
6568892.03
 31
0.0
  0
LINE
  5
1DF
330
17
100
AcDbEntity
  8
0
 62
4
100
AcDbLine
 10
6010720.95
 20
6568892.1
 30
0.0
 11
6010720.88
 21
6568892.1
 31
0.0
  0
LINE
  5
1E0
330
17
100
AcDbEntity
  8
0
 62
2
100
AcDbLine
 10
6010720.95
 20
6568892.1
 30
0.0
 11
6010720.95
 21
6568892.03
 31
0.0
  0
HATCH
  5
1E1
330
17
100
AcDbEntity
  8
0
 62
1
100
AcDbHatch
 10
0.0
 20
0.0
 30
0.0
210
0.0
220
0.0
230
1.0
  2
SOLID
 70
1
 71
0
 91
1
 92
1
 93
1
 72
3
 10
6010718.88
 20
6568892.15
 11
0.0
 21
0.005
 40
1
 50
0.0
 51
360.0
 73
0
 97
0
 75
0
 76
1
 98
0
  0
LINE
  5
1E2
330
17
100
AcDbEntity
  8
0
100
AcDbLine
 10
6010718.95
 20
6568892.18
 30
0.0
 11
6010718.88
 21
6568892.15
 31
0.0
  0
LINE
  5
1E3
330
17
100
AcDbEntity
  8
0
 62
4
100
AcDbLine
 10
6010718.95
 20
6568892.18
 30
0.0
 11
6010718.88
 21
6568892.18
 31
0.0
  0
LINE
  5
1E4
330
17
100
AcDbEntity
  8
0
 62
2
100
AcDbLine
 10
6010718.95
 20
6568892.18
 30
0.0
 11
6010718.95
 21
6568892.15
 31
0.0
  0
HATCH
  5
1E5
330
17
100
AcDbEntity
  8
0
 62
1
100
AcDbHatch
 10
0.0
 20
0.0
 30
0.0
210
0.0
220
0.0
230
1.0
  2
SOLID
 70
1
 71
0
 91
1
 92
1
 93
1
 72
3
 10
6010716.85
 20
6568892.24
 11
0.0
 21
0.005
 40
1
 50
0.0
 51
360.0
 73
0
 97
0
 75
0
 76
1
 98
0
  0
LINE
  5
1E6
330
17
100
AcDbEntity
  8
0
100
AcDbLine
 10
6010716.95
 20
6568892.26
 30
0.0
 11
6010716.85
 21
6568892.24
 31
0.0
  0
LINE
  5
1E7
330
17
100
AcDbEntity
  8
0
 62
4
100
AcDbLine
 10
6010716.95
 20
6568892.26
 30
0.0
 11
6010716.85
 21
6568892.26
 31
0.0
  0
LINE
  5
1E8
330
17
100
AcDbEntity
  8
0
 62
2
100
AcDbLine
 10
6010716.95
 20
6568892.26
 30
0.0
 11
6010716.95
 21
6568892.24
 31
0.0
  0
HATCH
  5
1E9
330
17
100
AcDbEntity
  8
0
 62
1
100
AcDbHatch
 10
0.0
 20
0.0
 30
0.0
210
0.0
220
0.0
230
1.0
  2
SOLID
 70
1
 71
0
 91
1
 92
1
 93
1
 72
3
 10
6010714.86
 20
6568892.29
 11
0.0
 21
0.005
 40
1
 50
0.0
 51
360.0
 73
0
 97
0
 75
0
 76
1
 98
0
  0
LINE
  5
1EA
330
17
100
AcDbEntity
  8
0
100
AcDbLine
 10
6010714.96
 20
6568892.33
 30
0.0
 11
6010714.86
 21
6568892.29
 31
0.0
  0
LINE
  5
1EB
330
17
100
AcDbEntity
  8
0
 62
4
100
AcDbLine
 10
6010714.96
 20
6568892.33
 30
0.0
 11
6010714.86
 21
6568892.33
 31
0.0
  0
LINE
  5
1EC
330
17
100
AcDbEntity
  8
0
 62
2
100
AcDbLine
 10
6010714.96
 20
6568892.33
 30
0.0
 11
6010714.96
 21
6568892.29
 31
0.0
  0
HATCH
  5
1ED
330
17
100
AcDbEntity
  8
0
 62
1
100
AcDbHatch
 10
0.0
 20
0.0
 30
0.0
210
0.0
220
0.0
230
1.0
  2
SOLID
 70
1
 71
0
 91
1
 92
1
 93
1
 72
3
 10
6010720.94
 20
6568894.24
 11
0.0
 21
0.005
 40
1
 50
0.0
 51
360.0
 73
0
 97
0
 75
0
 76
1
 98
0
  0
LINE
  5
1EE
330
17
100
AcDbEntity
  8
0
100
AcDbLine
 10
6010721.03
 20
6568894.25
 30
0.0
 11
6010720.94
 21
6568894.24
 31
0.0
  0
LINE
  5
1EF
330
17
100
AcDbEntity
  8
0
 62
4
100
AcDbLine
 10
6010721.03
 20
6568894.25
 30
0.0
 11
6010720.94
 21
6568894.25
 31
0.0
  0
LINE
  5
1F0
330
17
100
AcDbEntity
  8
0
 62
2
100
AcDbLine
 10
6010721.03
 20
6568894.25
 30
0.0
 11
6010721.03
 21
6568894.24
 31
0.0
  0
HATCH
  5
1F1
330
17
100
AcDbEntity
  8
0
 62
1
100
AcDbHatch
 10
0.0
 20
0.0
 30
0.0
210
0.0
220
0.0
230
1.0
  2
SOLID
 70
1
 71
0
 91
1
 92
1
 93
1
 72
3
 10
6010718.96
 20
6568894.27
 11
0.0
 21
0.005
 40
1
 50
0.0
 51
360.0
 73
0
 97
0
 75
0
 76
1
 98
0
  0
LINE
  5
1F2
330
17
100
AcDbEntity
  8
0
100
AcDbLine
 10
6010719.04
 20
6568894.33
 30
0.0
 11
6010718.96
 21
6568894.27
 31
0.0
  0
LINE
  5
1F3
330
17
100
AcDbEntity
  8
0
 62
4
100
AcDbLine
 10
6010719.04
 20
6568894.33
 30
0.0
 11
6010718.96
 21
6568894.33
 31
0.0
  0
LINE
  5
1F4
330
17
100
AcDbEntity
  8
0
 62
2
100
AcDbLine
 10
6010719.04
 20
6568894.33
 30
0.0
 11
6010719.04
 21
6568894.27
 31
0.0
  0
HATCH
  5
1F5
330
17
100
AcDbEntity
  8
0
 62
1
100
AcDbHatch
 10
0.0
 20
0.0
 30
0.0
210
0.0
220
0.0
230
1.0
  2
SOLID
 70
1
 71
0
 91
1
 92
1
 93
1
 72
3
 10
6010716.98
 20
6568894.34
 11
0.0
 21
0.005
 40
1
 50
0.0
 51
360.0
 73
0
 97
0
 75
0
 76
1
 98
0
  0
LINE
  5
1F6
330
17
100
AcDbEntity
  8
0
100
AcDbLine
 10
6010717.04
 20
6568894.4
 30
0.0
 11
6010716.98
 21
6568894.34
 31
0.0
  0
LINE
  5
1F7
330
17
100
AcDbEntity
  8
0
 62
4
100
AcDbLine
 10
6010717.04
 20
6568894.4
 30
0.0
 11
6010716.98
 21
6568894.4
 31
0.0
  0
LINE
  5
1F8
330
17
100
AcDbEntity
  8
0
 62
2
100
AcDbLine
 10
6010717.04
 20
6568894.4
 30
0.0
 11
6010717.04
 21
6568894.34
 31
0.0
  0
HATCH
  5
1F9
330
17
100
AcDbEntity
  8
0
 62
1
100
AcDbHatch
 10
0.0
 20
0.0
 30
0.0
210
0.0
220
0.0
230
1.0
  2
SOLID
 70
1
 71
0
 91
1
 92
1
 93
1
 72
3
 10
6010714.99
 20
6568894.48
 11
0.0
 21
0.005
 40
1
 50
0.0
 51
360.0
 73
0
 97
0
 75
0
 76
1
 98
0
  0
LINE
  5
1FA
330
17
100
AcDbEntity
  8
0
100
AcDbLine
 10
6010715.04
 20
6568894.48
 30
0.0
 11
6010714.99
 21
6568894.48
 31
0.0
  0
LINE
  5
1FB
330
17
100
AcDbEntity
  8
0
 62
4
100
AcDbLine
 10
6010715.04
 20
6568894.48
 30
0.0
 11
6010714.99
 21
6568894.48
 31
0.0
  0
LINE
  5
1FC
330
17
100
AcDbEntity
  8
0
 62
2
100
AcDbLine
 10
6010715.04
 20
6568894.48
 30
0.0
 11
6010715.04
 21
6568894.48
 31
0.0
  0
HATCH
  5
1FD
330
17
100
AcDbEntity
  8
0
 62
1
100
AcDbHatch
 10
0.0
 20
0.0
 30
0.0
210
0.0
220
0.0
230
1.0
  2
SOLID
 70
1
 71
0
 91
1
 92
1
 93
1
 72
3
 10
6010721.14
 20
6568896.33
 11
0.0
 21
0.005
 40
1
 50
0.0
 51
360.0
 73
0
 97
0
 75
0
 76
1
 98
0
  0
LINE
  5
1FE
330
17
100
AcDbEntity
  8
0
100
AcDbLine
 10
6010721.12
 20
6568896.4
 30
0.0
 11
6010721.14
 21
6568896.33
 31
0.0
  0
LINE
  5
1FF
330
17
100
AcDbEntity
  8
0
 62
4
100
AcDbLine
 10
6010721.12
 20
6568896.4
 30
0.0
 11
6010721.14
 21
6568896.4
 31
0.0
  0
LINE
  5
200
330
17
100
AcDbEntity
  8
0
 62
2
100
AcDbLine
 10
6010721.12
 20
6568896.4
 30
0.0
 11
6010721.12
 21
6568896.33
 31
0.0
  0
HATCH
  5
201
330
17
100
AcDbEntity
  8
0
 62
1
100
AcDbHatch
 10
0.0
 20
0.0
 30
0.0
210
0.0
220
0.0
230
1.0
  2
SOLID
 70
1
 71
0
 91
1
 92
1
 93
1
 72
3
 10
6010719.12
 20
6568896.5
 11
0.0
 21
0.005
 40
1
 50
0.0
 51
360.0
 73
0
 97
0
 75
0
 76
1
 98
0
  0
LINE
  5
202
330
17
100
AcDbEntity
  8
0
100
AcDbLine
 10
6010719.12
 20
6568896.47
 30
0.0
 11
6010719.12
 21
6568896.5
 31
0.0
  0
LINE
  5
203
330
17
100
AcDbEntity
  8
0
 62
4
100
AcDbLine
 10
6010719.12
 20
6568896.47
 30
0.0
 11
6010719.12
 21
6568896.47
 31
0.0
  0
LINE
  5
204
330
17
100
AcDbEntity
  8
0
 62
2
100
AcDbLine
 10
6010719.12
 20
6568896.47
 30
0.0
 11
6010719.12
 21
6568896.5
 31
0.0
  0
HATCH
  5
205
330
17
100
AcDbEntity
  8
0
 62
1
100
AcDbHatch
 10
0.0
 20
0.0
 30
0.0
210
0.0
220
0.0
230
1.0
  2
SOLID
 70
1
 71
0
 91
1
 92
1
 93
1
 72
3
 10
6010717.17
 20
6568896.59
 11
0.0
 21
0.005
 40
1
 50
0.0
 51
360.0
 73
0
 97
0
 75
0
 76
1
 98
0
  0
LINE
  5
206
330
17
100
AcDbEntity
  8
0
100
AcDbLine
 10
6010717.12
 20
6568896.55
 30
0.0
 11
6010717.17
 21
6568896.59
 31
0.0
  0
LINE
  5
207
330
17
100
AcDbEntity
  8
0
 62
4
100
AcDbLine
 10
6010717.12
 20
6568896.55
 30
0.0
 11
6010717.17
 21
6568896.55
 31
0.0
  0
LINE
  5
208
330
17
100
AcDbEntity
  8
0
 62
2
100
AcDbLine
 10
6010717.12
 20
6568896.55
 30
0.0
 11
6010717.12
 21
6568896.59
 31
0.0
  0
HATCH
  5
209
330
17
100
AcDbEntity
  8
0
 62
1
100
AcDbHatch
 10
0.0
 20
0.0
 30
0.0
210
0.0
220
0.0
230
1.0
  2
SOLID
 70
1
 71
0
 91
1
 92
1
 93
1
 72
3
 10
6010715.09
 20
6568896.54
 11
0.0
 21
0.005
 40
1
 50
0.0
 51
360.0
 73
0
 97
0
 75
0
 76
1
 98
0
  0
LINE
  5
20A
330
17
100
AcDbEntity
  8
0
100
AcDbLine
 10
6010715.12
 20
6568896.63
 30
0.0
 11
6010715.09
 21
6568896.54
 31
0.0
  0
LINE
  5
20B
330
17
100
AcDbEntity
  8
0
 62
4
100
AcDbLine
 10
6010715.12
 20
6568896.63
 30
0.0
 11
6010715.09
 21
6568896.63
 31
0.0
  0
LINE
  5
20C
330
17
100
AcDbEntity
  8
0
 62
2
100
AcDbLine
 10
6010715.12
 20
6568896.63
 30
0.0
 11
6010715.12
 21
6568896.54
 31
0.0
  0
HATCH
  5
20D
330
17
100
AcDbEntity
  8
0
 62
1
100
AcDbHatch
 10
0.0
 20
0.0
 30
0.0
210
0.0
220
0.0
230
1.0
  2
SOLID
 70
1
 71
0
 91
1
 92
1
 93
1
 72
3
 10
6010721.16
 20
6568898.46
 11
0.0
 21
0.005
 40
1
 50
0.0
 51
360.0
 73
0
 97
0
 75
0
 76
1
 98
0
  0
LINE
  5
20E
330
17
100
AcDbEntity
  8
0
100
AcDbLine
 10
6010721.2
 20
6568898.54
 30
0.0
 11
6010721.16
 21
6568898.46
 31
0.0
  0
LINE
  5
20F
330
17
100
AcDbEntity
  8
0
 62
4
100
AcDbLine
 10
6010721.2
 20
6568898.54
 30
0.0
 11
6010721.16
 21
6568898.54
 31
0.0
  0
LINE
  5
210
330
17
100
AcDbEntity
  8
0
 62
2
100
AcDbLine
 10
6010721.2
 20
6568898.54
 30
0.0
 11
6010721.2
 21
6568898.46
 31
0.0
  0
HATCH
  5
211
330
17
100
AcDbEntity
  8
0
 62
1
100
AcDbHatch
 10
0.0
 20
0.0
 30
0.0
210
0.0
220
0.0
230
1.0
  2
SOLID
 70
1
 71
0
 91
1
 92
1
 93
1
 72
3
 10
6010719.3
 20
6568898.63
 11
0.0
 21
0.005
 40
1
 50
0.0
 51
360.0
 73
0
 97
0
 75
0
 76
1
 98
0
  0
LINE
  5
212
330
17
100
AcDbEntity
  8
0
100
AcDbLine
 10
6010719.2
 20
6568898.62
 30
0.0
 11
6010719.3
 21
6568898.63
 31
0.0
  0
LINE
  5
213
330
17
100
AcDbEntity
  8
0
 62
4
100
AcDbLine
 10
6010719.2
 20
6568898.62
 30
0.0
 11
6010719.3
 21
6568898.62
 31
0.0
  0
LINE
  5
214
330
17
100
AcDbEntity
  8
0
 62
2
100
AcDbLine
 10
6010719.2
 20
6568898.62
 30
0.0
 11
6010719.2
 21
6568898.63
 31
0.0
  0
HATCH
  5
215
330
17
100
AcDbEntity
  8
0
 62
1
100
AcDbHatch
 10
0.0
 20
0.0
 30
0.0
210
0.0
220
0.0
230
1.0
  2
SOLID
 70
1
 71
0
 91
1
 92
1
 93
1
 72
3
 10
6010717.11
 20
6568898.67
 11
0.0
 21
0.005
 40
1
 50
0.0
 51
360.0
 73
0
 97
0
 75
0
 76
1
 98
0
  0
LINE
  5
216
330
17
100
AcDbEntity
  8
0
100
AcDbLine
 10
6010717.21
 20
6568898.7
 30
0.0
 11
6010717.11
 21
6568898.67
 31
0.0
  0
LINE
  5
217
330
17
100
AcDbEntity
  8
0
 62
4
100
AcDbLine
 10
6010717.21
 20
6568898.7
 30
0.0
 11
6010717.11
 21
6568898.7
 31
0.0
  0
LINE
  5
218
330
17
100
AcDbEntity
  8
0
 62
2
100
AcDbLine
 10
6010717.21
 20
6568898.7
 30
0.0
 11
6010717.21
 21
6568898.67
 31
0.0
  0
HATCH
  5
219
330
17
100
AcDbEntity
  8
0
 62
1
100
AcDbHatch
 10
0.0
 20
0.0
 30
0.0
210
0.0
220
0.0
230
1.0
  2
SOLID
 70
1
 71
0
 91
1
 92
1
 93
1
 72
3
 10
6010715.14
 20
6568898.72
 11
0.0
 21
0.005
 40
1
 50
0.0
 51
360.0
 73
0
 97
0
 75
0
 76
1
 98
0
  0
LINE
  5
21A
330
17
100
AcDbEntity
  8
0
100
AcDbLine
 10
6010715.21
 20
6568898.78
 30
0.0
 11
6010715.14
 21
6568898.72
 31
0.0
  0
LINE
  5
21B
330
17
100
AcDbEntity
  8
0
 62
4
100
AcDbLine
 10
6010715.21
 20
6568898.78
 30
0.0
 11
6010715.14
 21
6568898.78
 31
0.0
  0
LINE
  5
21C
330
17
100
AcDbEntity
  8
0
 62
2
100
AcDbLine
 10
6010715.21
 20
6568898.78
 30
0.0
 11
6010715.21
 21
6568898.72
 31
0.0
  0
HATCH
  5
21D
330
17
100
AcDbEntity
  8
0
 62
1
100
AcDbHatch
 10
0.0
 20
0.0
 30
0.0
210
0.0
220
0.0
230
1.0
  2
SOLID
 70
1
 71
0
 91
1
 92
1
 93
1
 72
3
 10
6010721.34
 20
6568900.62
 11
0.0
 21
0.005
 40
1
 50
0.0
 51
360.0
 73
0
 97
0
 75
0
 76
1
 98
0
  0
LINE
  5
21E
330
17
100
AcDbEntity
  8
0
100
AcDbLine
 10
6010721.29
 20
6568900.69
 30
0.0
 11
6010721.34
 21
6568900.62
 31
0.0
  0
LINE
  5
21F
330
17
100
AcDbEntity
  8
0
 62
4
100
AcDbLine
 10
6010721.29
 20
6568900.69
 30
0.0
 11
6010721.34
 21
6568900.69
 31
0.0
  0
LINE
  5
220
330
17
100
AcDbEntity
  8
0
 62
2
100
AcDbLine
 10
6010721.29
 20
6568900.69
 30
0.0
 11
6010721.29
 21
6568900.62
 31
0.0
  0
HATCH
  5
221
330
17
100
AcDbEntity
  8
0
 62
1
100
AcDbHatch
 10
0.0
 20
0.0
 30
0.0
210
0.0
220
0.0
230
1.0
  2
SOLID
 70
1
 71
0
 91
1
 92
1
 93
1
 72
3
 10
6010719.23
 20
6568900.7
 11
0.0
 21
0.005
 40
1
 50
0.0
 51
360.0
 73
0
 97
0
 75
0
 76
1
 98
0
  0
LINE
  5
222
330
17
100
AcDbEntity
  8
0
100
AcDbLine
 10
6010719.29
 20
6568900.77
 30
0.0
 11
6010719.23
 21
6568900.7
 31
0.0
  0
LINE
  5
223
330
17
100
AcDbEntity
  8
0
 62
4
100
AcDbLine
 10
6010719.29
 20
6568900.77
 30
0.0
 11
6010719.23
 21
6568900.77
 31
0.0
  0
LINE
  5
224
330
17
100
AcDbEntity
  8
0
 62
2
100
AcDbLine
 10
6010719.29
 20
6568900.77
 30
0.0
 11
6010719.29
 21
6568900.7
 31
0.0
  0
HATCH
  5
225
330
17
100
AcDbEntity
  8
0
 62
1
100
AcDbHatch
 10
0.0
 20
0.0
 30
0.0
210
0.0
220
0.0
230
1.0
  2
SOLID
 70
1
 71
0
 91
1
 92
1
 93
1
 72
3
 10
6010717.3
 20
6568900.8
 11
0.0
 21
0.005
 40
1
 50
0.0
 51
360.0
 73
0
 97
0
 75
0
 76
1
 98
0
  0
LINE
  5
226
330
17
100
AcDbEntity
  8
0
100
AcDbLine
 10
6010717.29
 20
6568900.85
 30
0.0
 11
6010717.3
 21
6568900.8
 31
0.0
  0
LINE
  5
227
330
17
100
AcDbEntity
  8
0
 62
4
100
AcDbLine
 10
6010717.29
 20
6568900.85
 30
0.0
 11
6010717.3
 21
6568900.85
 31
0.0
  0
LINE
  5
228
330
17
100
AcDbEntity
  8
0
 62
2
100
AcDbLine
 10
6010717.29
 20
6568900.85
 30
0.0
 11
6010717.29
 21
6568900.8
 31
0.0
  0
HATCH
  5
229
330
17
100
AcDbEntity
  8
0
 62
1
100
AcDbHatch
 10
0.0
 20
0.0
 30
0.0
210
0.0
220
0.0
230
1.0
  2
SOLID
 70
1
 71
0
 91
1
 92
1
 93
1
 72
3
 10
6010715.2
 20
6568900.93
 11
0.0
 21
0.005
 40
1
 50
0.0
 51
360.0
 73
0
 97
0
 75
0
 76
1
 98
0
  0
LINE
  5
22A
330
17
100
AcDbEntity
  8
0
100
AcDbLine
 10
6010715.29
 20
6568900.93
 30
0.0
 11
6010715.2
 21
6568900.93
 31
0.0
  0
LINE
  5
22B
330
17
100
AcDbEntity
  8
0
 62
4
100
AcDbLine
 10
6010715.29
 20
6568900.93
 30
0.0
 11
6010715.2
 21
6568900.93
 31
0.0
  0
LINE
  5
22C
330
17
100
AcDbEntity
  8
0
 62
2
100
AcDbLine
 10
6010715.29
 20
6568900.93
 30
0.0
 11
6010715.29
 21
6568900.93
 31
0.0
  0
HATCH
  5
22D
330
17
100
AcDbEntity
  8
0
 62
1
100
AcDbHatch
 10
0.0
 20
0.0
 30
0.0
210
0.0
220
0.0
230
1.0
  2
SOLID
 70
1
 71
0
 91
1
 92
1
 93
1
 72
3
 10
6010721.31
 20
6568902.91
 11
0.0
 21
0.005
 40
1
 50
0.0
 51
360.0
 73
0
 97
0
 75
0
 76
1
 98
0
  0
LINE
  5
22E
330
17
100
AcDbEntity
  8
0
100
AcDbLine
 10
6010721.37
 20
6568902.84
 30
0.0
 11
6010721.31
 21
6568902.91
 31
0.0
  0
LINE
  5
22F
330
17
100
AcDbEntity
  8
0
 62
4
100
AcDbLine
 10
6010721.37
 20
6568902.84
 30
0.0
 11
6010721.31
 21
6568902.84
 31
0.0
  0
LINE
  5
230
330
17
100
AcDbEntity
  8
0
 62
2
100
AcDbLine
 10
6010721.37
 20
6568902.84
 30
0.0
 11
6010721.37
 21
6568902.91
 31
0.0
  0
HATCH
  5
231
330
17
100
AcDbEntity
  8
0
 62
1
100
AcDbHatch
 10
0.0
 20
0.0
 30
0.0
210
0.0
220
0.0
230
1.0
  2
SOLID
 70
1
 71
0
 91
1
 92
1
 93
1
 72
3
 10
6010719.3
 20
6568902.85
 11
0.0
 21
0.005
 40
1
 50
0.0
 51
360.0
 73
0
 97
0
 75
0
 76
1
 98
0
  0
LINE
  5
232
330
17
100
AcDbEntity
  8
0
100
AcDbLine
 10
6010719.37
 20
6568902.92
 30
0.0
 11
6010719.3
 21
6568902.85
 31
0.0
  0
LINE
  5
233
330
17
100
AcDbEntity
  8
0
 62
4
100
AcDbLine
 10
6010719.37
 20
6568902.92
 30
0.0
 11
6010719.3
 21
6568902.92
 31
0.0
  0
LINE
  5
234
330
17
100
AcDbEntity
  8
0
 62
2
100
AcDbLine
 10
6010719.37
 20
6568902.92
 30
0.0
 11
6010719.37
 21
6568902.85
 31
0.0
  0
HATCH
  5
235
330
17
100
AcDbEntity
  8
0
 62
1
100
AcDbHatch
 10
0.0
 20
0.0
 30
0.0
210
0.0
220
0.0
230
1.0
  2
SOLID
 70
1
 71
0
 91
1
 92
1
 93
1
 72
3
 10
6010717.47
 20
6568903.02
 11
0.0
 21
0.005
 40
1
 50
0.0
 51
360.0
 73
0
 97
0
 75
0
 76
1
 98
0
  0
LINE
  5
236
330
17
100
AcDbEntity
  8
0
100
AcDbLine
 10
6010717.37
 20
6568903.0
 30
0.0
 11
6010717.47
 21
6568903.02
 31
0.0
  0
LINE
  5
237
330
17
100
AcDbEntity
  8
0
 62
4
100
AcDbLine
 10
6010717.37
 20
6568903.0
 30
0.0
 11
6010717.47
 21
6568903.0
 31
0.0
  0
LINE
  5
238
330
17
100
AcDbEntity
  8
0
 62
2
100
AcDbLine
 10
6010717.37
 20
6568903.0
 30
0.0
 11
6010717.37
 21
6568903.02
 31
0.0
  0
HATCH
  5
239
330
17
100
AcDbEntity
  8
0
 62
1
100
AcDbHatch
 10
0.0
 20
0.0
 30
0.0
210
0.0
220
0.0
230
1.0
  2
SOLID
 70
1
 71
0
 91
1
 92
1
 93
1
 72
3
 10
6010715.34
 20
6568902.98
 11
0.0
 21
0.005
 40
1
 50
0.0
 51
360.0
 73
0
 97
0
 75
0
 76
1
 98
0
  0
LINE
  5
23A
330
17
100
AcDbEntity
  8
0
100
AcDbLine
 10
6010715.38
 20
6568903.08
 30
0.0
 11
6010715.34
 21
6568902.98
 31
0.0
  0
LINE
  5
23B
330
17
100
AcDbEntity
  8
0
 62
4
100
AcDbLine
 10
6010715.38
 20
6568903.08
 30
0.0
 11
6010715.34
 21
6568903.08
 31
0.0
  0
LINE
  5
23C
330
17
100
AcDbEntity
  8
0
 62
2
100
AcDbLine
 10
6010715.38
 20
6568903.08
 30
0.0
 11
6010715.38
 21
6568902.98
 31
0.0
  0
HATCH
  5
23D
330
17
100
AcDbEntity
  8
0
 62
1
100
AcDbHatch
 10
0.0
 20
0.0
 30
0.0
210
0.0
220
0.0
230
1.0
  2
SOLID
 70
1
 71
0
 91
1
 92
1
 93
1
 72
3
 10
6010721.39
 20
6568904.92
 11
0.0
 21
0.005
 40
1
 50
0.0
 51
360.0
 73
0
 97
0
 75
0
 76
1
 98
0
  0
LINE
  5
23E
330
17
100
AcDbEntity
  8
0
100
AcDbLine
 10
6010721.45
 20
6568904.99
 30
0.0
 11
6010721.39
 21
6568904.92
 31
0.0
  0
LINE
  5
23F
330
17
100
AcDbEntity
  8
0
 62
4
100
AcDbLine
 10
6010721.45
 20
6568904.99
 30
0.0
 11
6010721.39
 21
6568904.99
 31
0.0
  0
LINE
  5
240
330
17
100
AcDbEntity
  8
0
 62
2
100
AcDbLine
 10
6010721.45
 20
6568904.99
 30
0.0
 11
6010721.45
 21
6568904.92
 31
0.0
  0
HATCH
  5
241
330
17
100
AcDbEntity
  8
0
 62
1
100
AcDbHatch
 10
0.0
 20
0.0
 30
0.0
210
0.0
220
0.0
230
1.0
  2
SOLID
 70
1
 71
0
 91
1
 92
1
 93
1
 72
3
 10
6010719.37
 20
6568905.03
 11
0.0
 21
0.005
 40
1
 50
0.0
 51
360.0
 73
0
 97
0
 75
0
 76
1
 98
0
  0
LINE
  5
242
330
17
100
AcDbEntity
  8
0
100
AcDbLine
 10
6010719.46
 20
6568905.07
 30
0.0
 11
6010719.37
 21
6568905.03
 31
0.0
  0
LINE
  5
243
330
17
100
AcDbEntity
  8
0
 62
4
100
AcDbLine
 10
6010719.46
 20
6568905.07
 30
0.0
 11
6010719.37
 21
6568905.07
 31
0.0
  0
LINE
  5
244
330
17
100
AcDbEntity
  8
0
 62
2
100
AcDbLine
 10
6010719.46
 20
6568905.07
 30
0.0
 11
6010719.46
 21
6568905.03
 31
0.0
  0
HATCH
  5
245
330
17
100
AcDbEntity
  8
0
 62
1
100
AcDbHatch
 10
0.0
 20
0.0
 30
0.0
210
0.0
220
0.0
230
1.0
  2
SOLID
 70
1
 71
0
 91
1
 92
1
 93
1
 72
3
 10
6010717.55
 20
6568905.13
 11
0.0
 21
0.005
 40
1
 50
0.0
 51
360.0
 73
0
 97
0
 75
0
 76
1
 98
0
  0
LINE
  5
246
330
17
100
AcDbEntity
  8
0
100
AcDbLine
 10
6010717.46
 20
6568905.15
 30
0.0
 11
6010717.55
 21
6568905.13
 31
0.0
  0
LINE
  5
247
330
17
100
AcDbEntity
  8
0
 62
4
100
AcDbLine
 10
6010717.46
 20
6568905.15
 30
0.0
 11
6010717.55
 21
6568905.15
 31
0.0
  0
LINE
  5
248
330
17
100
AcDbEntity
  8
0
 62
2
100
AcDbLine
 10
6010717.46
 20
6568905.15
 30
0.0
 11
6010717.46
 21
6568905.13
 31
0.0
  0
HATCH
  5
249
330
17
100
AcDbEntity
  8
0
 62
1
100
AcDbHatch
 10
0.0
 20
0.0
 30
0.0
210
0.0
220
0.0
230
1.0
  2
SOLID
 70
1
 71
0
 91
1
 92
1
 93
1
 72
3
 10
6010715.37
 20
6568905.22
 11
0.0
 21
0.005
 40
1
 50
0.0
 51
360.0
 73
0
 97
0
 75
0
 76
1
 98
0
  0
LINE
  5
24A
330
17
100
AcDbEntity
  8
0
100
AcDbLine
 10
6010715.46
 20
6568905.22
 30
0.0
 11
6010715.37
 21
6568905.22
 31
0.0
  0
LINE
  5
24B
330
17
100
AcDbEntity
  8
0
 62
4
100
AcDbLine
 10
6010715.46
 20
6568905.22
 30
0.0
 11
6010715.37
 21
6568905.22
 31
0.0
  0
LINE
  5
24C
330
17
100
AcDbEntity
  8
0
 62
2
100
AcDbLine
 10
6010715.46
 20
6568905.22
 30
0.0
 11
6010715.46
 21
6568905.22
 31
0.0
  0
HATCH
  5
24D
330
17
100
AcDbEntity
  8
0
 62
1
100
AcDbHatch
 10
0.0
 20
0.0
 30
0.0
210
0.0
220
0.0
230
1.0
  2
SOLID
 70
1
 71
0
 91
1
 92
1
 93
1
 72
3
 10
6010721.56
 20
6568907.3
 11
0.0
 21
0.005
 40
1
 50
0.0
 51
360.0
 73
0
 97
0
 75
0
 76
1
 98
0
  0
LINE
  5
24E
330
17
100
AcDbEntity
  8
0
100
AcDbLine
 10
6010721.55
 20
6568907.39
 30
0.0
 11
6010721.56
 21
6568907.3
 31
0.0
  0
LINE
  5
24F
330
17
100
AcDbEntity
  8
0
 62
4
100
AcDbLine
 10
6010721.55
 20
6568907.39
 30
0.0
 11
6010721.56
 21
6568907.39
 31
0.0
  0
LINE
  5
250
330
17
100
AcDbEntity
  8
0
 62
2
100
AcDbLine
 10
6010721.55
 20
6568907.39
 30
0.0
 11
6010721.55
 21
6568907.3
 31
0.0
  0
HATCH
  5
251
330
17
100
AcDbEntity
  8
0
 62
1
100
AcDbHatch
 10
0.0
 20
0.0
 30
0.0
210
0.0
220
0.0
230
1.0
  2
SOLID
 70
1
 71
0
 91
1
 92
1
 93
1
 72
3
 10
6010719.46
 20
6568907.43
 11
0.0
 21
0.005
 40
1
 50
0.0
 51
360.0
 73
0
 97
0
 75
0
 76
1
 98
0
  0
LINE
  5
252
330
17
100
AcDbEntity
  8
0
100
AcDbLine
 10
6010719.55
 20
6568907.47
 30
0.0
 11
6010719.46
 21
6568907.43
 31
0.0
  0
LINE
  5
253
330
17
100
AcDbEntity
  8
0
 62
4
100
AcDbLine
 10
6010719.55
 20
6568907.47
 30
0.0
 11
6010719.46
 21
6568907.47
 31
0.0
  0
LINE
  5
254
330
17
100
AcDbEntity
  8
0
 62
2
100
AcDbLine
 10
6010719.55
 20
6568907.47
 30
0.0
 11
6010719.55
 21
6568907.43
 31
0.0
  0
HATCH
  5
255
330
17
100
AcDbEntity
  8
0
 62
1
100
AcDbHatch
 10
0.0
 20
0.0
 30
0.0
210
0.0
220
0.0
230
1.0
  2
SOLID
 70
1
 71
0
 91
1
 92
1
 93
1
 72
3
 10
6010717.64
 20
6568907.56
 11
0.0
 21
0.005
 40
1
 50
0.0
 51
360.0
 73
0
 97
0
 75
0
 76
1
 98
0
  0
LINE
  5
256
330
17
100
AcDbEntity
  8
0
100
AcDbLine
 10
6010717.55
 20
6568907.54
 30
0.0
 11
6010717.64
 21
6568907.56
 31
0.0
  0
LINE
  5
257
330
17
100
AcDbEntity
  8
0
 62
4
100
AcDbLine
 10
6010717.55
 20
6568907.54
 30
0.0
 11
6010717.64
 21
6568907.54
 31
0.0
  0
LINE
  5
258
330
17
100
AcDbEntity
  8
0
 62
2
100
AcDbLine
 10
6010717.55
 20
6568907.54
 30
0.0
 11
6010717.55
 21
6568907.56
 31
0.0
  0
HATCH
  5
259
330
17
100
AcDbEntity
  8
0
 62
1
100
AcDbHatch
 10
0.0
 20
0.0
 30
0.0
210
0.0
220
0.0
230
1.0
  2
SOLID
 70
1
 71
0
 91
1
 92
1
 93
1
 72
3
 10
6010715.55
 20
6568907.57
 11
0.0
 21
0.005
 40
1
 50
0.0
 51
360.0
 73
0
 97
0
 75
0
 76
1
 98
0
  0
LINE
  5
25A
330
17
100
AcDbEntity
  8
0
100
AcDbLine
 10
6010715.55
 20
6568907.62
 30
0.0
 11
6010715.55
 21
6568907.57
 31
0.0
  0
LINE
  5
25B
330
17
100
AcDbEntity
  8
0
 62
4
100
AcDbLine
 10
6010715.55
 20
6568907.62
 30
0.0
 11
6010715.55
 21
6568907.62
 31
0.0
  0
LINE
  5
25C
330
17
100
AcDbEntity
  8
0
 62
2
100
AcDbLine
 10
6010715.55
 20
6568907.62
 30
0.0
 11
6010715.55
 21
6568907.57
 31
0.0
  0
HATCH
  5
25D
330
17
100
AcDbEntity
  8
0
 62
1
100
AcDbHatch
 10
0.0
 20
0.0
 30
0.0
210
0.0
220
0.0
230
1.0
  2
SOLID
 70
1
 71
0
 91
1
 92
1
 93
1
 72
3
 10
6010721.57
 20
6568909.71
 11
0.0
 21
0.005
 40
1
 50
0.0
 51
360.0
 73
0
 97
0
 75
0
 76
1
 98
0
  0
LINE
  5
25E
330
17
100
AcDbEntity
  8
0
100
AcDbLine
 10
6010721.64
 20
6568909.79
 30
0.0
 11
6010721.57
 21
6568909.71
 31
0.0
  0
LINE
  5
25F
330
17
100
AcDbEntity
  8
0
 62
4
100
AcDbLine
 10
6010721.64
 20
6568909.79
 30
0.0
 11
6010721.57
 21
6568909.79
 31
0.0
  0
LINE
  5
260
330
17
100
AcDbEntity
  8
0
 62
2
100
AcDbLine
 10
6010721.64
 20
6568909.79
 30
0.0
 11
6010721.64
 21
6568909.71
 31
0.0
  0
HATCH
  5
261
330
17
100
AcDbEntity
  8
0
 62
1
100
AcDbHatch
 10
0.0
 20
0.0
 30
0.0
210
0.0
220
0.0
230
1.0
  2
SOLID
 70
1
 71
0
 91
1
 92
1
 93
1
 72
3
 10
6010719.57
 20
6568909.79
 11
0.0
 21
0.005
 40
1
 50
0.0
 51
360.0
 73
0
 97
0
 75
0
 76
1
 98
0
  0
LINE
  5
262
330
17
100
AcDbEntity
  8
0
100
AcDbLine
 10
6010719.64
 20
6568909.86
 30
0.0
 11
6010719.57
 21
6568909.79
 31
0.0
  0
LINE
  5
263
330
17
100
AcDbEntity
  8
0
 62
4
100
AcDbLine
 10
6010719.64
 20
6568909.86
 30
0.0
 11
6010719.57
 21
6568909.86
 31
0.0
  0
LINE
  5
264
330
17
100
AcDbEntity
  8
0
 62
2
100
AcDbLine
 10
6010719.64
 20
6568909.86
 30
0.0
 11
6010719.64
 21
6568909.79
 31
0.0
  0
HATCH
  5
265
330
17
100
AcDbEntity
  8
0
 62
1
100
AcDbHatch
 10
0.0
 20
0.0
 30
0.0
210
0.0
220
0.0
230
1.0
  2
SOLID
 70
1
 71
0
 91
1
 92
1
 93
1
 72
3
 10
6010717.58
 20
6568909.88
 11
0.0
 21
0.005
 40
1
 50
0.0
 51
360.0
 73
0
 97
0
 75
0
 76
1
 98
0
  0
LINE
  5
266
330
17
100
AcDbEntity
  8
0
100
AcDbLine
 10
6010717.64
 20
6568909.94
 30
0.0
 11
6010717.58
 21
6568909.88
 31
0.0
  0
LINE
  5
267
330
17
100
AcDbEntity
  8
0
 62
4
100
AcDbLine
 10
6010717.64
 20
6568909.94
 30
0.0
 11
6010717.58
 21
6568909.94
 31
0.0
  0
LINE
  5
268
330
17
100
AcDbEntity
  8
0
 62
2
100
AcDbLine
 10
6010717.64
 20
6568909.94
 30
0.0
 11
6010717.64
 21
6568909.88
 31
0.0
  0
HATCH
  5
269
330
17
100
AcDbEntity
  8
0
 62
1
100
AcDbHatch
 10
0.0
 20
0.0
 30
0.0
210
0.0
220
0.0
230
1.0
  2
SOLID
 70
1
 71
0
 91
1
 92
1
 93
1
 72
3
 10
6010715.58
 20
6568909.95
 11
0.0
 21
0.005
 40
1
 50
0.0
 51
360.0
 73
0
 97
0
 75
0
 76
1
 98
0
  0
LINE
  5
26A
330
17
100
AcDbEntity
  8
0
100
AcDbLine
 10
6010715.65
 20
6568910.02
 30
0.0
 11
6010715.58
 21
6568909.95
 31
0.0
  0
LINE
  5
26B
330
17
100
AcDbEntity
  8
0
 62
4
100
AcDbLine
 10
6010715.65
 20
6568910.02
 30
0.0
 11
6010715.58
 21
6568910.02
 31
0.0
  0
LINE
  5
26C
330
17
100
AcDbEntity
  8
0
 62
2
100
AcDbLine
 10
6010715.65
 20
6568910.02
 30
0.0
 11
6010715.65
 21
6568909.95
 31
0.0
  0
HATCH
  5
26D
330
17
100
AcDbEntity
  8
0
 62
1
100
AcDbHatch
 10
0.0
 20
0.0
 30
0.0
210
0.0
220
0.0
230
1.0
  2
SOLID
 70
1
 71
0
 91
1
 92
1
 93
1
 72
3
 10
6010721.75
 20
6568912.12
 11
0.0
 21
0.005
 40
1
 50
0.0
 51
360.0
 73
0
 97
0
 75
0
 76
1
 98
0
  0
LINE
  5
26E
330
17
100
AcDbEntity
  8
0
100
AcDbLine
 10
6010721.73
 20
6568912.18
 30
0.0
 11
6010721.75
 21
6568912.12
 31
0.0
  0
LINE
  5
26F
330
17
100
AcDbEntity
  8
0
 62
4
100
AcDbLine
 10
6010721.73
 20
6568912.18
 30
0.0
 11
6010721.75
 21
6568912.18
 31
0.0
  0
LINE
  5
270
330
17
100
AcDbEntity
  8
0
 62
2
100
AcDbLine
 10
6010721.73
 20
6568912.18
 30
0.0
 11
6010721.73
 21
6568912.12
 31
0.0
  0
HATCH
  5
271
330
17
100
AcDbEntity
  8
0
 62
1
100
AcDbHatch
 10
0.0
 20
0.0
 30
0.0
210
0.0
220
0.0
230
1.0
  2
SOLID
 70
1
 71
0
 91
1
 92
1
 93
1
 72
3
 10
6010719.65
 20
6568912.25
 11
0.0
 21
0.005
 40
1
 50
0.0
 51
360.0
 73
0
 97
0
 75
0
 76
1
 98
0
  0
LINE
  5
272
330
17
100
AcDbEntity
  8
0
100
AcDbLine
 10
6010719.74
 20
6568912.26
 30
0.0
 11
6010719.65
 21
6568912.25
 31
0.0
  0
LINE
  5
273
330
17
100
AcDbEntity
  8
0
 62
4
100
AcDbLine
 10
6010719.74
 20
6568912.26
 30
0.0
 11
6010719.65
 21
6568912.26
 31
0.0
  0
LINE
  5
274
330
17
100
AcDbEntity
  8
0
 62
2
100
AcDbLine
 10
6010719.74
 20
6568912.26
 30
0.0
 11
6010719.74
 21
6568912.25
 31
0.0
  0
HATCH
  5
275
330
17
100
AcDbEntity
  8
0
 62
1
100
AcDbHatch
 10
0.0
 20
0.0
 30
0.0
210
0.0
220
0.0
230
1.0
  2
SOLID
 70
1
 71
0
 91
1
 92
1
 93
1
 72
3
 10
6010717.66
 20
6568912.3
 11
0.0
 21
0.005
 40
1
 50
0.0
 51
360.0
 73
0
 97
0
 75
0
 76
1
 98
0
  0
LINE
  5
276
330
17
100
AcDbEntity
  8
0
100
AcDbLine
 10
6010717.74
 20
6568912.34
 30
0.0
 11
6010717.66
 21
6568912.3
 31
0.0
  0
LINE
  5
277
330
17
100
AcDbEntity
  8
0
 62
4
100
AcDbLine
 10
6010717.74
 20
6568912.34
 30
0.0
 11
6010717.66
 21
6568912.34
 31
0.0
  0
LINE
  5
278
330
17
100
AcDbEntity
  8
0
 62
2
100
AcDbLine
 10
6010717.74
 20
6568912.34
 30
0.0
 11
6010717.74
 21
6568912.3
 31
0.0
  0
HATCH
  5
279
330
17
100
AcDbEntity
  8
0
 62
1
100
AcDbHatch
 10
0.0
 20
0.0
 30
0.0
210
0.0
220
0.0
230
1.0
  2
SOLID
 70
1
 71
0
 91
1
 92
1
 93
1
 72
3
 10
6010715.77
 20
6568912.38
 11
0.0
 21
0.005
 40
1
 50
0.0
 51
360.0
 73
0
 97
0
 75
0
 76
1
 98
0
  0
LINE
  5
27A
330
17
100
AcDbEntity
  8
0
100
AcDbLine
 10
6010715.74
 20
6568912.42
 30
0.0
 11
6010715.77
 21
6568912.38
 31
0.0
  0
LINE
  5
27B
330
17
100
AcDbEntity
  8
0
 62
4
100
AcDbLine
 10
6010715.74
 20
6568912.42
 30
0.0
 11
6010715.77
 21
6568912.42
 31
0.0
  0
LINE
  5
27C
330
17
100
AcDbEntity
  8
0
 62
2
100
AcDbLine
 10
6010715.74
 20
6568912.42
 30
0.0
 11
6010715.74
 21
6568912.38
 31
0.0
  0
HATCH
  5
27D
330
17
100
AcDbEntity
  8
0
 62
1
100
AcDbHatch
 10
0.0
 20
0.0
 30
0.0
210
0.0
220
0.0
230
1.0
  2
SOLID
 70
1
 71
0
 91
1
 92
1
 93
1
 72
3
 10
6010721.79
 20
6568914.59
 11
0.0
 21
0.005
 40
1
 50
0.0
 51
360.0
 73
0
 97
0
 75
0
 76
1
 98
0
  0
LINE
  5
27E
330
17
100
AcDbEntity
  8
0
100
AcDbLine
 10
6010721.83
 20
6568914.58
 30
0.0
 11
6010721.79
 21
6568914.59
 31
0.0
  0
LINE
  5
27F
330
17
100
AcDbEntity
  8
0
 62
4
100
AcDbLine
 10
6010721.83
 20
6568914.58
 30
0.0
 11
6010721.79
 21
6568914.58
 31
0.0
  0
LINE
  5
280
330
17
100
AcDbEntity
  8
0
 62
2
100
AcDbLine
 10
6010721.83
 20
6568914.58
 30
0.0
 11
6010721.83
 21
6568914.59
 31
0.0
  0
HATCH
  5
281
330
17
100
AcDbEntity
  8
0
 62
1
100
AcDbHatch
 10
0.0
 20
0.0
 30
0.0
210
0.0
220
0.0
230
1.0
  2
SOLID
 70
1
 71
0
 91
1
 92
1
 93
1
 72
3
 10
6010719.73
 20
6568914.65
 11
0.0
 21
0.005
 40
1
 50
0.0
 51
360.0
 73
0
 97
0
 75
0
 76
1
 98
0
  0
LINE
  5
282
330
17
100
AcDbEntity
  8
0
100
AcDbLine
 10
6010719.83
 20
6568914.66
 30
0.0
 11
6010719.73
 21
6568914.65
 31
0.0
  0
LINE
  5
283
330
17
100
AcDbEntity
  8
0
 62
4
100
AcDbLine
 10
6010719.83
 20
6568914.66
 30
0.0
 11
6010719.73
 21
6568914.66
 31
0.0
  0
LINE
  5
284
330
17
100
AcDbEntity
  8
0
 62
2
100
AcDbLine
 10
6010719.83
 20
6568914.66
 30
0.0
 11
6010719.83
 21
6568914.65
 31
0.0
  0
HATCH
  5
285
330
17
100
AcDbEntity
  8
0
 62
1
100
AcDbHatch
 10
0.0
 20
0.0
 30
0.0
210
0.0
220
0.0
230
1.0
  2
SOLID
 70
1
 71
0
 91
1
 92
1
 93
1
 72
3
 10
6010717.78
 20
6568914.76
 11
0.0
 21
0.005
 40
1
 50
0.0
 51
360.0
 73
0
 97
0
 75
0
 76
1
 98
0
  0
LINE
  5
286
330
17
100
AcDbEntity
  8
0
100
AcDbLine
 10
6010717.83
 20
6568914.74
 30
0.0
 11
6010717.78
 21
6568914.76
 31
0.0
  0
LINE
  5
287
330
17
100
AcDbEntity
  8
0
 62
4
100
AcDbLine
 10
6010717.83
 20
6568914.74
 30
0.0
 11
6010717.78
 21
6568914.74
 31
0.0
  0
LINE
  5
288
330
17
100
AcDbEntity
  8
0
 62
2
100
AcDbLine
 10
6010717.83
 20
6568914.74
 30
0.0
 11
6010717.83
 21
6568914.76
 31
0.0
  0
HATCH
  5
289
330
17
100
AcDbEntity
  8
0
 62
1
100
AcDbHatch
 10
0.0
 20
0.0
 30
0.0
210
0.0
220
0.0
230
1.0
  2
SOLID
 70
1
 71
0
 91
1
 92
1
 93
1
 72
3
 10
6010715.78
 20
6568914.82
 11
0.0
 21
0.005
 40
1
 50
0.0
 51
360.0
 73
0
 97
0
 75
0
 76
1
 98
0
  0
LINE
  5
28A
330
17
100
AcDbEntity
  8
0
100
AcDbLine
 10
6010715.83
 20
6568914.82
 30
0.0
 11
6010715.78
 21
6568914.82
 31
0.0
  0
LINE
  5
28B
330
17
100
AcDbEntity
  8
0
 62
4
100
AcDbLine
 10
6010715.83
 20
6568914.82
 30
0.0
 11
6010715.78
 21
6568914.82
 31
0.0
  0
LINE
  5
28C
330
17
100
AcDbEntity
  8
0
 62
2
100
AcDbLine
 10
6010715.83
 20
6568914.82
 30
0.0
 11
6010715.83
 21
6568914.82
 31
0.0
  0
HATCH
  5
28D
330
17
100
AcDbEntity
  8
0
 62
1
100
AcDbHatch
 10
0.0
 20
0.0
 30
0.0
210
0.0
220
0.0
230
1.0
  2
SOLID
 70
1
 71
0
 91
1
 92
1
 93
1
 72
3
 10
6010721.95
 20
6568916.91
 11
0.0
 21
0.005
 40
1
 50
0.0
 51
360.0
 73
0
 97
0
 75
0
 76
1
 98
0
  0
LINE
  5
28E
330
17
100
AcDbEntity
  8
0
100
AcDbLine
 10
6010721.92
 20
6568916.98
 30
0.0
 11
6010721.95
 21
6568916.91
 31
0.0
  0
LINE
  5
28F
330
17
100
AcDbEntity
  8
0
 62
4
100
AcDbLine
 10
6010721.92
 20
6568916.98
 30
0.0
 11
6010721.95
 21
6568916.98
 31
0.0
  0
LINE
  5
290
330
17
100
AcDbEntity
  8
0
 62
2
100
AcDbLine
 10
6010721.92
 20
6568916.98
 30
0.0
 11
6010721.92
 21
6568916.91
 31
0.0
  0
HATCH
  5
291
330
17
100
AcDbEntity
  8
0
 62
1
100
AcDbHatch
 10
0.0
 20
0.0
 30
0.0
210
0.0
220
0.0
230
1.0
  2
SOLID
 70
1
 71
0
 91
1
 92
1
 93
1
 72
3
 10
6010719.89
 20
6568917.06
 11
0.0
 21
0.005
 40
1
 50
0.0
 51
360.0
 73
0
 97
0
 75
0
 76
1
 98
0
  0
LINE
  5
292
330
17
100
AcDbEntity
  8
0
100
AcDbLine
 10
6010719.92
 20
6568917.06
 30
0.0
 11
6010719.89
 21
6568917.06
 31
0.0
  0
LINE
  5
293
330
17
100
AcDbEntity
  8
0
 62
4
100
AcDbLine
 10
6010719.92
 20
6568917.06
 30
0.0
 11
6010719.89
 21
6568917.06
 31
0.0
  0
LINE
  5
294
330
17
100
AcDbEntity
  8
0
 62
2
100
AcDbLine
 10
6010719.92
 20
6568917.06
 30
0.0
 11
6010719.92
 21
6568917.06
 31
0.0
  0
HATCH
  5
295
330
17
100
AcDbEntity
  8
0
 62
1
100
AcDbHatch
 10
0.0
 20
0.0
 30
0.0
210
0.0
220
0.0
230
1.0
  2
SOLID
 70
1
 71
0
 91
1
 92
1
 93
1
 72
3
 10
6010717.86
 20
6568917.09
 11
0.0
 21
0.005
 40
1
 50
0.0
 51
360.0
 73
0
 97
0
 75
0
 76
1
 98
0
  0
LINE
  5
296
330
17
100
AcDbEntity
  8
0
100
AcDbLine
 10
6010717.93
 20
6568917.14
 30
0.0
 11
6010717.86
 21
6568917.09
 31
0.0
  0
LINE
  5
297
330
17
100
AcDbEntity
  8
0
 62
4
100
AcDbLine
 10
6010717.93
 20
6568917.14
 30
0.0
 11
6010717.86
 21
6568917.14
 31
0.0
  0
LINE
  5
298
330
17
100
AcDbEntity
  8
0
 62
2
100
AcDbLine
 10
6010717.93
 20
6568917.14
 30
0.0
 11
6010717.93
 21
6568917.09
 31
0.0
  0
HATCH
  5
299
330
17
100
AcDbEntity
  8
0
 62
1
100
AcDbHatch
 10
0.0
 20
0.0
 30
0.0
210
0.0
220
0.0
230
1.0
  2
SOLID
 70
1
 71
0
 91
1
 92
1
 93
1
 72
3
 10
6010715.92
 20
6568917.27
 11
0.0
 21
0.005
 40
1
 50
0.0
 51
360.0
 73
0
 97
0
 75
0
 76
1
 98
0
  0
LINE
  5
29A
330
17
100
AcDbEntity
  8
0
100
AcDbLine
 10
6010715.93
 20
6568917.21
 30
0.0
 11
6010715.92
 21
6568917.27
 31
0.0
  0
LINE
  5
29B
330
17
100
AcDbEntity
  8
0
 62
4
100
AcDbLine
 10
6010715.93
 20
6568917.21
 30
0.0
 11
6010715.92
 21
6568917.21
 31
0.0
  0
LINE
  5
29C
330
17
100
AcDbEntity
  8
0
 62
2
100
AcDbLine
 10
6010715.93
 20
6568917.21
 30
0.0
 11
6010715.93
 21
6568917.27
 31
0.0
  0
HATCH
  5
29D
330
17
100
AcDbEntity
  8
0
 62
1
100
AcDbHatch
 10
0.0
 20
0.0
 30
0.0
210
0.0
220
0.0
230
1.0
  2
SOLID
 70
1
 71
0
 91
1
 92
1
 93
1
 72
3
 10
6010722.08
 20
6568919.31
 11
0.0
 21
0.005
 40
1
 50
0.0
 51
360.0
 73
0
 97
0
 75
0
 76
1
 98
0
  0
LINE
  5
29E
330
17
100
AcDbEntity
  8
0
100
AcDbLine
 10
6010722.02
 20
6568919.38
 30
0.0
 11
6010722.08
 21
6568919.31
 31
0.0
  0
LINE
  5
29F
330
17
100
AcDbEntity
  8
0
 62
4
100
AcDbLine
 10
6010722.02
 20
6568919.38
 30
0.0
 11
6010722.08
 21
6568919.38
 31
0.0
  0
LINE
  5
2A0
330
17
100
AcDbEntity
  8
0
 62
2
100
AcDbLine
 10
6010722.02
 20
6568919.38
 30
0.0
 11
6010722.02
 21
6568919.31
 31
0.0
  0
HATCH
  5
2A1
330
17
100
AcDbEntity
  8
0
 62
1
100
AcDbHatch
 10
0.0
 20
0.0
 30
0.0
210
0.0
220
0.0
230
1.0
  2
SOLID
 70
1
 71
0
 91
1
 92
1
 93
1
 72
3
 10
6010720.11
 20
6568919.46
 11
0.0
 21
0.005
 40
1
 50
0.0
 51
360.0
 73
0
 97
0
 75
0
 76
1
 98
0
  0
LINE
  5
2A2
330
17
100
AcDbEntity
  8
0
100
AcDbLine
 10
6010720.02
 20
6568919.46
 30
0.0
 11
6010720.11
 21
6568919.46
 31
0.0
  0
LINE
  5
2A3
330
17
100
AcDbEntity
  8
0
 62
4
100
AcDbLine
 10
6010720.02
 20
6568919.46
 30
0.0
 11
6010720.11
 21
6568919.46
 31
0.0
  0
LINE
  5
2A4
330
17
100
AcDbEntity
  8
0
 62
2
100
AcDbLine
 10
6010720.02
 20
6568919.46
 30
0.0
 11
6010720.02
 21
6568919.46
 31
0.0
  0
HATCH
  5
2A5
330
17
100
AcDbEntity
  8
0
 62
1
100
AcDbHatch
 10
0.0
 20
0.0
 30
0.0
210
0.0
220
0.0
230
1.0
  2
SOLID
 70
1
 71
0
 91
1
 92
1
 93
1
 72
3
 10
6010717.95
 20
6568919.59
 11
0.0
 21
0.005
 40
1
 50
0.0
 51
360.0
 73
0
 97
0
 75
0
 76
1
 98
0
  0
LINE
  5
2A6
330
17
100
AcDbEntity
  8
0
100
AcDbLine
 10
6010718.02
 20
6568919.53
 30
0.0
 11
6010717.95
 21
6568919.59
 31
0.0
  0
LINE
  5
2A7
330
17
100
AcDbEntity
  8
0
 62
4
100
AcDbLine
 10
6010718.02
 20
6568919.53
 30
0.0
 11
6010717.95
 21
6568919.53
 31
0.0
  0
LINE
  5
2A8
330
17
100
AcDbEntity
  8
0
 62
2
100
AcDbLine
 10
6010718.02
 20
6568919.53
 30
0.0
 11
6010718.02
 21
6568919.59
 31
0.0
  0
HATCH
  5
2A9
330
17
100
AcDbEntity
  8
0
 62
1
100
AcDbHatch
 10
0.0
 20
0.0
 30
0.0
210
0.0
220
0.0
230
1.0
  2
SOLID
 70
1
 71
0
 91
1
 92
1
 93
1
 72
3
 10
6010715.99
 20
6568919.7
 11
0.0
 21
0.005
 40
1
 50
0.0
 51
360.0
 73
0
 97
0
 75
0
 76
1
 98
0
  0
LINE
  5
2AA
330
17
100
AcDbEntity
  8
0
100
AcDbLine
 10
6010716.02
 20
6568919.61
 30
0.0
 11
6010715.99
 21
6568919.7
 31
0.0
  0
LINE
  5
2AB
330
17
100
AcDbEntity
  8
0
 62
4
100
AcDbLine
 10
6010716.02
 20
6568919.61
 30
0.0
 11
6010715.99
 21
6568919.61
 31
0.0
  0
LINE
  5
2AC
330
17
100
AcDbEntity
  8
0
 62
2
100
AcDbLine
 10
6010716.02
 20
6568919.61
 30
0.0
 11
6010716.02
 21
6568919.7
 31
0.0
  0
HATCH
  5
2AD
330
17
100
AcDbEntity
  8
0
 62
1
100
AcDbHatch
 10
0.0
 20
0.0
 30
0.0
210
0.0
220
0.0
230
1.0
  2
SOLID
 70
1
 71
0
 91
1
 92
1
 93
1
 72
3
 10
6010722.06
 20
6568921.7
 11
0.0
 21
0.005
 40
1
 50
0.0
 51
360.0
 73
0
 97
0
 75
0
 76
1
 98
0
  0
LINE
  5
2AE
330
17
100
AcDbEntity
  8
0
100
AcDbLine
 10
6010722.12
 20
6568921.76
 30
0.0
 11
6010722.06
 21
6568921.7
 31
0.0
  0
LINE
  5
2AF
330
17
100
AcDbEntity
  8
0
 62
4
100
AcDbLine
 10
6010722.12
 20
6568921.76
 30
0.0
 11
6010722.06
 21
6568921.76
 31
0.0
  0
LINE
  5
2B0
330
17
100
AcDbEntity
  8
0
 62
2
100
AcDbLine
 10
6010722.12
 20
6568921.76
 30
0.0
 11
6010722.12
 21
6568921.7
 31
0.0
  0
HATCH
  5
2B1
330
17
100
AcDbEntity
  8
0
 62
1
100
AcDbHatch
 10
0.0
 20
0.0
 30
0.0
210
0.0
220
0.0
230
1.0
  2
SOLID
 70
1
 71
0
 91
1
 92
1
 93
1
 72
3
 10
6010720.2
 20
6568921.79
 11
0.0
 21
0.005
 40
1
 50
0.0
 51
360.0
 73
0
 97
0
 75
0
 76
1
 98
0
  0
LINE
  5
2B2
330
17
100
AcDbEntity
  8
0
100
AcDbLine
 10
6010720.13
 20
6568921.85
 30
0.0
 11
6010720.2
 21
6568921.79
 31
0.0
  0
LINE
  5
2B3
330
17
100
AcDbEntity
  8
0
 62
4
100
AcDbLine
 10
6010720.13
 20
6568921.85
 30
0.0
 11
6010720.2
 21
6568921.85
 31
0.0
  0
LINE
  5
2B4
330
17
100
AcDbEntity
  8
0
 62
2
100
AcDbLine
 10
6010720.13
 20
6568921.85
 30
0.0
 11
6010720.13
 21
6568921.79
 31
0.0
  0
HATCH
  5
2B5
330
17
100
AcDbEntity
  8
0
 62
1
100
AcDbHatch
 10
0.0
 20
0.0
 30
0.0
210
0.0
220
0.0
230
1.0
  2
SOLID
 70
1
 71
0
 91
1
 92
1
 93
1
 72
3
 10
6010718.04
 20
6568921.92
 11
0.0
 21
0.005
 40
1
 50
0.0
 51
360.0
 73
0
 97
0
 75
0
 76
1
 98
0
  0
LINE
  5
2B6
330
17
100
AcDbEntity
  8
0
100
AcDbLine
 10
6010718.13
 20
6568921.94
 30
0.0
 11
6010718.04
 21
6568921.92
 31
0.0
  0
LINE
  5
2B7
330
17
100
AcDbEntity
  8
0
 62
4
100
AcDbLine
 10
6010718.13
 20
6568921.94
 30
0.0
 11
6010718.04
 21
6568921.94
 31
0.0
  0
LINE
  5
2B8
330
17
100
AcDbEntity
  8
0
 62
2
100
AcDbLine
 10
6010718.13
 20
6568921.94
 30
0.0
 11
6010718.13
 21
6568921.92
 31
0.0
  0
HATCH
  5
2B9
330
17
100
AcDbEntity
  8
0
 62
1
100
AcDbHatch
 10
0.0
 20
0.0
 30
0.0
210
0.0
220
0.0
230
1.0
  2
SOLID
 70
1
 71
0
 91
1
 92
1
 93
1
 72
3
 10
6010716.1
 20
6568921.95
 11
0.0
 21
0.005
 40
1
 50
0.0
 51
360.0
 73
0
 97
0
 75
0
 76
1
 98
0
  0
LINE
  5
2BA
330
17
100
AcDbEntity
  8
0
100
AcDbLine
 10
6010716.13
 20
6568922.02
 30
0.0
 11
6010716.1
 21
6568921.95
 31
0.0
  0
LINE
  5
2BB
330
17
100
AcDbEntity
  8
0
 62
4
100
AcDbLine
 10
6010716.13
 20
6568922.02
 30
0.0
 11
6010716.1
 21
6568922.02
 31
0.0
  0
LINE
  5
2BC
330
17
100
AcDbEntity
  8
0
 62
2
100
AcDbLine
 10
6010716.13
 20
6568922.02
 30
0.0
 11
6010716.13
 21
6568921.95
 31
0.0
  0
HATCH
  5
2BD
330
17
100
AcDbEntity
  8
0
 62
1
100
AcDbHatch
 10
0.0
 20
0.0
 30
0.0
210
0.0
220
0.0
230
1.0
  2
SOLID
 70
1
 71
0
 91
1
 92
1
 93
1
 72
3
 10
6010722.29
 20
6568924.12
 11
0.0
 21
0.005
 40
1
 50
0.0
 51
360.0
 73
0
 97
0
 75
0
 76
1
 98
0
  0
LINE
  5
2BE
330
17
100
AcDbEntity
  8
0
100
AcDbLine
 10
6010722.26
 20
6568924.13
 30
0.0
 11
6010722.29
 21
6568924.12
 31
0.0
  0
LINE
  5
2BF
330
17
100
AcDbEntity
  8
0
 62
4
100
AcDbLine
 10
6010722.26
 20
6568924.13
 30
0.0
 11
6010722.29
 21
6568924.13
 31
0.0
  0
LINE
  5
2C0
330
17
100
AcDbEntity
  8
0
 62
2
100
AcDbLine
 10
6010722.26
 20
6568924.13
 30
0.0
 11
6010722.26
 21
6568924.12
 31
0.0
  0
HATCH
  5
2C1
330
17
100
AcDbEntity
  8
0
 62
1
100
AcDbHatch
 10
0.0
 20
0.0
 30
0.0
210
0.0
220
0.0
230
1.0
  2
SOLID
 70
1
 71
0
 91
1
 92
1
 93
1
 72
3
 10
6010720.26
 20
6568924.14
 11
0.0
 21
0.005
 40
1
 50
0.0
 51
360.0
 73
0
 97
0
 75
0
 76
1
 98
0
  0
LINE
  5
2C2
330
17
100
AcDbEntity
  8
0
100
AcDbLine
 10
6010720.26
 20
6568924.24
 30
0.0
 11
6010720.26
 21
6568924.14
 31
0.0
  0
LINE
  5
2C3
330
17
100
AcDbEntity
  8
0
 62
4
100
AcDbLine
 10
6010720.26
 20
6568924.24
 30
0.0
 11
6010720.26
 21
6568924.24
 31
0.0
  0
LINE
  5
2C4
330
17
100
AcDbEntity
  8
0
 62
2
100
AcDbLine
 10
6010720.26
 20
6568924.24
 30
0.0
 11
6010720.26
 21
6568924.14
 31
0.0
  0
HATCH
  5
2C5
330
17
100
AcDbEntity
  8
0
 62
1
100
AcDbHatch
 10
0.0
 20
0.0
 30
0.0
210
0.0
220
0.0
230
1.0
  2
SOLID
 70
1
 71
0
 91
1
 92
1
 93
1
 72
3
 10
6010718.26
 20
6568924.41
 11
0.0
 21
0.005
 40
1
 50
0.0
 51
360.0
 73
0
 97
0
 75
0
 76
1
 98
0
  0
LINE
  5
2C6
330
17
100
AcDbEntity
  8
0
100
AcDbLine
 10
6010718.26
 20
6568924.34
 30
0.0
 11
6010718.26
 21
6568924.41
 31
0.0
  0
LINE
  5
2C7
330
17
100
AcDbEntity
  8
0
 62
4
100
AcDbLine
 10
6010718.26
 20
6568924.34
 30
0.0
 11
6010718.26
 21
6568924.34
 31
0.0
  0
LINE
  5
2C8
330
17
100
AcDbEntity
  8
0
 62
2
100
AcDbLine
 10
6010718.26
 20
6568924.34
 30
0.0
 11
6010718.26
 21
6568924.41
 31
0.0
  0
HATCH
  5
2C9
330
17
100
AcDbEntity
  8
0
 62
1
100
AcDbHatch
 10
0.0
 20
0.0
 30
0.0
210
0.0
220
0.0
230
1.0
  2
SOLID
 70
1
 71
0
 91
1
 92
1
 93
1
 72
3
 10
6010716.33
 20
6568924.51
 11
0.0
 21
0.005
 40
1
 50
0.0
 51
360.0
 73
0
 97
0
 75
0
 76
1
 98
0
  0
LINE
  5
2CA
330
17
100
AcDbEntity
  8
0
100
AcDbLine
 10
6010716.26
 20
6568924.45
 30
0.0
 11
6010716.33
 21
6568924.51
 31
0.0
  0
LINE
  5
2CB
330
17
100
AcDbEntity
  8
0
 62
4
100
AcDbLine
 10
6010716.26
 20
6568924.45
 30
0.0
 11
6010716.33
 21
6568924.45
 31
0.0
  0
LINE
  5
2CC
330
17
100
AcDbEntity
  8
0
 62
2
100
AcDbLine
 10
6010716.26
 20
6568924.45
 30
0.0
 11
6010716.26
 21
6568924.51
 31
0.0
  0
HATCH
  5
2CD
330
17
100
AcDbEntity
  8
0
 62
1
100
AcDbHatch
 10
0.0
 20
0.0
 30
0.0
210
0.0
220
0.0
230
1.0
  2
SOLID
 70
1
 71
0
 91
1
 92
1
 93
1
 72
3
 10
6010722.43
 20
6568926.48
 11
0.0
 21
0.005
 40
1
 50
0.0
 51
360.0
 73
0
 97
0
 75
0
 76
1
 98
0
  0
LINE
  5
2CE
330
17
100
AcDbEntity
  8
0
100
AcDbLine
 10
6010722.43
 20
6568926.49
 30
0.0
 11
6010722.43
 21
6568926.48
 31
0.0
  0
LINE
  5
2CF
330
17
100
AcDbEntity
  8
0
 62
4
100
AcDbLine
 10
6010722.43
 20
6568926.49
 30
0.0
 11
6010722.43
 21
6568926.49
 31
0.0
  0
LINE
  5
2D0
330
17
100
AcDbEntity
  8
0
 62
2
100
AcDbLine
 10
6010722.43
 20
6568926.49
 30
0.0
 11
6010722.43
 21
6568926.48
 31
0.0
  0
HATCH
  5
2D1
330
17
100
AcDbEntity
  8
0
 62
1
100
AcDbHatch
 10
0.0
 20
0.0
 30
0.0
210
0.0
220
0.0
230
1.0
  2
SOLID
 70
1
 71
0
 91
1
 92
1
 93
1
 72
3
 10
6010720.38
 20
6568926.62
 11
0.0
 21
0.005
 40
1
 50
0.0
 51
360.0
 73
0
 97
0
 75
0
 76
1
 98
0
  0
LINE
  5
2D2
330
17
100
AcDbEntity
  8
0
100
AcDbLine
 10
6010720.43
 20
6568926.62
 30
0.0
 11
6010720.38
 21
6568926.62
 31
0.0
  0
LINE
  5
2D3
330
17
100
AcDbEntity
  8
0
 62
4
100
AcDbLine
 10
6010720.43
 20
6568926.62
 30
0.0
 11
6010720.38
 21
6568926.62
 31
0.0
  0
LINE
  5
2D4
330
17
100
AcDbEntity
  8
0
 62
2
100
AcDbLine
 10
6010720.43
 20
6568926.62
 30
0.0
 11
6010720.43
 21
6568926.62
 31
0.0
  0
HATCH
  5
2D5
330
17
100
AcDbEntity
  8
0
 62
1
100
AcDbHatch
 10
0.0
 20
0.0
 30
0.0
210
0.0
220
0.0
230
1.0
  2
SOLID
 70
1
 71
0
 91
1
 92
1
 93
1
 72
3
 10
6010718.38
 20
6568926.68
 11
0.0
 21
0.005
 40
1
 50
0.0
 51
360.0
 73
0
 97
0
 75
0
 76
1
 98
0
  0
LINE
  5
2D6
330
17
100
AcDbEntity
  8
0
100
AcDbLine
 10
6010718.43
 20
6568926.75
 30
0.0
 11
6010718.38
 21
6568926.68
 31
0.0
  0
LINE
  5
2D7
330
17
100
AcDbEntity
  8
0
 62
4
100
AcDbLine
 10
6010718.43
 20
6568926.75
 30
0.0
 11
6010718.38
 21
6568926.75
 31
0.0
  0
LINE
  5
2D8
330
17
100
AcDbEntity
  8
0
 62
2
100
AcDbLine
 10
6010718.43
 20
6568926.75
 30
0.0
 11
6010718.43
 21
6568926.68
 31
0.0
  0
HATCH
  5
2D9
330
17
100
AcDbEntity
  8
0
 62
1
100
AcDbHatch
 10
0.0
 20
0.0
 30
0.0
210
0.0
220
0.0
230
1.0
  2
SOLID
 70
1
 71
0
 91
1
 92
1
 93
1
 72
3
 10
6010716.4
 20
6568926.9
 11
0.0
 21
0.005
 40
1
 50
0.0
 51
360.0
 73
0
 97
0
 75
0
 76
1
 98
0
  0
LINE
  5
2DA
330
17
100
AcDbEntity
  8
0
100
AcDbLine
 10
6010716.44
 20
6568926.88
 30
0.0
 11
6010716.4
 21
6568926.9
 31
0.0
  0
LINE
  5
2DB
330
17
100
AcDbEntity
  8
0
 62
4
100
AcDbLine
 10
6010716.44
 20
6568926.88
 30
0.0
 11
6010716.4
 21
6568926.88
 31
0.0
  0
LINE
  5
2DC
330
17
100
AcDbEntity
  8
0
 62
2
100
AcDbLine
 10
6010716.44
 20
6568926.88
 30
0.0
 11
6010716.44
 21
6568926.9
 31
0.0
  0
HATCH
  5
2DD
330
17
100
AcDbEntity
  8
0
 62
1
100
AcDbHatch
 10
0.0
 20
0.0
 30
0.0
210
0.0
220
0.0
230
1.0
  2
SOLID
 70
1
 71
0
 91
1
 92
1
 93
1
 72
3
 10
6010723.85
 20
6568928.67
 11
0.0
 21
0.005
 40
1
 50
0.0
 51
360.0
 73
0
 97
0
 75
0
 76
1
 98
0
  0
LINE
  5
2DE
330
17
100
AcDbEntity
  8
0
100
AcDbLine
 10
6010723.86
 20
6568928.71
 30
0.0
 11
6010723.85
 21
6568928.67
 31
0.0
  0
LINE
  5
2DF
330
17
100
AcDbEntity
  8
0
 62
4
100
AcDbLine
 10
6010723.86
 20
6568928.71
 30
0.0
 11
6010723.85
 21
6568928.71
 31
0.0
  0
LINE
  5
2E0
330
17
100
AcDbEntity
  8
0
 62
2
100
AcDbLine
 10
6010723.86
 20
6568928.71
 30
0.0
 11
6010723.86
 21
6568928.67
 31
0.0
  0
HATCH
  5
2E1
330
17
100
AcDbEntity
  8
0
 62
1
100
AcDbHatch
 10
0.0
 20
0.0
 30
0.0
210
0.0
220
0.0
230
1.0
  2
SOLID
 70
1
 71
0
 91
1
 92
1
 93
1
 72
3
 10
6010721.84
 20
6568928.87
 11
0.0
 21
0.005
 40
1
 50
0.0
 51
360.0
 73
0
 97
0
 75
0
 76
1
 98
0
  0
LINE
  5
2E2
330
17
100
AcDbEntity
  8
0
100
AcDbLine
 10
6010721.87
 20
6568928.89
 30
0.0
 11
6010721.84
 21
6568928.87
 31
0.0
  0
LINE
  5
2E3
330
17
100
AcDbEntity
  8
0
 62
4
100
AcDbLine
 10
6010721.87
 20
6568928.89
 30
0.0
 11
6010721.84
 21
6568928.89
 31
0.0
  0
LINE
  5
2E4
330
17
100
AcDbEntity
  8
0
 62
2
100
AcDbLine
 10
6010721.87
 20
6568928.89
 30
0.0
 11
6010721.87
 21
6568928.87
 31
0.0
  0
HATCH
  5
2E5
330
17
100
AcDbEntity
  8
0
 62
1
100
AcDbHatch
 10
0.0
 20
0.0
 30
0.0
210
0.0
220
0.0
230
1.0
  2
SOLID
 70
1
 71
0
 91
1
 92
1
 93
1
 72
3
 10
6010719.86
 20
6568929.05
 11
0.0
 21
0.005
 40
1
 50
0.0
 51
360.0
 73
0
 97
0
 75
0
 76
1
 98
0
  0
LINE
  5
2E6
330
17
100
AcDbEntity
  8
0
100
AcDbLine
 10
6010719.88
 20
6568929.06
 30
0.0
 11
6010719.86
 21
6568929.05
 31
0.0
  0
LINE
  5
2E7
330
17
100
AcDbEntity
  8
0
 62
4
100
AcDbLine
 10
6010719.88
 20
6568929.06
 30
0.0
 11
6010719.86
 21
6568929.06
 31
0.0
  0
LINE
  5
2E8
330
17
100
AcDbEntity
  8
0
 62
2
100
AcDbLine
 10
6010719.88
 20
6568929.06
 30
0.0
 11
6010719.88
 21
6568929.05
 31
0.0
  0
HATCH
  5
2E9
330
17
100
AcDbEntity
  8
0
 62
1
100
AcDbHatch
 10
0.0
 20
0.0
 30
0.0
210
0.0
220
0.0
230
1.0
  2
SOLID
 70
1
 71
0
 91
1
 92
1
 93
1
 72
3
 10
6010717.84
 20
6568929.14
 11
0.0
 21
0.005
 40
1
 50
0.0
 51
360.0
 73
0
 97
0
 75
0
 76
1
 98
0
  0
LINE
  5
2EA
330
17
100
AcDbEntity
  8
0
100
AcDbLine
 10
6010717.88
 20
6568929.23
 30
0.0
 11
6010717.84
 21
6568929.14
 31
0.0
  0
LINE
  5
2EB
330
17
100
AcDbEntity
  8
0
 62
4
100
AcDbLine
 10
6010717.88
 20
6568929.23
 30
0.0
 11
6010717.84
 21
6568929.23
 31
0.0
  0
LINE
  5
2EC
330
17
100
AcDbEntity
  8
0
 62
2
100
AcDbLine
 10
6010717.88
 20
6568929.23
 30
0.0
 11
6010717.88
 21
6568929.14
 31
0.0
  0
HATCH
  5
2ED
330
17
100
AcDbEntity
  8
0
 62
1
100
AcDbHatch
 10
0.0
 20
0.0
 30
0.0
210
0.0
220
0.0
230
1.0
  2
SOLID
 70
1
 71
0
 91
1
 92
1
 93
1
 72
3
 10
6010715.83
 20
6568929.34
 11
0.0
 21
0.005
 40
1
 50
0.0
 51
360.0
 73
0
 97
0
 75
0
 76
1
 98
0
  0
LINE
  5
2EE
330
17
100
AcDbEntity
  8
0
100
AcDbLine
 10
6010715.89
 20
6568929.41
 30
0.0
 11
6010715.83
 21
6568929.34
 31
0.0
  0
LINE
  5
2EF
330
17
100
AcDbEntity
  8
0
 62
4
100
AcDbLine
 10
6010715.89
 20
6568929.41
 30
0.0
 11
6010715.83
 21
6568929.41
 31
0.0
  0
LINE
  5
2F0
330
17
100
AcDbEntity
  8
0
 62
2
100
AcDbLine
 10
6010715.89
 20
6568929.41
 30
0.0
 11
6010715.89
 21
6568929.34
 31
0.0
  0
HATCH
  5
2F1
330
17
100
AcDbEntity
  8
0
 62
1
100
AcDbHatch
 10
0.0
 20
0.0
 30
0.0
210
0.0
220
0.0
230
1.0
  2
SOLID
 70
1
 71
0
 91
1
 92
1
 93
1
 72
3
 10
6010724.1
 20
6568930.94
 11
0.0
 21
0.005
 40
1
 50
0.0
 51
360.0
 73
0
 97
0
 75
0
 76
1
 98
0
  0
LINE
  5
2F2
330
17
100
AcDbEntity
  8
0
100
AcDbLine
 10
6010724.13
 20
6568930.98
 30
0.0
 11
6010724.1
 21
6568930.94
 31
0.0
  0
LINE
  5
2F3
330
17
100
AcDbEntity
  8
0
 62
4
100
AcDbLine
 10
6010724.13
 20
6568930.98
 30
0.0
 11
6010724.1
 21
6568930.98
 31
0.0
  0
LINE
  5
2F4
330
17
100
AcDbEntity
  8
0
 62
2
100
AcDbLine
 10
6010724.13
 20
6568930.98
 30
0.0
 11
6010724.13
 21
6568930.94
 31
0.0
  0
HATCH
  5
2F5
330
17
100
AcDbEntity
  8
0
 62
1
100
AcDbHatch
 10
0.0
 20
0.0
 30
0.0
210
0.0
220
0.0
230
1.0
  2
SOLID
 70
1
 71
0
 91
1
 92
1
 93
1
 72
3
 10
6010722.1
 20
6568931.29
 11
0.0
 21
0.005
 40
1
 50
0.0
 51
360.0
 73
0
 97
0
 75
0
 76
1
 98
0
  0
LINE
  5
2F6
330
17
100
AcDbEntity
  8
0
100
AcDbLine
 10
6010722.15
 20
6568931.21
 30
0.0
 11
6010722.1
 21
6568931.29
 31
0.0
  0
LINE
  5
2F7
330
17
100
AcDbEntity
  8
0
 62
4
100
AcDbLine
 10
6010722.15
 20
6568931.21
 30
0.0
 11
6010722.1
 21
6568931.21
 31
0.0
  0
LINE
  5
2F8
330
17
100
AcDbEntity
  8
0
 62
2
100
AcDbLine
 10
6010722.15
 20
6568931.21
 30
0.0
 11
6010722.15
 21
6568931.29
 31
0.0
  0
HATCH
  5
2F9
330
17
100
AcDbEntity
  8
0
 62
1
100
AcDbHatch
 10
0.0
 20
0.0
 30
0.0
210
0.0
220
0.0
230
1.0
  2
SOLID
 70
1
 71
0
 91
1
 92
1
 93
1
 72
3
 10
6010720.2
 20
6568931.43
 11
0.0
 21
0.005
 40
1
 50
0.0
 51
360.0
 73
0
 97
0
 75
0
 76
1
 98
0
  0
LINE
  5
2FA
330
17
100
AcDbEntity
  8
0
100
AcDbLine
 10
6010720.16
 20
6568931.44
 30
0.0
 11
6010720.2
 21
6568931.43
 31
0.0
  0
LINE
  5
2FB
330
17
100
AcDbEntity
  8
0
 62
4
100
AcDbLine
 10
6010720.16
 20
6568931.44
 30
0.0
 11
6010720.2
 21
6568931.44
 31
0.0
  0
LINE
  5
2FC
330
17
100
AcDbEntity
  8
0
 62
2
100
AcDbLine
 10
6010720.16
 20
6568931.44
 30
0.0
 11
6010720.16
 21
6568931.43
 31
0.0
  0
HATCH
  5
2FD
330
17
100
AcDbEntity
  8
0
 62
1
100
AcDbHatch
 10
0.0
 20
0.0
 30
0.0
210
0.0
220
0.0
230
1.0
  2
SOLID
 70
1
 71
0
 91
1
 92
1
 93
1
 72
3
 10
6010718.22
 20
6568931.63
 11
0.0
 21
0.005
 40
1
 50
0.0
 51
360.0
 73
0
 97
0
 75
0
 76
1
 98
0
  0
LINE
  5
2FE
330
17
100
AcDbEntity
  8
0
100
AcDbLine
 10
6010718.17
 20
6568931.67
 30
0.0
 11
6010718.22
 21
6568931.63
 31
0.0
  0
LINE
  5
2FF
330
17
100
AcDbEntity
  8
0
 62
4
100
AcDbLine
 10
6010718.17
 20
6568931.67
 30
0.0
 11
6010718.22
 21
6568931.67
 31
0.0
  0
LINE
  5
300
330
17
100
AcDbEntity
  8
0
 62
2
100
AcDbLine
 10
6010718.17
 20
6568931.67
 30
0.0
 11
6010718.17
 21
6568931.63
 31
0.0
  0
HATCH
  5
301
330
17
100
AcDbEntity
  8
0
 62
1
100
AcDbHatch
 10
0.0
 20
0.0
 30
0.0
210
0.0
220
0.0
230
1.0
  2
SOLID
 70
1
 71
0
 91
1
 92
1
 93
1
 72
3
 10
6010716.14
 20
6568931.84
 11
0.0
 21
0.005
 40
1
 50
0.0
 51
360.0
 73
0
 97
0
 75
0
 76
1
 98
0
  0
LINE
  5
302
330
17
100
AcDbEntity
  8
0
100
AcDbLine
 10
6010716.19
 20
6568931.91
 30
0.0
 11
6010716.14
 21
6568931.84
 31
0.0
  0
LINE
  5
303
330
17
100
AcDbEntity
  8
0
 62
4
100
AcDbLine
 10
6010716.19
 20
6568931.91
 30
0.0
 11
6010716.14
 21
6568931.91
 31
0.0
  0
LINE
  5
304
330
17
100
AcDbEntity
  8
0
 62
2
100
AcDbLine
 10
6010716.19
 20
6568931.91
 30
0.0
 11
6010716.19
 21
6568931.84
 31
0.0
  0
HATCH
  5
305
330
17
100
AcDbEntity
  8
0
 62
1
100
AcDbHatch
 10
0.0
 20
0.0
 30
0.0
210
0.0
220
0.0
230
1.0
  2
SOLID
 70
1
 71
0
 91
1
 92
1
 93
1
 72
3
 10
6010724.48
 20
6568933.22
 11
0.0
 21
0.005
 40
1
 50
0.0
 51
360.0
 73
0
 97
0
 75
0
 76
1
 98
0
  0
LINE
  5
306
330
17
100
AcDbEntity
  8
0
100
AcDbLine
 10
6010724.47
 20
6568933.23
 30
0.0
 11
6010724.48
 21
6568933.22
 31
0.0
  0
LINE
  5
307
330
17
100
AcDbEntity
  8
0
 62
4
100
AcDbLine
 10
6010724.47
 20
6568933.23
 30
0.0
 11
6010724.48
 21
6568933.23
 31
0.0
  0
LINE
  5
308
330
17
100
AcDbEntity
  8
0
 62
2
100
AcDbLine
 10
6010724.47
 20
6568933.23
 30
0.0
 11
6010724.47
 21
6568933.22
 31
0.0
  0
HATCH
  5
309
330
17
100
AcDbEntity
  8
0
 62
1
100
AcDbHatch
 10
0.0
 20
0.0
 30
0.0
210
0.0
220
0.0
230
1.0
  2
SOLID
 70
1
 71
0
 91
1
 92
1
 93
1
 72
3
 10
6010722.5
 20
6568933.44
 11
0.0
 21
0.005
 40
1
 50
0.0
 51
360.0
 73
0
 97
0
 75
0
 76
1
 98
0
  0
LINE
  5
30A
330
17
100
AcDbEntity
  8
0
100
AcDbLine
 10
6010722.49
 20
6568933.52
 30
0.0
 11
6010722.5
 21
6568933.44
 31
0.0
  0
LINE
  5
30B
330
17
100
AcDbEntity
  8
0
 62
4
100
AcDbLine
 10
6010722.49
 20
6568933.52
 30
0.0
 11
6010722.5
 21
6568933.52
 31
0.0
  0
LINE
  5
30C
330
17
100
AcDbEntity
  8
0
 62
2
100
AcDbLine
 10
6010722.49
 20
6568933.52
 30
0.0
 11
6010722.49
 21
6568933.44
 31
0.0
  0
HATCH
  5
30D
330
17
100
AcDbEntity
  8
0
 62
1
100
AcDbHatch
 10
0.0
 20
0.0
 30
0.0
210
0.0
220
0.0
230
1.0
  2
SOLID
 70
1
 71
0
 91
1
 92
1
 93
1
 72
3
 10
6010720.44
 20
6568933.89
 11
0.0
 21
0.005
 40
1
 50
0.0
 51
360.0
 73
0
 97
0
 75
0
 76
1
 98
0
  0
LINE
  5
30E
330
17
100
AcDbEntity
  8
0
100
AcDbLine
 10
6010720.51
 20
6568933.82
 30
0.0
 11
6010720.44
 21
6568933.89
 31
0.0
  0
LINE
  5
30F
330
17
100
AcDbEntity
  8
0
 62
4
100
AcDbLine
 10
6010720.51
 20
6568933.82
 30
0.0
 11
6010720.44
 21
6568933.82
 31
0.0
  0
LINE
  5
310
330
17
100
AcDbEntity
  8
0
 62
2
100
AcDbLine
 10
6010720.51
 20
6568933.82
 30
0.0
 11
6010720.51
 21
6568933.89
 31
0.0
  0
HATCH
  5
311
330
17
100
AcDbEntity
  8
0
 62
1
100
AcDbHatch
 10
0.0
 20
0.0
 30
0.0
210
0.0
220
0.0
230
1.0
  2
SOLID
 70
1
 71
0
 91
1
 92
1
 93
1
 72
3
 10
6010718.6
 20
6568934.06
 11
0.0
 21
0.005
 40
1
 50
0.0
 51
360.0
 73
0
 97
0
 75
0
 76
1
 98
0
  0
LINE
  5
312
330
17
100
AcDbEntity
  8
0
100
AcDbLine
 10
6010718.54
 20
6568934.11
 30
0.0
 11
6010718.6
 21
6568934.06
 31
0.0
  0
LINE
  5
313
330
17
100
AcDbEntity
  8
0
 62
4
100
AcDbLine
 10
6010718.54
 20
6568934.11
 30
0.0
 11
6010718.6
 21
6568934.11
 31
0.0
  0
LINE
  5
314
330
17
100
AcDbEntity
  8
0
 62
2
100
AcDbLine
 10
6010718.54
 20
6568934.11
 30
0.0
 11
6010718.54
 21
6568934.06
 31
0.0
  0
HATCH
  5
315
330
17
100
AcDbEntity
  8
0
 62
1
100
AcDbHatch
 10
0.0
 20
0.0
 30
0.0
210
0.0
220
0.0
230
1.0
  2
SOLID
 70
1
 71
0
 91
1
 92
1
 93
1
 72
3
 10
6010716.63
 20
6568934.38
 11
0.0
 21
0.005
 40
1
 50
0.0
 51
360.0
 73
0
 97
0
 75
0
 76
1
 98
0
  0
LINE
  5
316
330
17
100
AcDbEntity
  8
0
100
AcDbLine
 10
6010716.56
 20
6568934.4
 30
0.0
 11
6010716.63
 21
6568934.38
 31
0.0
  0
LINE
  5
317
330
17
100
AcDbEntity
  8
0
 62
4
100
AcDbLine
 10
6010716.56
 20
6568934.4
 30
0.0
 11
6010716.63
 21
6568934.4
 31
0.0
  0
LINE
  5
318
330
17
100
AcDbEntity
  8
0
 62
2
100
AcDbLine
 10
6010716.56
 20
6568934.4
 30
0.0
 11
6010716.56
 21
6568934.38
 31
0.0
  0
HATCH
  5
319
330
17
100
AcDbEntity
  8
0
 62
1
100
AcDbHatch
 10
0.0
 20
0.0
 30
0.0
210
0.0
220
0.0
230
1.0
  2
SOLID
 70
1
 71
0
 91
1
 92
1
 93
1
 72
3
 10
6010724.84
 20
6568935.47
 11
0.0
 21
0.005
 40
1
 50
0.0
 51
360.0
 73
0
 97
0
 75
0
 76
1
 98
0
  0
LINE
  5
31A
330
17
100
AcDbEntity
  8
0
100
AcDbLine
 10
6010724.88
 20
6568935.44
 30
0.0
 11
6010724.84
 21
6568935.47
 31
0.0
  0
LINE
  5
31B
330
17
100
AcDbEntity
  8
0
 62
4
100
AcDbLine
 10
6010724.88
 20
6568935.44
 30
0.0
 11
6010724.84
 21
6568935.44
 31
0.0
  0
LINE
  5
31C
330
17
100
AcDbEntity
  8
0
 62
2
100
AcDbLine
 10
6010724.88
 20
6568935.44
 30
0.0
 11
6010724.88
 21
6568935.47
 31
0.0
  0
HATCH
  5
31D
330
17
100
AcDbEntity
  8
0
 62
1
100
AcDbHatch
 10
0.0
 20
0.0
 30
0.0
210
0.0
220
0.0
230
1.0
  2
SOLID
 70
1
 71
0
 91
1
 92
1
 93
1
 72
3
 10
6010722.87
 20
6568935.74
 11
0.0
 21
0.005
 40
1
 50
0.0
 51
360.0
 73
0
 97
0
 75
0
 76
1
 98
0
  0
LINE
  5
31E
330
17
100
AcDbEntity
  8
0
100
AcDbLine
 10
6010722.92
 20
6568935.81
 30
0.0
 11
6010722.87
 21
6568935.74
 31
0.0
  0
LINE
  5
31F
330
17
100
AcDbEntity
  8
0
 62
4
100
AcDbLine
 10
6010722.92
 20
6568935.81
 30
0.0
 11
6010722.87
 21
6568935.81
 31
0.0
  0
LINE
  5
320
330
17
100
AcDbEntity
  8
0
 62
2
100
AcDbLine
 10
6010722.92
 20
6568935.81
 30
0.0
 11
6010722.92
 21
6568935.74
 31
0.0
  0
HATCH
  5
321
330
17
100
AcDbEntity
  8
0
 62
1
100
AcDbHatch
 10
0.0
 20
0.0
 30
0.0
210
0.0
220
0.0
230
1.0
  2
SOLID
 70
1
 71
0
 91
1
 92
1
 93
1
 72
3
 10
6010720.85
 20
6568936.17
 11
0.0
 21
0.005
 40
1
 50
0.0
 51
360.0
 73
0
 97
0
 75
0
 76
1
 98
0
  0
LINE
  5
322
330
17
100
AcDbEntity
  8
0
100
AcDbLine
 10
6010720.95
 20
6568936.18
 30
0.0
 11
6010720.85
 21
6568936.17
 31
0.0
  0
LINE
  5
323
330
17
100
AcDbEntity
  8
0
 62
4
100
AcDbLine
 10
6010720.95
 20
6568936.18
 30
0.0
 11
6010720.85
 21
6568936.18
 31
0.0
  0
LINE
  5
324
330
17
100
AcDbEntity
  8
0
 62
2
100
AcDbLine
 10
6010720.95
 20
6568936.18
 30
0.0
 11
6010720.95
 21
6568936.17
 31
0.0
  0
HATCH
  5
325
330
17
100
AcDbEntity
  8
0
 62
1
100
AcDbHatch
 10
0.0
 20
0.0
 30
0.0
210
0.0
220
0.0
230
1.0
  2
SOLID
 70
1
 71
0
 91
1
 92
1
 93
1
 72
3
 10
6010718.93
 20
6568936.45
 11
0.0
 21
0.005
 40
1
 50
0.0
 51
360.0
 73
0
 97
0
 75
0
 76
1
 98
0
  0
LINE
  5
326
330
17
100
AcDbEntity
  8
0
100
AcDbLine
 10
6010718.98
 20
6568936.54
 30
0.0
 11
6010718.93
 21
6568936.45
 31
0.0
  0
LINE
  5
327
330
17
100
AcDbEntity
  8
0
 62
4
100
AcDbLine
 10
6010718.98
 20
6568936.54
 30
0.0
 11
6010718.93
 21
6568936.54
 31
0.0
  0
LINE
  5
328
330
17
100
AcDbEntity
  8
0
 62
2
100
AcDbLine
 10
6010718.98
 20
6568936.54
 30
0.0
 11
6010718.98
 21
6568936.45
 31
0.0
  0
HATCH
  5
329
330
17
100
AcDbEntity
  8
0
 62
1
100
AcDbHatch
 10
0.0
 20
0.0
 30
0.0
210
0.0
220
0.0
230
1.0
  2
SOLID
 70
1
 71
0
 91
1
 92
1
 93
1
 72
3
 10
6010717.03
 20
6568936.82
 11
0.0
 21
0.005
 40
1
 50
0.0
 51
360.0
 73
0
 97
0
 75
0
 76
1
 98
0
  0
LINE
  5
32A
330
17
100
AcDbEntity
  8
0
100
AcDbLine
 10
6010717.02
 20
6568936.91
 30
0.0
 11
6010717.03
 21
6568936.82
 31
0.0
  0
LINE
  5
32B
330
17
100
AcDbEntity
  8
0
 62
4
100
AcDbLine
 10
6010717.02
 20
6568936.91
 30
0.0
 11
6010717.03
 21
6568936.91
 31
0.0
  0
LINE
  5
32C
330
17
100
AcDbEntity
  8
0
 62
2
100
AcDbLine
 10
6010717.02
 20
6568936.91
 30
0.0
 11
6010717.02
 21
6568936.82
 31
0.0
  0
HATCH
  5
32D
330
17
100
AcDbEntity
  8
0
 62
1
100
AcDbHatch
 10
0.0
 20
0.0
 30
0.0
210
0.0
220
0.0
230
1.0
  2
SOLID
 70
1
 71
0
 91
1
 92
1
 93
1
 72
3
 10
6010725.41
 20
6568937.54
 11
0.0
 21
0.005
 40
1
 50
0.0
 51
360.0
 73
0
 97
0
 75
0
 76
1
 98
0
  0
LINE
  5
32E
330
17
100
AcDbEntity
  8
0
100
AcDbLine
 10
6010725.38
 20
6568937.63
 30
0.0
 11
6010725.41
 21
6568937.54
 31
0.0
  0
LINE
  5
32F
330
17
100
AcDbEntity
  8
0
 62
4
100
AcDbLine
 10
6010725.38
 20
6568937.63
 30
0.0
 11
6010725.41
 21
6568937.63
 31
0.0
  0
LINE
  5
330
330
17
100
AcDbEntity
  8
0
 62
2
100
AcDbLine
 10
6010725.38
 20
6568937.63
 30
0.0
 11
6010725.38
 21
6568937.54
 31
0.0
  0
HATCH
  5
331
330
17
100
AcDbEntity
  8
0
 62
1
100
AcDbHatch
 10
0.0
 20
0.0
 30
0.0
210
0.0
220
0.0
230
1.0
  2
SOLID
 70
1
 71
0
 91
1
 92
1
 93
1
 72
3
 10
6010723.36
 20
6568938.0
 11
0.0
 21
0.005
 40
1
 50
0.0
 51
360.0
 73
0
 97
0
 75
0
 76
1
 98
0
  0
LINE
  5
332
330
17
100
AcDbEntity
  8
0
100
AcDbLine
 10
6010723.43
 20
6568938.07
 30
0.0
 11
6010723.36
 21
6568938.0
 31
0.0
  0
LINE
  5
333
330
17
100
AcDbEntity
  8
0
 62
4
100
AcDbLine
 10
6010723.43
 20
6568938.07
 30
0.0
 11
6010723.36
 21
6568938.07
 31
0.0
  0
LINE
  5
334
330
17
100
AcDbEntity
  8
0
 62
2
100
AcDbLine
 10
6010723.43
 20
6568938.07
 30
0.0
 11
6010723.43
 21
6568938.0
 31
0.0
  0
HATCH
  5
335
330
17
100
AcDbEntity
  8
0
 62
1
100
AcDbHatch
 10
0.0
 20
0.0
 30
0.0
210
0.0
220
0.0
230
1.0
  2
SOLID
 70
1
 71
0
 91
1
 92
1
 93
1
 72
3
 10
6010721.4
 20
6568938.58
 11
0.0
 21
0.005
 40
1
 50
0.0
 51
360.0
 73
0
 97
0
 75
0
 76
1
 98
0
  0
LINE
  5
336
330
17
100
AcDbEntity
  8
0
100
AcDbLine
 10
6010721.48
 20
6568938.52
 30
0.0
 11
6010721.4
 21
6568938.58
 31
0.0
  0
LINE
  5
337
330
17
100
AcDbEntity
  8
0
 62
4
100
AcDbLine
 10
6010721.48
 20
6568938.52
 30
0.0
 11
6010721.4
 21
6568938.52
 31
0.0
  0
LINE
  5
338
330
17
100
AcDbEntity
  8
0
 62
2
100
AcDbLine
 10
6010721.48
 20
6568938.52
 30
0.0
 11
6010721.48
 21
6568938.58
 31
0.0
  0
HATCH
  5
339
330
17
100
AcDbEntity
  8
0
 62
1
100
AcDbHatch
 10
0.0
 20
0.0
 30
0.0
210
0.0
220
0.0
230
1.0
  2
SOLID
 70
1
 71
0
 91
1
 92
1
 93
1
 72
3
 10
6010719.43
 20
6568938.92
 11
0.0
 21
0.005
 40
1
 50
0.0
 51
360.0
 73
0
 97
0
 75
0
 76
1
 98
0
  0
LINE
  5
33A
330
17
100
AcDbEntity
  8
0
100
AcDbLine
 10
6010719.52
 20
6568938.96
 30
0.0
 11
6010719.43
 21
6568938.92
 31
0.0
  0
LINE
  5
33B
330
17
100
AcDbEntity
  8
0
 62
4
100
AcDbLine
 10
6010719.52
 20
6568938.96
 30
0.0
 11
6010719.43
 21
6568938.96
 31
0.0
  0
LINE
  5
33C
330
17
100
AcDbEntity
  8
0
 62
2
100
AcDbLine
 10
6010719.52
 20
6568938.96
 30
0.0
 11
6010719.52
 21
6568938.92
 31
0.0
  0
HATCH
  5
33D
330
17
100
AcDbEntity
  8
0
 62
1
100
AcDbHatch
 10
0.0
 20
0.0
 30
0.0
210
0.0
220
0.0
230
1.0
  2
SOLID
 70
1
 71
0
 91
1
 92
1
 93
1
 72
3
 10
6010717.61
 20
6568939.35
 11
0.0
 21
0.005
 40
1
 50
0.0
 51
360.0
 73
0
 97
0
 75
0
 76
1
 98
0
  0
LINE
  5
33E
330
17
100
AcDbEntity
  8
0
100
AcDbLine
 10
6010717.57
 20
6568939.41
 30
0.0
 11
6010717.61
 21
6568939.35
 31
0.0
  0
LINE
  5
33F
330
17
100
AcDbEntity
  8
0
 62
4
100
AcDbLine
 10
6010717.57
 20
6568939.41
 30
0.0
 11
6010717.61
 21
6568939.41
 31
0.0
  0
LINE
  5
340
330
17
100
AcDbEntity
  8
0
 62
2
100
AcDbLine
 10
6010717.57
 20
6568939.41
 30
0.0
 11
6010717.57
 21
6568939.35
 31
0.0
  0
HATCH
  5
341
330
17
100
AcDbEntity
  8
0
 62
1
100
AcDbHatch
 10
0.0
 20
0.0
 30
0.0
210
0.0
220
0.0
230
1.0
  2
SOLID
 70
1
 71
0
 91
1
 92
1
 93
1
 72
3
 10
6010725.87
 20
6568939.72
 11
0.0
 21
0.005
 40
1
 50
0.0
 51
360.0
 73
0
 97
0
 75
0
 76
1
 98
0
  0
LINE
  5
342
330
17
100
AcDbEntity
  8
0
100
AcDbLine
 10
6010725.96
 20
6568939.77
 30
0.0
 11
6010725.87
 21
6568939.72
 31
0.0
  0
LINE
  5
343
330
17
100
AcDbEntity
  8
0
 62
4
100
AcDbLine
 10
6010725.96
 20
6568939.77
 30
0.0
 11
6010725.87
 21
6568939.77
 31
0.0
  0
LINE
  5
344
330
17
100
AcDbEntity
  8
0
 62
2
100
AcDbLine
 10
6010725.96
 20
6568939.77
 30
0.0
 11
6010725.96
 21
6568939.72
 31
0.0
  0
HATCH
  5
345
330
17
100
AcDbEntity
  8
0
 62
1
100
AcDbHatch
 10
0.0
 20
0.0
 30
0.0
210
0.0
220
0.0
230
1.0
  2
SOLID
 70
1
 71
0
 91
1
 92
1
 93
1
 72
3
 10
6010723.95
 20
6568940.24
 11
0.0
 21
0.005
 40
1
 50
0.0
 51
360.0
 73
0
 97
0
 75
0
 76
1
 98
0
  0
LINE
  5
346
330
17
100
AcDbEntity
  8
0
100
AcDbLine
 10
6010724.03
 20
6568940.3
 30
0.0
 11
6010723.95
 21
6568940.24
 31
0.0
  0
LINE
  5
347
330
17
100
AcDbEntity
  8
0
 62
4
100
AcDbLine
 10
6010724.03
 20
6568940.3
 30
0.0
 11
6010723.95
 21
6568940.3
 31
0.0
  0
LINE
  5
348
330
17
100
AcDbEntity
  8
0
 62
2
100
AcDbLine
 10
6010724.03
 20
6568940.3
 30
0.0
 11
6010724.03
 21
6568940.24
 31
0.0
  0
HATCH
  5
349
330
17
100
AcDbEntity
  8
0
 62
1
100
AcDbHatch
 10
0.0
 20
0.0
 30
0.0
210
0.0
220
0.0
230
1.0
  2
SOLID
 70
1
 71
0
 91
1
 92
1
 93
1
 72
3
 10
6010722.2
 20
6568940.82
 11
0.0
 21
0.005
 40
1
 50
0.0
 51
360.0
 73
0
 97
0
 75
0
 76
1
 98
0
  0
LINE
  5
34A
330
17
100
AcDbEntity
  8
0
100
AcDbLine
 10
6010722.1
 20
6568940.83
 30
0.0
 11
6010722.2
 21
6568940.82
 31
0.0
  0
LINE
  5
34B
330
17
100
AcDbEntity
  8
0
 62
4
100
AcDbLine
 10
6010722.1
 20
6568940.83
 30
0.0
 11
6010722.2
 21
6568940.83
 31
0.0
  0
LINE
  5
34C
330
17
100
AcDbEntity
  8
0
 62
2
100
AcDbLine
 10
6010722.1
 20
6568940.83
 30
0.0
 11
6010722.1
 21
6568940.82
 31
0.0
  0
HATCH
  5
34D
330
17
100
AcDbEntity
  8
0
 62
1
100
AcDbHatch
 10
0.0
 20
0.0
 30
0.0
210
0.0
220
0.0
230
1.0
  2
SOLID
 70
1
 71
0
 91
1
 92
1
 93
1
 72
3
 10
6010720.14
 20
6568941.28
 11
0.0
 21
0.005
 40
1
 50
0.0
 51
360.0
 73
0
 97
0
 75
0
 76
1
 98
0
  0
LINE
  5
34E
330
17
100
AcDbEntity
  8
0
100
AcDbLine
 10
6010720.17
 20
6568941.37
 30
0.0
 11
6010720.14
 21
6568941.28
 31
0.0
  0
LINE
  5
34F
330
17
100
AcDbEntity
  8
0
 62
4
100
AcDbLine
 10
6010720.17
 20
6568941.37
 30
0.0
 11
6010720.14
 21
6568941.37
 31
0.0
  0
LINE
  5
350
330
17
100
AcDbEntity
  8
0
 62
2
100
AcDbLine
 10
6010720.17
 20
6568941.37
 30
0.0
 11
6010720.17
 21
6568941.28
 31
0.0
  0
HATCH
  5
351
330
17
100
AcDbEntity
  8
0
 62
1
100
AcDbHatch
 10
0.0
 20
0.0
 30
0.0
210
0.0
220
0.0
230
1.0
  2
SOLID
 70
1
 71
0
 91
1
 92
1
 93
1
 72
3
 10
6010718.2
 20
6568941.84
 11
0.0
 21
0.005
 40
1
 50
0.0
 51
360.0
 73
0
 97
0
 75
0
 76
1
 98
0
  0
LINE
  5
352
330
17
100
AcDbEntity
  8
0
100
AcDbLine
 10
6010718.24
 20
6568941.9
 30
0.0
 11
6010718.2
 21
6568941.84
 31
0.0
  0
LINE
  5
353
330
17
100
AcDbEntity
  8
0
 62
4
100
AcDbLine
 10
6010718.24
 20
6568941.9
 30
0.0
 11
6010718.2
 21
6568941.9
 31
0.0
  0
LINE
  5
354
330
17
100
AcDbEntity
  8
0
 62
2
100
AcDbLine
 10
6010718.24
 20
6568941.9
 30
0.0
 11
6010718.24
 21
6568941.84
 31
0.0
  0
HATCH
  5
355
330
17
100
AcDbEntity
  8
0
 62
1
100
AcDbHatch
 10
0.0
 20
0.0
 30
0.0
210
0.0
220
0.0
230
1.0
  2
SOLID
 70
1
 71
0
 91
1
 92
1
 93
1
 72
3
 10
6010726.61
 20
6568941.76
 11
0.0
 21
0.005
 40
1
 50
0.0
 51
360.0
 73
0
 97
0
 75
0
 76
1
 98
0
  0
LINE
  5
356
330
17
100
AcDbEntity
  8
0
100
AcDbLine
 10
6010726.65
 20
6568941.86
 30
0.0
 11
6010726.61
 21
6568941.76
 31
0.0
  0
LINE
  5
357
330
17
100
AcDbEntity
  8
0
 62
4
100
AcDbLine
 10
6010726.65
 20
6568941.86
 30
0.0
 11
6010726.61
 21
6568941.86
 31
0.0
  0
LINE
  5
358
330
17
100
AcDbEntity
  8
0
 62
2
100
AcDbLine
 10
6010726.65
 20
6568941.86
 30
0.0
 11
6010726.65
 21
6568941.76
 31
0.0
  0
HATCH
  5
359
330
17
100
AcDbEntity
  8
0
 62
1
100
AcDbHatch
 10
0.0
 20
0.0
 30
0.0
210
0.0
220
0.0
230
1.0
  2
SOLID
 70
1
 71
0
 91
1
 92
1
 93
1
 72
3
 10
6010724.71
 20
6568942.45
 11
0.0
 21
0.005
 40
1
 50
0.0
 51
360.0
 73
0
 97
0
 75
0
 76
1
 98
0
  0
LINE
  5
35A
330
17
100
AcDbEntity
  8
0
100
AcDbLine
 10
6010724.75
 20
6568942.49
 30
0.0
 11
6010724.71
 21
6568942.45
 31
0.0
  0
LINE
  5
35B
330
17
100
AcDbEntity
  8
0
 62
4
100
AcDbLine
 10
6010724.75
 20
6568942.49
 30
0.0
 11
6010724.71
 21
6568942.49
 31
0.0
  0
LINE
  5
35C
330
17
100
AcDbEntity
  8
0
 62
2
100
AcDbLine
 10
6010724.75
 20
6568942.49
 30
0.0
 11
6010724.75
 21
6568942.45
 31
0.0
  0
HATCH
  5
35D
330
17
100
AcDbEntity
  8
0
 62
1
100
AcDbHatch
 10
0.0
 20
0.0
 30
0.0
210
0.0
220
0.0
230
1.0
  2
SOLID
 70
1
 71
0
 91
1
 92
1
 93
1
 72
3
 10
6010722.8
 20
6568943.06
 11
0.0
 21
0.005
 40
1
 50
0.0
 51
360.0
 73
0
 97
0
 75
0
 76
1
 98
0
  0
LINE
  5
35E
330
17
100
AcDbEntity
  8
0
100
AcDbLine
 10
6010722.85
 20
6568943.11
 30
0.0
 11
6010722.8
 21
6568943.06
 31
0.0
  0
LINE
  5
35F
330
17
100
AcDbEntity
  8
0
 62
4
100
AcDbLine
 10
6010722.85
 20
6568943.11
 30
0.0
 11
6010722.8
 21
6568943.11
 31
0.0
  0
LINE
  5
360
330
17
100
AcDbEntity
  8
0
 62
2
100
AcDbLine
 10
6010722.85
 20
6568943.11
 30
0.0
 11
6010722.85
 21
6568943.06
 31
0.0
  0
HATCH
  5
361
330
17
100
AcDbEntity
  8
0
 62
1
100
AcDbHatch
 10
0.0
 20
0.0
 30
0.0
210
0.0
220
0.0
230
1.0
  2
SOLID
 70
1
 71
0
 91
1
 92
1
 93
1
 72
3
 10
6010720.91
 20
6568943.72
 11
0.0
 21
0.005
 40
1
 50
0.0
 51
360.0
 73
0
 97
0
 75
0
 76
1
 98
0
  0
LINE
  5
362
330
17
100
AcDbEntity
  8
0
100
AcDbLine
 10
6010720.95
 20
6568943.74
 30
0.0
 11
6010720.91
 21
6568943.72
 31
0.0
  0
LINE
  5
363
330
17
100
AcDbEntity
  8
0
 62
4
100
AcDbLine
 10
6010720.95
 20
6568943.74
 30
0.0
 11
6010720.91
 21
6568943.74
 31
0.0
  0
LINE
  5
364
330
17
100
AcDbEntity
  8
0
 62
2
100
AcDbLine
 10
6010720.95
 20
6568943.74
 30
0.0
 11
6010720.95
 21
6568943.72
 31
0.0
  0
HATCH
  5
365
330
17
100
AcDbEntity
  8
0
 62
1
100
AcDbHatch
 10
0.0
 20
0.0
 30
0.0
210
0.0
220
0.0
230
1.0
  2
SOLID
 70
1
 71
0
 91
1
 92
1
 93
1
 72
3
 10
6010718.99
 20
6568944.3
 11
0.0
 21
0.005
 40
1
 50
0.0
 51
360.0
 73
0
 97
0
 75
0
 76
1
 98
0
  0
LINE
  5
366
330
17
100
AcDbEntity
  8
0
100
AcDbLine
 10
6010719.05
 20
6568944.37
 30
0.0
 11
6010718.99
 21
6568944.3
 31
0.0
  0
LINE
  5
367
330
17
100
AcDbEntity
  8
0
 62
4
100
AcDbLine
 10
6010719.05
 20
6568944.37
 30
0.0
 11
6010718.99
 21
6568944.37
 31
0.0
  0
LINE
  5
368
330
17
100
AcDbEntity
  8
0
 62
2
100
AcDbLine
 10
6010719.05
 20
6568944.37
 30
0.0
 11
6010719.05
 21
6568944.3
 31
0.0
  0
HATCH
  5
369
330
17
100
AcDbEntity
  8
0
 62
1
100
AcDbHatch
 10
0.0
 20
0.0
 30
0.0
210
0.0
220
0.0
230
1.0
  2
SOLID
 70
1
 71
0
 91
1
 92
1
 93
1
 72
3
 10
6010727.42
 20
6568943.92
 11
0.0
 21
0.005
 40
1
 50
0.0
 51
360.0
 73
0
 97
0
 75
0
 76
1
 98
0
  0
LINE
  5
36A
330
17
100
AcDbEntity
  8
0
100
AcDbLine
 10
6010727.45
 20
6568943.9
 30
0.0
 11
6010727.42
 21
6568943.92
 31
0.0
  0
LINE
  5
36B
330
17
100
AcDbEntity
  8
0
 62
4
100
AcDbLine
 10
6010727.45
 20
6568943.9
 30
0.0
 11
6010727.42
 21
6568943.9
 31
0.0
  0
LINE
  5
36C
330
17
100
AcDbEntity
  8
0
 62
2
100
AcDbLine
 10
6010727.45
 20
6568943.9
 30
0.0
 11
6010727.45
 21
6568943.92
 31
0.0
  0
HATCH
  5
36D
330
17
100
AcDbEntity
  8
0
 62
1
100
AcDbHatch
 10
0.0
 20
0.0
 30
0.0
210
0.0
220
0.0
230
1.0
  2
SOLID
 70
1
 71
0
 91
1
 92
1
 93
1
 72
3
 10
6010725.64
 20
6568944.54
 11
0.0
 21
0.005
 40
1
 50
0.0
 51
360.0
 73
0
 97
0
 75
0
 76
1
 98
0
  0
LINE
  5
36E
330
17
100
AcDbEntity
  8
0
100
AcDbLine
 10
6010725.59
 20
6568944.62
 30
0.0
 11
6010725.64
 21
6568944.54
 31
0.0
  0
LINE
  5
36F
330
17
100
AcDbEntity
  8
0
 62
4
100
AcDbLine
 10
6010725.59
 20
6568944.62
 30
0.0
 11
6010725.64
 21
6568944.62
 31
0.0
  0
LINE
  5
370
330
17
100
AcDbEntity
  8
0
 62
2
100
AcDbLine
 10
6010725.59
 20
6568944.62
 30
0.0
 11
6010725.59
 21
6568944.54
 31
0.0
  0
HATCH
  5
371
330
17
100
AcDbEntity
  8
0
 62
1
100
AcDbHatch
 10
0.0
 20
0.0
 30
0.0
210
0.0
220
0.0
230
1.0
  2
SOLID
 70
1
 71
0
 91
1
 92
1
 93
1
 72
3
 10
6010723.63
 20
6568945.31
 11
0.0
 21
0.005
 40
1
 50
0.0
 51
360.0
 73
0
 97
0
 75
0
 76
1
 98
0
  0
LINE
  5
372
330
17
100
AcDbEntity
  8
0
100
AcDbLine
 10
6010723.72
 20
6568945.35
 30
0.0
 11
6010723.63
 21
6568945.31
 31
0.0
  0
LINE
  5
373
330
17
100
AcDbEntity
  8
0
 62
4
100
AcDbLine
 10
6010723.72
 20
6568945.35
 30
0.0
 11
6010723.63
 21
6568945.35
 31
0.0
  0
LINE
  5
374
330
17
100
AcDbEntity
  8
0
 62
2
100
AcDbLine
 10
6010723.72
 20
6568945.35
 30
0.0
 11
6010723.72
 21
6568945.31
 31
0.0
  0
HATCH
  5
375
330
17
100
AcDbEntity
  8
0
 62
1
100
AcDbHatch
 10
0.0
 20
0.0
 30
0.0
210
0.0
220
0.0
230
1.0
  2
SOLID
 70
1
 71
0
 91
1
 92
1
 93
1
 72
3
 10
6010721.79
 20
6568946.02
 11
0.0
 21
0.005
 40
1
 50
0.0
 51
360.0
 73
0
 97
0
 75
0
 76
1
 98
0
  0
LINE
  5
376
330
17
100
AcDbEntity
  8
0
100
AcDbLine
 10
6010721.86
 20
6568946.07
 30
0.0
 11
6010721.79
 21
6568946.02
 31
0.0
  0
LINE
  5
377
330
17
100
AcDbEntity
  8
0
 62
4
100
AcDbLine
 10
6010721.86
 20
6568946.07
 30
0.0
 11
6010721.79
 21
6568946.07
 31
0.0
  0
LINE
  5
378
330
17
100
AcDbEntity
  8
0
 62
2
100
AcDbLine
 10
6010721.86
 20
6568946.07
 30
0.0
 11
6010721.86
 21
6568946.02
 31
0.0
  0
HATCH
  5
379
330
17
100
AcDbEntity
  8
0
 62
1
100
AcDbHatch
 10
0.0
 20
0.0
 30
0.0
210
0.0
220
0.0
230
1.0
  2
SOLID
 70
1
 71
0
 91
1
 92
1
 93
1
 72
3
 10
6010720.08
 20
6568946.8
 11
0.0
 21
0.005
 40
1
 50
0.0
 51
360.0
 73
0
 97
0
 75
0
 76
1
 98
0
  0
LINE
  5
37A
330
17
100
AcDbEntity
  8
0
100
AcDbLine
 10
6010719.99
 20
6568946.8
 30
0.0
 11
6010720.08
 21
6568946.8
 31
0.0
  0
LINE
  5
37B
330
17
100
AcDbEntity
  8
0
 62
4
100
AcDbLine
 10
6010719.99
 20
6568946.8
 30
0.0
 11
6010720.08
 21
6568946.8
 31
0.0
  0
LINE
  5
37C
330
17
100
AcDbEntity
  8
0
 62
2
100
AcDbLine
 10
6010719.99
 20
6568946.8
 30
0.0
 11
6010719.99
 21
6568946.8
 31
0.0
  0
HATCH
  5
37D
330
17
100
AcDbEntity
  8
0
 62
1
100
AcDbHatch
 10
0.0
 20
0.0
 30
0.0
210
0.0
220
0.0
230
1.0
  2
SOLID
 70
1
 71
0
 91
1
 92
1
 93
1
 72
3
 10
6010728.29
 20
6568945.88
 11
0.0
 21
0.005
 40
1
 50
0.0
 51
360.0
 73
0
 97
0
 75
0
 76
1
 98
0
  0
LINE
  5
37E
330
17
100
AcDbEntity
  8
0
100
AcDbLine
 10
6010728.31
 20
6568945.97
 30
0.0
 11
6010728.29
 21
6568945.88
 31
0.0
  0
LINE
  5
37F
330
17
100
AcDbEntity
  8
0
 62
4
100
AcDbLine
 10
6010728.31
 20
6568945.97
 30
0.0
 11
6010728.29
 21
6568945.97
 31
0.0
  0
LINE
  5
380
330
17
100
AcDbEntity
  8
0
 62
2
100
AcDbLine
 10
6010728.31
 20
6568945.97
 30
0.0
 11
6010728.31
 21
6568945.88
 31
0.0
  0
HATCH
  5
381
330
17
100
AcDbEntity
  8
0
 62
1
100
AcDbHatch
 10
0.0
 20
0.0
 30
0.0
210
0.0
220
0.0
230
1.0
  2
SOLID
 70
1
 71
0
 91
1
 92
1
 93
1
 72
3
 10
6010726.52
 20
6568946.69
 11
0.0
 21
0.005
 40
1
 50
0.0
 51
360.0
 73
0
 97
0
 75
0
 76
1
 98
0
  0
LINE
  5
382
330
17
100
AcDbEntity
  8
0
100
AcDbLine
 10
6010726.47
 20
6568946.77
 30
0.0
 11
6010726.52
 21
6568946.69
 31
0.0
  0
LINE
  5
383
330
17
100
AcDbEntity
  8
0
 62
4
100
AcDbLine
 10
6010726.47
 20
6568946.77
 30
0.0
 11
6010726.52
 21
6568946.77
 31
0.0
  0
LINE
  5
384
330
17
100
AcDbEntity
  8
0
 62
2
100
AcDbLine
 10
6010726.47
 20
6568946.77
 30
0.0
 11
6010726.47
 21
6568946.69
 31
0.0
  0
HATCH
  5
385
330
17
100
AcDbEntity
  8
0
 62
1
100
AcDbHatch
 10
0.0
 20
0.0
 30
0.0
210
0.0
220
0.0
230
1.0
  2
SOLID
 70
1
 71
0
 91
1
 92
1
 93
1
 72
3
 10
6010724.72
 20
6568947.53
 11
0.0
 21
0.005
 40
1
 50
0.0
 51
360.0
 73
0
 97
0
 75
0
 76
1
 98
0
  0
LINE
  5
386
330
17
100
AcDbEntity
  8
0
100
AcDbLine
 10
6010724.64
 20
6568947.57
 30
0.0
 11
6010724.72
 21
6568947.53
 31
0.0
  0
LINE
  5
387
330
17
100
AcDbEntity
  8
0
 62
4
100
AcDbLine
 10
6010724.64
 20
6568947.57
 30
0.0
 11
6010724.72
 21
6568947.57
 31
0.0
  0
LINE
  5
388
330
17
100
AcDbEntity
  8
0
 62
2
100
AcDbLine
 10
6010724.64
 20
6568947.57
 30
0.0
 11
6010724.64
 21
6568947.53
 31
0.0
  0
HATCH
  5
389
330
17
100
AcDbEntity
  8
0
 62
1
100
AcDbHatch
 10
0.0
 20
0.0
 30
0.0
210
0.0
220
0.0
230
1.0
  2
SOLID
 70
1
 71
0
 91
1
 92
1
 93
1
 72
3
 10
6010722.74
 20
6568948.3
 11
0.0
 21
0.005
 40
1
 50
0.0
 51
360.0
 73
0
 97
0
 75
0
 76
1
 98
0
  0
LINE
  5
38A
330
17
100
AcDbEntity
  8
0
100
AcDbLine
 10
6010722.81
 20
6568948.37
 30
0.0
 11
6010722.74
 21
6568948.3
 31
0.0
  0
LINE
  5
38B
330
17
100
AcDbEntity
  8
0
 62
4
100
AcDbLine
 10
6010722.81
 20
6568948.37
 30
0.0
 11
6010722.74
 21
6568948.37
 31
0.0
  0
LINE
  5
38C
330
17
100
AcDbEntity
  8
0
 62
2
100
AcDbLine
 10
6010722.81
 20
6568948.37
 30
0.0
 11
6010722.81
 21
6568948.3
 31
0.0
  0
HATCH
  5
38D
330
17
100
AcDbEntity
  8
0
 62
1
100
AcDbHatch
 10
0.0
 20
0.0
 30
0.0
210
0.0
220
0.0
230
1.0
  2
SOLID
 70
1
 71
0
 91
1
 92
1
 93
1
 72
3
 10
6010720.93
 20
6568949.25
 11
0.0
 21
0.005
 40
1
 50
0.0
 51
360.0
 73
0
 97
0
 75
0
 76
1
 98
0
  0
LINE
  5
38E
330
17
100
AcDbEntity
  8
0
100
AcDbLine
 10
6010720.97
 20
6568949.17
 30
0.0
 11
6010720.93
 21
6568949.25
 31
0.0
  0
LINE
  5
38F
330
17
100
AcDbEntity
  8
0
 62
4
100
AcDbLine
 10
6010720.97
 20
6568949.17
 30
0.0
 11
6010720.93
 21
6568949.17
 31
0.0
  0
LINE
  5
390
330
17
100
AcDbEntity
  8
0
 62
2
100
AcDbLine
 10
6010720.97
 20
6568949.17
 30
0.0
 11
6010720.97
 21
6568949.25
 31
0.0
  0
HATCH
  5
391
330
17
100
AcDbEntity
  8
0
 62
1
100
AcDbHatch
 10
0.0
 20
0.0
 30
0.0
210
0.0
220
0.0
230
1.0
  2
SOLID
 70
1
 71
0
 91
1
 92
1
 93
1
 72
3
 10
6010729.36
 20
6568947.94
 11
0.0
 21
0.005
 40
1
 50
0.0
 51
360.0
 73
0
 97
0
 75
0
 76
1
 98
0
  0
LINE
  5
392
330
17
100
AcDbEntity
  8
0
100
AcDbLine
 10
6010729.32
 20
6568947.95
 30
0.0
 11
6010729.36
 21
6568947.94
 31
0.0
  0
LINE
  5
393
330
17
100
AcDbEntity
  8
0
 62
4
100
AcDbLine
 10
6010729.32
 20
6568947.95
 30
0.0
 11
6010729.36
 21
6568947.95
 31
0.0
  0
LINE
  5
394
330
17
100
AcDbEntity
  8
0
 62
2
100
AcDbLine
 10
6010729.32
 20
6568947.95
 30
0.0
 11
6010729.32
 21
6568947.94
 31
0.0
  0
HATCH
  5
395
330
17
100
AcDbEntity
  8
0
 62
1
100
AcDbHatch
 10
0.0
 20
0.0
 30
0.0
210
0.0
220
0.0
230
1.0
  2
SOLID
 70
1
 71
0
 91
1
 92
1
 93
1
 72
3
 10
6010727.58
 20
6568948.79
 11
0.0
 21
0.005
 40
1
 50
0.0
 51
360.0
 73
0
 97
0
 75
0
 76
1
 98
0
  0
LINE
  5
396
330
17
100
AcDbEntity
  8
0
100
AcDbLine
 10
6010727.53
 20
6568948.83
 30
0.0
 11
6010727.58
 21
6568948.79
 31
0.0
  0
LINE
  5
397
330
17
100
AcDbEntity
  8
0
 62
4
100
AcDbLine
 10
6010727.53
 20
6568948.83
 30
0.0
 11
6010727.58
 21
6568948.83
 31
0.0
  0
LINE
  5
398
330
17
100
AcDbEntity
  8
0
 62
2
100
AcDbLine
 10
6010727.53
 20
6568948.83
 30
0.0
 11
6010727.53
 21
6568948.79
 31
0.0
  0
HATCH
  5
399
330
17
100
AcDbEntity
  8
0
 62
1
100
AcDbHatch
 10
0.0
 20
0.0
 30
0.0
210
0.0
220
0.0
230
1.0
  2
SOLID
 70
1
 71
0
 91
1
 92
1
 93
1
 72
3
 10
6010725.68
 20
6568949.63
 11
0.0
 21
0.005
 40
1
 50
0.0
 51
360.0
 73
0
 97
0
 75
0
 76
1
 98
0
  0
LINE
  5
39A
330
17
100
AcDbEntity
  8
0
100
AcDbLine
 10
6010725.73
 20
6568949.7
 30
0.0
 11
6010725.68
 21
6568949.63
 31
0.0
  0
LINE
  5
39B
330
17
100
AcDbEntity
  8
0
 62
4
100
AcDbLine
 10
6010725.73
 20
6568949.7
 30
0.0
 11
6010725.68
 21
6568949.7
 31
0.0
  0
LINE
  5
39C
330
17
100
AcDbEntity
  8
0
 62
2
100
AcDbLine
 10
6010725.73
 20
6568949.7
 30
0.0
 11
6010725.73
 21
6568949.63
 31
0.0
  0
HATCH
  5
39D
330
17
100
AcDbEntity
  8
0
 62
1
100
AcDbHatch
 10
0.0
 20
0.0
 30
0.0
210
0.0
220
0.0
230
1.0
  2
SOLID
 70
1
 71
0
 91
1
 92
1
 93
1
 72
3
 10
6010723.94
 20
6568950.57
 11
0.0
 21
0.005
 40
1
 50
0.0
 51
360.0
 73
0
 97
0
 75
0
 76
1
 98
0
  0
LINE
  5
39E
330
17
100
AcDbEntity
  8
0
100
AcDbLine
 10
6010723.93
 20
6568950.58
 30
0.0
 11
6010723.94
 21
6568950.57
 31
0.0
  0
LINE
  5
39F
330
17
100
AcDbEntity
  8
0
 62
4
100
AcDbLine
 10
6010723.93
 20
6568950.58
 30
0.0
 11
6010723.94
 21
6568950.58
 31
0.0
  0
LINE
  5
3A0
330
17
100
AcDbEntity
  8
0
 62
2
100
AcDbLine
 10
6010723.93
 20
6568950.58
 30
0.0
 11
6010723.93
 21
6568950.57
 31
0.0
  0
HATCH
  5
3A1
330
17
100
AcDbEntity
  8
0
 62
1
100
AcDbHatch
 10
0.0
 20
0.0
 30
0.0
210
0.0
220
0.0
230
1.0
  2
SOLID
 70
1
 71
0
 91
1
 92
1
 93
1
 72
3
 10
6010722.14
 20
6568951.38
 11
0.0
 21
0.005
 40
1
 50
0.0
 51
360.0
 73
0
 97
0
 75
0
 76
1
 98
0
  0
LINE
  5
3A2
330
17
100
AcDbEntity
  8
0
100
AcDbLine
 10
6010722.13
 20
6568951.46
 30
0.0
 11
6010722.14
 21
6568951.38
 31
0.0
  0
LINE
  5
3A3
330
17
100
AcDbEntity
  8
0
 62
4
100
AcDbLine
 10
6010722.13
 20
6568951.46
 30
0.0
 11
6010722.14
 21
6568951.46
 31
0.0
  0
LINE
  5
3A4
330
17
100
AcDbEntity
  8
0
 62
2
100
AcDbLine
 10
6010722.13
 20
6568951.46
 30
0.0
 11
6010722.13
 21
6568951.38
 31
0.0
  0
HATCH
  5
3A5
330
17
100
AcDbEntity
  8
0
 62
1
100
AcDbHatch
 10
0.0
 20
0.0
 30
0.0
210
0.0
220
0.0
230
1.0
  2
SOLID
 70
1
 71
0
 91
1
 92
1
 93
1
 72
3
 10
6010730.24
 20
6568949.83
 11
0.0
 21
0.005
 40
1
 50
0.0
 51
360.0
 73
0
 97
0
 75
0
 76
1
 98
0
  0
LINE
  5
3A6
330
17
100
AcDbEntity
  8
0
100
AcDbLine
 10
6010730.31
 20
6568949.76
 30
0.0
 11
6010730.24
 21
6568949.83
 31
0.0
  0
LINE
  5
3A7
330
17
100
AcDbEntity
  8
0
 62
4
100
AcDbLine
 10
6010730.31
 20
6568949.76
 30
0.0
 11
6010730.24
 21
6568949.76
 31
0.0
  0
LINE
  5
3A8
330
17
100
AcDbEntity
  8
0
 62
2
100
AcDbLine
 10
6010730.31
 20
6568949.76
 30
0.0
 11
6010730.31
 21
6568949.83
 31
0.0
  0
HATCH
  5
3A9
330
17
100
AcDbEntity
  8
0
 62
1
100
AcDbHatch
 10
0.0
 20
0.0
 30
0.0
210
0.0
220
0.0
230
1.0
  2
SOLID
 70
1
 71
0
 91
1
 92
1
 93
1
 72
3
 10
6010728.65
 20
6568950.73
 11
0.0
 21
0.005
 40
1
 50
0.0
 51
360.0
 73
0
 97
0
 75
0
 76
1
 98
0
  0
LINE
  5
3AA
330
17
100
AcDbEntity
  8
0
100
AcDbLine
 10
6010728.59
 20
6568950.79
 30
0.0
 11
6010728.65
 21
6568950.73
 31
0.0
  0
LINE
  5
3AB
330
17
100
AcDbEntity
  8
0
 62
4
100
AcDbLine
 10
6010728.59
 20
6568950.79
 30
0.0
 11
6010728.65
 21
6568950.79
 31
0.0
  0
LINE
  5
3AC
330
17
100
AcDbEntity
  8
0
 62
2
100
AcDbLine
 10
6010728.59
 20
6568950.79
 30
0.0
 11
6010728.59
 21
6568950.73
 31
0.0
  0
HATCH
  5
3AD
330
17
100
AcDbEntity
  8
0
 62
1
100
AcDbHatch
 10
0.0
 20
0.0
 30
0.0
210
0.0
220
0.0
230
1.0
  2
SOLID
 70
1
 71
0
 91
1
 92
1
 93
1
 72
3
 10
6010726.94
 20
6568951.79
 11
0.0
 21
0.005
 40
1
 50
0.0
 51
360.0
 73
0
 97
0
 75
0
 76
1
 98
0
  0
LINE
  5
3AE
330
17
100
AcDbEntity
  8
0
100
AcDbLine
 10
6010726.87
 20
6568951.81
 30
0.0
 11
6010726.94
 21
6568951.79
 31
0.0
  0
LINE
  5
3AF
330
17
100
AcDbEntity
  8
0
 62
4
100
AcDbLine
 10
6010726.87
 20
6568951.81
 30
0.0
 11
6010726.94
 21
6568951.81
 31
0.0
  0
LINE
  5
3B0
330
17
100
AcDbEntity
  8
0
 62
2
100
AcDbLine
 10
6010726.87
 20
6568951.81
 30
0.0
 11
6010726.87
 21
6568951.79
 31
0.0
  0
HATCH
  5
3B1
330
17
100
AcDbEntity
  8
0
 62
1
100
AcDbHatch
 10
0.0
 20
0.0
 30
0.0
210
0.0
220
0.0
230
1.0
  2
SOLID
 70
1
 71
0
 91
1
 92
1
 93
1
 72
3
 10
6010725.12
 20
6568952.87
 11
0.0
 21
0.005
 40
1
 50
0.0
 51
360.0
 73
0
 97
0
 75
0
 76
1
 98
0
  0
LINE
  5
3B2
330
17
100
AcDbEntity
  8
0
100
AcDbLine
 10
6010725.16
 20
6568952.84
 30
0.0
 11
6010725.12
 21
6568952.87
 31
0.0
  0
LINE
  5
3B3
330
17
100
AcDbEntity
  8
0
 62
4
100
AcDbLine
 10
6010725.16
 20
6568952.84
 30
0.0
 11
6010725.12
 21
6568952.84
 31
0.0
  0
LINE
  5
3B4
330
17
100
AcDbEntity
  8
0
 62
2
100
AcDbLine
 10
6010725.16
 20
6568952.84
 30
0.0
 11
6010725.16
 21
6568952.87
 31
0.0
  0
HATCH
  5
3B5
330
17
100
AcDbEntity
  8
0
 62
1
100
AcDbHatch
 10
0.0
 20
0.0
 30
0.0
210
0.0
220
0.0
230
1.0
  2
SOLID
 70
1
 71
0
 91
1
 92
1
 93
1
 72
3
 10
6010723.39
 20
6568953.79
 11
0.0
 21
0.005
 40
1
 50
0.0
 51
360.0
 73
0
 97
0
 75
0
 76
1
 98
0
  0
LINE
  5
3B6
330
17
100
AcDbEntity
  8
0
100
AcDbLine
 10
6010723.44
 20
6568953.86
 30
0.0
 11
6010723.39
 21
6568953.79
 31
0.0
  0
LINE
  5
3B7
330
17
100
AcDbEntity
  8
0
 62
4
100
AcDbLine
 10
6010723.44
 20
6568953.86
 30
0.0
 11
6010723.39
 21
6568953.86
 31
0.0
  0
LINE
  5
3B8
330
17
100
AcDbEntity
  8
0
 62
2
100
AcDbLine
 10
6010723.44
 20
6568953.86
 30
0.0
 11
6010723.44
 21
6568953.79
 31
0.0
  0
HATCH
  5
3B9
330
17
100
AcDbEntity
  8
0
 62
1
100
AcDbHatch
 10
0.0
 20
0.0
 30
0.0
210
0.0
220
0.0
230
1.0
  2
SOLID
 70
1
 71
0
 91
1
 92
1
 93
1
 72
3
 10
6010731.39
 20
6568951.65
 11
0.0
 21
0.005
 40
1
 50
0.0
 51
360.0
 73
0
 97
0
 75
0
 76
1
 98
0
  0
LINE
  5
3BA
330
17
100
AcDbEntity
  8
0
100
AcDbLine
 10
6010731.49
 20
6568951.66
 30
0.0
 11
6010731.39
 21
6568951.65
 31
0.0
  0
LINE
  5
3BB
330
17
100
AcDbEntity
  8
0
 62
4
100
AcDbLine
 10
6010731.49
 20
6568951.66
 30
0.0
 11
6010731.39
 21
6568951.66
 31
0.0
  0
LINE
  5
3BC
330
17
100
AcDbEntity
  8
0
 62
2
100
AcDbLine
 10
6010731.49
 20
6568951.66
 30
0.0
 11
6010731.49
 21
6568951.65
 31
0.0
  0
HATCH
  5
3BD
330
17
100
AcDbEntity
  8
0
 62
1
100
AcDbHatch
 10
0.0
 20
0.0
 30
0.0
210
0.0
220
0.0
230
1.0
  2
SOLID
 70
1
 71
0
 91
1
 92
1
 93
1
 72
3
 10
6010729.77
 20
6568952.67
 11
0.0
 21
0.005
 40
1
 50
0.0
 51
360.0
 73
0
 97
0
 75
0
 76
1
 98
0
  0
LINE
  5
3BE
330
17
100
AcDbEntity
  8
0
100
AcDbLine
 10
6010729.81
 20
6568952.76
 30
0.0
 11
6010729.77
 21
6568952.67
 31
0.0
  0
LINE
  5
3BF
330
17
100
AcDbEntity
  8
0
 62
4
100
AcDbLine
 10
6010729.81
 20
6568952.76
 30
0.0
 11
6010729.77
 21
6568952.76
 31
0.0
  0
LINE
  5
3C0
330
17
100
AcDbEntity
  8
0
 62
2
100
AcDbLine
 10
6010729.81
 20
6568952.76
 30
0.0
 11
6010729.81
 21
6568952.67
 31
0.0
  0
HATCH
  5
3C1
330
17
100
AcDbEntity
  8
0
 62
1
100
AcDbHatch
 10
0.0
 20
0.0
 30
0.0
210
0.0
220
0.0
230
1.0
  2
SOLID
 70
1
 71
0
 91
1
 92
1
 93
1
 72
3
 10
6010728.15
 20
6568953.84
 11
0.0
 21
0.005
 40
1
 50
0.0
 51
360.0
 73
0
 97
0
 75
0
 76
1
 98
0
  0
LINE
  5
3C2
330
17
100
AcDbEntity
  8
0
100
AcDbLine
 10
6010728.14
 20
6568953.85
 30
0.0
 11
6010728.15
 21
6568953.84
 31
0.0
  0
LINE
  5
3C3
330
17
100
AcDbEntity
  8
0
 62
4
100
AcDbLine
 10
6010728.14
 20
6568953.85
 30
0.0
 11
6010728.15
 21
6568953.85
 31
0.0
  0
LINE
  5
3C4
330
17
100
AcDbEntity
  8
0
 62
2
100
AcDbLine
 10
6010728.14
 20
6568953.85
 30
0.0
 11
6010728.14
 21
6568953.84
 31
0.0
  0
HATCH
  5
3C5
330
17
100
AcDbEntity
  8
0
 62
1
100
AcDbHatch
 10
0.0
 20
0.0
 30
0.0
210
0.0
220
0.0
230
1.0
  2
SOLID
 70
1
 71
0
 91
1
 92
1
 93
1
 72
3
 10
6010726.47
 20
6568954.87
 11
0.0
 21
0.005
 40
1
 50
0.0
 51
360.0
 73
0
 97
0
 75
0
 76
1
 98
0
  0
LINE
  5
3C6
330
17
100
AcDbEntity
  8
0
100
AcDbLine
 10
6010726.47
 20
6568954.95
 30
0.0
 11
6010726.47
 21
6568954.87
 31
0.0
  0
LINE
  5
3C7
330
17
100
AcDbEntity
  8
0
 62
4
100
AcDbLine
 10
6010726.47
 20
6568954.95
 30
0.0
 11
6010726.47
 21
6568954.95
 31
0.0
  0
LINE
  5
3C8
330
17
100
AcDbEntity
  8
0
 62
2
100
AcDbLine
 10
6010726.47
 20
6568954.95
 30
0.0
 11
6010726.47
 21
6568954.87
 31
0.0
  0
HATCH
  5
3C9
330
17
100
AcDbEntity
  8
0
 62
1
100
AcDbHatch
 10
0.0
 20
0.0
 30
0.0
210
0.0
220
0.0
230
1.0
  2
SOLID
 70
1
 71
0
 91
1
 92
1
 93
1
 72
3
 10
6010724.83
 20
6568956.03
 11
0.0
 21
0.005
 40
1
 50
0.0
 51
360.0
 73
0
 97
0
 75
0
 76
1
 98
0
  0
LINE
  5
3CA
330
17
100
AcDbEntity
  8
0
100
AcDbLine
 10
6010724.79
 20
6568956.04
 30
0.0
 11
6010724.83
 21
6568956.03
 31
0.0
  0
LINE
  5
3CB
330
17
100
AcDbEntity
  8
0
 62
4
100
AcDbLine
 10
6010724.79
 20
6568956.04
 30
0.0
 11
6010724.83
 21
6568956.04
 31
0.0
  0
LINE
  5
3CC
330
17
100
AcDbEntity
  8
0
 62
2
100
AcDbLine
 10
6010724.79
 20
6568956.04
 30
0.0
 11
6010724.79
 21
6568956.03
 31
0.0
  0
ENDSEC
  0
SECTION
  2
OBJECTS
  0
DICTIONARY
  5
A
330
0
100
AcDbDictionary
281
1
  3
ACAD_COLOR
350
B
  3
ACAD_GROUP
350
C
  3
ACAD_LAYOUT
350
D
  3
ACAD_MATERIAL
350
E
  3
ACAD_MLEADERSTYLE
350
F
  3
ACAD_MLINESTYLE
350
10
  3
ACAD_PLOTSETTINGS
350
11
  3
ACAD_PLOTSTYLENAME
350
12
  3
ACAD_SCALELIST
350
14
  3
ACAD_TABLESTYLE
350
15
  3
ACAD_VISUALSTYLE
350
16
  0
DICTIONARY
  5
B
330
A
100
AcDbDictionary
281
1
  0
DICTIONARY
  5
C
330
A
100
AcDbDictionary
281
1
  0
DICTIONARY
  5
D
330
A
100
AcDbDictionary
281
1
  3
Model
350
1A
  3
Layout1
350
1E
  0
DICTIONARY
  5
E
330
A
100
AcDbDictionary
281
1
  3
ByBlock
350
1F
  3
ByLayer
350
20
  3
Global
350
21
  0
DICTIONARY
  5
F
330
A
100
AcDbDictionary
281
1
  3
Standard
350
2C
  0
DICTIONARY
  5
10
330
A
100
AcDbDictionary
281
1
  3
Standard
350
22
  0
DICTIONARY
  5
11
330
A
100
AcDbDictionary
281
1
  0
ACDBDICTIONARYWDFLT
  5
12
330
A
100
AcDbDictionary
281
1
  3
Normal
350
13
100
AcDbDictionaryWithDefault
340
13
  0
ACDBPLACEHOLDER
  5
13
330
12
  0
DICTIONARY
  5
14
330
A
100
AcDbDictionary
281
1
  0
DICTIONARY
  5
15
330
A
100
AcDbDictionary
281
1
  0
DICTIONARY
  5
16
330
A
100
AcDbDictionary
281
1
  0
LAYOUT
  5
1A
330
D
100
AcDbPlotSettings
  1

  2
Adobe PDF
  4
A4
  6

 40
3.175
 41
3.175
 42
3.175
 43
3.175
 44
209.91
 45
297.03
 46
0.0
 47
0.0
 48
0.0
 49
0.0
140
0.0
141
0.0
142
1.0
143
1.0
 70
1024
 72
0
 73
1
 74
5
  7

 75
16
 76
0
 77
2
 78
300
147
1.0
148
0.0
149
0.0
100
AcDbLayout
  1
Model
 70
1
 71
0
 10
-3.175
 20
-3.175
 11
293.857
 21
206.735
 12
0.0
 22
0.0
 32
0.0
 14
29.068
 24
20.356
 34
0.0
 15
261.614
 25
183.204
 35
0.0
146
0.0
 13
0.0
 23
0.0
 33
0.0
 16
1.0
 26
0.0
 36
0.0
 17
0.0
 27
1.0
 37
0.0
 76
1
330
17
  0
LAYOUT
  5
1E
330
D
100
AcDbPlotSettings
  1

  2
Adobe PDF
  4
A4
  6

 40
3.175
 41
3.175
 42
3.175
 43
3.175
 44
209.91
 45
297.03
 46
0.0
 47
0.0
 48
0.0
 49
0.0
140
0.0
141
0.0
142
1.0
143
1.0
 70
0
 72
0
 73
1
 74
5
  7

 75
16
 76
0
 77
2
 78
300
147
1.0
148
0.0
149
0.0
100
AcDbLayout
  1
Layout1
 70
1
 71
1
 10
-3.175
 20
-3.175
 11
293.857
 21
206.735
 12
0.0
 22
0.0
 32
0.0
 14
29.068
 24
20.356
 34
0.0
 15
261.614
 25
183.204
 35
0.0
146
0.0
 13
0.0
 23
0.0
 33
0.0
 16
1.0
 26
0.0
 36
0.0
 17
0.0
 27
1.0
 37
0.0
 76
1
330
1B
  0
MATERIAL
  5
1F
102
{ACAD_REACTORS
330
E
102
}
330
E
100
AcDbMaterial
  1
ByBlock
  2

 70
0
 40
1.0
 71
1
 41
1.0
 91
-1023410177
 42
1.0
 72
1
  3

 73
1
 74
1
 75
1
 44
0.5
 73
0
 45
1.0
 46
1.0
 77
1
  4

 78
1
 79
1
170
1
 48
1.0
171
1
  6

172
1
173
1
174
1
140
1.0
141
1.0
175
1
  7

176
1
177
1
178
1
143
1.0
179
1
  8

270
1
271
1
272
1
145
1.0
146
1.0
273
1
  9

274
1
275
1
276
1
 42
1.0
 72
1
  3

 73
1
 74
1
 75
1
 94
63
  0
MATERIAL
  5
20
102
{ACAD_REACTORS
330
E
102
}
330
E
100
AcDbMaterial
  1
ByLayer
  2

 70
0
 40
1.0
 71
1
 41
1.0
 91
-1023410177
 42
1.0
 72
1
  3

 73
1
 74
1
 75
1
 44
0.5
 73
0
 45
1.0
 46
1.0
 77
1
  4

 78
1
 79
1
170
1
 48
1.0
171
1
  6

172
1
173
1
174
1
140
1.0
141
1.0
175
1
  7

176
1
177
1
178
1
143
1.0
179
1
  8

270
1
271
1
272
1
145
1.0
146
1.0
273
1
  9

274
1
275
1
276
1
 42
1.0
 72
1
  3

 73
1
 74
1
 75
1
 94
63
  0
MATERIAL
  5
21
102
{ACAD_REACTORS
330
E
102
}
330
E
100
AcDbMaterial
  1
Global
  2

 70
0
 40
1.0
 71
1
 41
1.0
 91
-1023410177
 42
1.0
 72
1
  3

 73
1
 74
1
 75
1
 44
0.5
 73
0
 45
1.0
 46
1.0
 77
1
  4

 78
1
 79
1
170
1
 48
1.0
171
1
  6

172
1
173
1
174
1
140
1.0
141
1.0
175
1
  7

176
1
177
1
178
1
143
1.0
179
1
  8

270
1
271
1
272
1
145
1.0
146
1.0
273
1
  9

274
1
275
1
276
1
 42
1.0
 72
1
  3

 73
1
 74
1
 75
1
 94
63
  0
MLINESTYLE
  5
22
102
{ACAD_REACTORS
330
10
102
}
330
10
100
AcDbMlineStyle
  2
Standard
 70
0
  3

 62
256
 51
90.0
 52
90.0
 71
2
 49
0.5
 62
256
  6
BYLAYER
 49
-0.5
 62
256
  6
BYLAYER
  0
MLEADERSTYLE
  5
2C
102
{ACAD_REACTORS
330
F
102
}
330
F
100
AcDbMLeaderStyle
179
2
170
2
171
1
172
0
 90
2
 40
0.0
 41
0.0
173
1
 91
-1056964608
 92
-2
290
1
 42
2.0
291
1
 43
8.0
  3
Standard
 44
4.0
300

342
29
174
1
175
1
176
0
178
1
 93
-1056964608
 45
4.0
292
0
297
0
 46
4.0
 94
-1056964608
 47
1.0
 49
0.0
140
1.0
294
1
141
0.0
177
0
142
1.0
295
0
296
0
143
3.75
271
0
272
9
272
9
  0
ENDSEC
  0
EOF
